<svg width="80%" height="100%" viewBox="0 0 132 136" version="1.1" xmlns="http://www.w3.org/2000/svg" xmlns:xlink="http://www.w3.org/1999/xlink" xml:space="preserve" xmlns:serif="http://www.serif.com/" style="fill-rule:evenodd;clip-rule:evenodd;stroke-linejoin:round;stroke-miterlimit:2;">
    <path id="path395" d="M5.648,135.516c-0.71,-0.134 -0.892,0.002 -2.212,-1.155c-0.479,-0.447 -1.985,-2.004 -2.413,-2.906c-0.253,-0.534 -0.33,-1.182 -0.253,-2.135c0.062,-0.752 0.221,-14.131 0.354,-29.731c0.134,-15.6 0.305,-30.387 0.38,-32.861l0.138,-4.497l1.021,-1.135c0.562,-0.625 2.748,-2.304 4.863,-3.734c3.825,-2.588 3.842,-2.604 3.965,-3.589c0.068,-0.545 0.188,-4.036 0.266,-7.76c0.079,-3.723 0.251,-7.21 0.382,-7.748c0.292,-1.197 1.505,-2.662 2.692,-3.252c0.829,-0.411 1.727,-0.443 14.491,-0.512l13.608,-0.074l5.068,-3.339c6.246,-4.115 6.667,-4.334 8.333,-4.334c1.712,-0 2.719,0.523 8.942,4.645l4.97,3.292l11.021,0.014c6.061,0.007 12.194,0.098 13.629,0.201c3.084,0.222 3.829,0.562 4.853,2.219l0.696,1.126l0.157,7.995c0.086,4.397 0.221,8.192 0.3,8.433c0.079,0.241 1.889,1.647 4.023,3.123c2.135,1.477 4.273,3.13 4.753,3.674l0.872,0.989l0.147,7.765c0.081,4.271 0.215,19.33 0.298,33.465c0.116,19.819 0.085,25.971 -0.134,26.884c-0.369,1.539 -1.526,2.883 -3.042,3.535c-1.146,0.493 -1.579,0.514 -14.892,0.725c-7.542,0.12 -25.951,0.325 -40.909,0.456c-14.958,0.131 -31.398,0.292 -36.534,0.356c-6.47,0.082 -9.49,0.04 -9.833,-0.135l0,-0Zm36.212,-4.412c16.77,-0.219 33.432,-0.496 50.942,-0.847c4.265,-0.086 7.704,-0.237 7.643,-0.337c-0.061,-0.099 -4.023,-3.201 -8.805,-6.894c-4.781,-3.693 -9.218,-7.147 -9.86,-7.675c-0.642,-0.529 -1.393,-1.114 -1.669,-1.3c-0.277,-0.186 -5.232,-3.954 -11.012,-8.372c-5.781,-4.419 -10.972,-8.296 -11.536,-8.616c-0.714,-0.405 -1.206,-0.536 -1.624,-0.431c-1.248,0.314 -45.868,32.834 -47.081,34.315c-0.299,0.364 0.211,0.391 7.47,0.389c4.285,-0 15.774,-0.105 25.532,-0.232Zm65.17,-7.528c-0.381,-11.504 -0.44,-27.092 -0.156,-41.041c0.166,-8.146 0.26,-15.002 0.21,-15.234c-0.08,-0.367 -0.263,-0.299 -1.376,0.507c-0.706,0.511 -2.229,1.586 -3.385,2.387c-8.036,5.573 -33.2,23.746 -36.569,26.409c-1.144,0.904 -1.16,0.934 -0.746,1.391c0.584,0.646 4.593,3.594 16.188,11.905c16.899,12.112 25.478,18.17 25.735,18.17c0.17,-0 0.201,-1.399 0.099,-4.494Zm-96.685,0.624c19.349,-13.479 30.846,-21.567 34.424,-24.218l3.142,-2.327l-0.807,-0.68c-4.737,-3.984 -41.07,-30.769 -41.738,-30.769c-0.201,0 -0.273,1.431 -0.27,5.428c0.004,8.223 0.704,41.896 1.069,51.482l0.145,3.8l0.734,-0.464c0.403,-0.255 1.889,-1.268 3.301,-2.252Zm69.829,-42.869c17.043,-12.14 17.306,-12.339 17.447,-13.219c0.265,-1.659 0.192,-28.938 -0.08,-29.445c-0.655,-1.224 0.597,-1.175 -29.698,-1.172c-15.446,0.001 -33.388,0.108 -39.871,0.238c-11.113,0.222 -11.813,0.261 -12.233,0.681c-0.626,0.627 -0.706,3.568 -0.494,18.269l0.174,12.052l12.871,9.226c25.505,18.283 22.587,16.295 23.256,15.843c3.373,-2.277 6.107,-2.273 9.337,0.012c0.765,0.542 0.848,0.554 1.401,0.208c0.322,-0.202 8.373,-5.914 17.89,-12.693l0,0Zm-52.15,-8.959c-0.468,-0.218 -0.988,-1.4 -0.987,-2.244c0.001,-1.04 0.783,-2.281 1.455,-2.312c1.22,-0.056 4.819,0.068 14.185,0.489c5.457,0.245 12.233,0.516 15.058,0.602c2.824,0.087 5.319,0.254 5.544,0.371c0.479,0.25 0.542,1.196 0.104,1.559c-0.54,0.449 -34.523,1.924 -35.359,1.535Zm-0.275,-9.122c-0.269,-0.342 -0.553,-0.876 -0.631,-1.188c-0.201,-0.798 0.303,-2.308 0.911,-2.734c0.665,-0.465 3.295,-0.466 18.096,-0.003c6.257,0.196 17.27,0.496 24.473,0.666c7.203,0.17 13.218,0.383 13.365,0.474c0.432,0.267 0.328,1.724 -0.141,1.969c-0.224,0.118 -3.087,0.283 -6.361,0.368c-34.067,0.886 -41.754,1.068 -45.213,1.068l-4.01,0.001l-0.489,-0.621l-0,0Zm0.275,-8.172c-0.593,-0.238 -1.038,-1.498 -0.884,-2.501c0.234,-1.531 0.789,-2.067 2.26,-2.187c0.69,-0.057 6.56,0.064 13.044,0.268c12.626,0.397 15.733,0.484 30.901,0.863c5.375,0.134 10.024,0.339 10.33,0.455c0.441,0.168 0.556,0.383 0.556,1.035l-0,0.823l-2.043,0.001c-3.008,0.002 -18.415,0.408 -35.541,0.936c-8.281,0.255 -15.712,0.464 -16.514,0.464l-1.457,-0c0,-0 -0.233,-0.009 -0.276,-0.019c-0.044,-0.01 -0.213,-0.072 -0.376,-0.138l-0,0Zm-17.374,8.867c-0.133,-0.847 -0.12,-1.738 0.035,-2.463c0.412,-1.918 0.428,-1.909 -1.682,-0.855c-1.897,0.947 -2.743,1.519 -2.743,1.853c-0,0.267 3.98,2.751 4.458,2.783c0.077,0.005 0.046,-0.588 -0.068,-1.318l-0,0Zm93.455,-0.556l1.888,-0.949l-0.509,-0.543c-0.767,-0.815 -4.209,-3.241 -4.371,-3.079c-0.155,0.155 0.296,4.53 0.53,5.14c0.204,0.531 0.335,0.501 2.462,-0.569Zm-48.008,-29.528c2.185,-0.199 4.2,-0.436 4.479,-0.525c0.446,-0.143 0.254,-0.355 -1.595,-1.765c-1.156,-0.882 -2.288,-1.651 -2.515,-1.711c-0.684,-0.179 -7.719,3.712 -7.719,4.269c0,0.207 3.584,0.076 7.35,-0.268Zm63.073,35.691c-0.289,-0.288 -0.158,-2.663 0.183,-3.323c0.78,-1.509 3.58,-3.243 6.254,-3.873c2.145,-0.506 4.424,-0.463 5.112,0.096l0.551,0.447l-0.487,0.662c-0.865,1.172 -2.698,2.384 -6.486,4.286c-3.375,1.696 -4.697,2.135 -5.127,1.705Zm-15.994,-35.736c-0.835,-1.595 -0.389,-2.923 1.638,-4.876c2.496,-2.404 6.192,-4.451 8.462,-4.685c1.087,-0.112 1.318,-0.069 1.448,0.27c0.396,1.032 -1.778,3.617 -5.497,6.534c-3.744,2.938 -5.53,3.751 -6.051,2.757Zm-86.03,-8.103c-2.126,-0.874 -3.685,-2.032 -5.482,-4.071c-1.612,-1.83 -2.603,-3.387 -2.603,-4.092c0,-0.898 1.515,-1.057 3.318,-0.35c3.044,1.194 9.522,6.4 9.522,7.651c-0,1.482 -2.254,1.89 -4.755,0.862Zm42.386,-10.807c-0.889,-1.261 -1.434,-2.6 -2.125,-5.22c-1.24,-4.699 -1.237,-6.609 0.013,-8.033c1.14,-1.298 2.329,-1.065 3.324,0.652c1.653,2.849 2.054,9.976 0.707,12.58c-0.454,0.878 -1.309,0.888 -1.919,0.021l0,0Z" style="fill-rule:nonzero;" /></svg>