<?xml version="1.0" encoding="UTF-8" standalone="no"?>
<svg
   width="100%"
   height="100%"
   viewBox="0 0 993 721"
   version="1.1"
   xml:space="preserve"
   style="fill-rule:evenodd;clip-rule:evenodd;stroke-linejoin:round;stroke-miterlimit:2;"
   id="svg412"
   sodipodi:docname="presentation.svg"
   inkscape:version="1.2.1 (9c6d41e410, 2022-07-14)"
   xmlns:inkscape="http://www.inkscape.org/namespaces/inkscape"
   xmlns:sodipodi="http://sodipodi.sourceforge.net/DTD/sodipodi-0.dtd"
   xmlns="http://www.w3.org/2000/svg"
   xmlns:svg="http://www.w3.org/2000/svg"><defs
     id="defs416" /><sodipodi:namedview
     id="namedview414"
     pagecolor="#ffffff"
     bordercolor="#cccccc"
     borderopacity="1"
     inkscape:showpageshadow="0"
     inkscape:pageopacity="1"
     inkscape:pagecheckerboard="0"
     inkscape:deskcolor="#d1d1d1"
     showgrid="false"
     inkscape:zoom="0.5776699"
     inkscape:cx="833.52101"
     inkscape:cy="154.93277"
     inkscape:window-width="1920"
     inkscape:window-height="991"
     inkscape:window-x="911"
     inkscape:window-y="2151"
     inkscape:window-maximized="1"
     inkscape:current-layer="svg412" /><path
     id="presentation"
     d="m 637.703,720.492 c -2.217,-0.889 -2.524,-4.13 -3.158,-6.433 -4.907,-17.843 -8.232,-36.085 -12.338,-54.13 -15.818,-69.531 -34.074,-139.54 -46.569,-209.66 l -0.295,-1.658 h -47.765 c -26.271,0 -53.465,0.177 -60.431,0.394 l -12.666,0.395 0.793,1.589 c 1.313,2.631 -18.702,83.302 -20.574,93.35 -3.039,16.311 33.15,-1.674 49.741,-1.844 22.608,-0.231 45.227,-0.498 67.827,0.15 13.259,0.38 26.659,0.424 39.685,2.93 5.203,1.002 0.11,9.065 -1.348,9.125 -25.018,1.038 -50.102,0.334 -75.114,-0.833 -27.077,-1.263 -73.983,-33.16 -81.018,-6.983 -4.459,16.595 -17.07,69.345 -20.198,82.933 -5.478,23.802 -10.674,47.668 -16.059,71.491 -1.192,5.273 -1.181,11 -3.672,15.797 -0.614,1.182 -11.166,7.26 -10.468,-1.332 2.01,-24.76 12.654,-48.045 18.767,-72.123 15.167,-59.737 29.696,-119.636 45.022,-179.332 1.319,-5.138 10.111,-14.576 4.84,-15.158 -8.476,-0.935 -28.948,3.791 -34.255,-5.691 l -1.341,-2.395 -56.344,-0.301 c -19.323,-0.103 -38.911,1.921 -57.955,-1.357 -3.11,-0.535 -2.676,-5.924 -2.68,-9.079 -0.038,-31.803 1.764,-63.581 2.556,-95.374 2.264,-90.934 3.883,-181.899 6.823,-272.814 0.552,-17.097 -8.183,-37.909 2.516,-51.255 8.105,-10.111 25.914,-0.364 38.873,-0.376 83.943,-0.076 167.886,-0.805 251.83,-0.813 l 100.5,-0.009 1.598,1.374 c 3.272,2.815 1.921,8.479 1.994,12.794 0.59,34.872 -1.957,69.729 -2.289,104.604 -0.697,73.097 -1.429,146.195 -1.475,219.295 l -0.062,99.015 -1.856,1.857 c -8.162,8.163 -23.075,0.911 -34.619,0.935 -27.488,0.056 -56.201,-8.819 -82.461,-0.695 -8.023,2.482 2.862,16.558 4.685,24.756 13.766,61.91 29.004,123.486 42.793,185.394 3.421,15.362 7.835,30.547 10.101,46.122 0.76,5.225 0.967,17.312 -3.934,15.345 z m 53.609,-291.476 c 1.261,-40.446 3.45,-81.005 4.171,-121.485 C 697.207,210.79 735.085,107.556 700.219,17.3 686.141,-19.144 622.083,16.741 583.016,16.387 498.364,15.618 414.026,15.635 329.435,15.915 l -14.831,0.049 -0.383,10.884 c -4.655,132.183 -13.028,266.63 -4.814,398.353 l 0.363,5.832 4.888,0.318 c 26.109,1.701 52.292,2.781 78.422,4.018 l 24.698,1.168 2.184,-1.513 c 38.901,-26.959 94.507,-5.612 141.818,-6.923 13.957,-0.387 27.951,-1.038 41.887,-0.185 10.461,0.641 6.383,10.568 10.71,11.27 21.459,3.481 45.461,2.015 67.214,1.927 l 9.345,-0.039 z m -39.565,-26.889 c -100.877,-3.626 -203.278,3.533 -303.592,-5.382 -3.634,-0.323 5.708,-5.467 6.088,-9.096 1.126,-10.774 0.542,-21.659 0.813,-32.489 0.752,-30.004 -16.453,-68.678 4.756,-89.914 l 1.938,-1.941 0.491,4.78 c 3.967,38.583 -2.025,77.546 -3.164,116.316 -0.037,1.264 -1.535,3.298 -0.365,3.775 2.634,1.075 5.677,-0.475 8.521,-0.447 123.12,1.237 122.399,1.386 245.627,7.214 29.431,1.392 82.529,8.753 38.887,7.184 z m -83.286,-32.484 c -14.712,-3.394 -27.719,-0.127 -43.609,-2.328 -8.727,-1.208 -16.877,-5.073 -25.386,-7.355 -0.399,-0.107 -14.706,-2.807 -15.023,-3.049 -3.725,-2.837 -3.839,-8.585 -6.41,-12.498 -13.07,-19.896 -13.34,-19.418 -22.781,-41.102 -2.135,-4.904 -7.616,-8.48 -8.188,-13.798 -1.487,-13.822 6.803,-14.611 -1.784,-29.776 -3.042,-5.373 -13.5,0.608 -17.832,5.007 l -2.922,2.967 1.319,2.642 c 3.288,6.584 -1.322,11.651 -8.235,12.394 l -3.407,0.366 -3.125,6.331 c -4.003,8.109 -8.575,19.615 -11.109,27.954 l -1.991,6.552 1.254,2.191 c 4.512,7.883 -13.529,32.863 -19.338,37.694 -1.639,1.363 -4.98,1.356 -6.392,-0.242 -1.072,-1.213 1.706,-2.754 2.498,-4.166 6.514,-11.614 8.458,-10.841 8.704,-22.045 0.211,-9.627 4.248,-10.391 8.378,-19.87 6.61,-15.167 20.096,-69.825 49.549,-66.577 13.069,1.441 13.179,14.97 16.226,23.683 7.269,20.795 6.425,43.457 23.08,62.455 l 2.378,2.713 1.982,-1.455 c 10.201,-7.495 15.894,13.028 26.179,15.321 8.437,1.882 34.94,7.272 47.029,1.497 2.852,-1.362 3.235,-5.72 5.897,-7.423 8.582,-5.489 8.788,6.926 14.966,6.338 13.752,-1.31 27.461,-3.417 40.94,-6.442 4.056,-0.91 3.553,-11.38 10.551,-11.754 6.603,-0.354 3.078,4.336 7.22,6.599 5.014,2.739 19.164,-3.079 16.997,2.207 -1.958,4.776 -8.799,5.417 -13.372,7.81 -14.795,7.743 -35.471,6.552 -51.247,9.93 -7.857,1.682 -15.166,9.034 -22.996,7.229 z m -75.579,-24.395 c 0,-0.561 -0.371,-1.149 -0.877,-1.393 -0.085,-0.041 -0.176,-0.073 -0.269,-0.085 -0.454,-0.06 -0.652,0.311 -0.631,0.703 0.033,0.598 0.379,1.244 0.884,1.57 0.513,0.33 0.893,-0.37 0.893,-0.795 z m -70.674,-68.801 c 1.275,-0.893 1.539,-2.601 1.196,-4.026 -0.136,-0.563 -0.64,-2.167 -1.457,-1.447 -1.339,1.182 -2.349,2.949 -3.259,4.454 -0.121,0.2 -0.549,0.964 -0.566,1.313 -0.023,0.451 0.572,0.581 0.889,0.612 1.087,0.11 2.305,-0.281 3.197,-0.906 z m 79.784,39.924 c -2.506,-1.449 -3.614,-4.653 -2.76,-7.409 1.085,-3.503 3.05,-7.207 6.841,-8.332 0.767,-0.228 1.58,-0.282 2.379,-0.334 0.767,-0.049 1.754,0.108 2.461,0.442 1.874,0.886 4.381,3.142 4.786,5.273 0.661,3.472 -1.802,7.69 -4.586,9.619 -1.263,0.874 -3.087,1.233 -4.558,1.353 -1.262,0.102 -3.359,0.084 -4.563,-0.612 z m 42.593,-5.751 c -2.522,-2.998 -4.337,-11.406 2.408,-10.863 1.669,0.135 2.826,2.169 4.499,2.232 3.11,0.119 6.064,-1.464 9.153,-1.849 7.046,-0.879 6.914,-0.513 14.074,-1.253 4.01,-0.415 7.876,-1.985 11.905,-2.131 6.394,-0.23 12.655,1.91 19.001,2.726 3.555,0.457 7.162,0.57 10.678,1.269 0.957,0.19 2.184,0.481 2.586,1.37 0.262,0.579 -0.775,1.096 -1.365,1.332 -1.382,0.551 -2.878,0.831 -4.361,0.951 -6.418,0.52 -12.863,0.64 -19.295,0.964 -11.964,0.604 -11.823,0.954 -23.669,2.523 -3.522,0.467 -7.19,-0.355 -10.65,0.454 -4.362,1.02 -10.902,7.102 -14.964,2.275 z m -11.37,-18.324 c -1.275,-0.852 -2.337,-2.091 -3.039,-3.455 -4.597,-8.927 3.339,-9.417 9.26,-10.514 1.375,-0.255 2.692,-1.027 4.087,-0.938 3.436,0.22 2.63,2.256 5.956,2.606 1.999,0.21 3.875,-1.353 5.885,-1.312 3.737,0.076 7.272,1.96 11.005,2.159 5.274,0.281 4.991,-1.606 10.278,-1.586 6.568,0.026 13.1,1.162 19.668,1.18 3.968,0.01 11.271,-1.049 15.707,0.966 4.501,2.045 -1.531,3.501 -2.425,3.559 -5.592,0.367 -11.2,0.444 -16.802,0.622 -4.953,0.158 -9.918,0.04 -14.86,0.386 -6.112,0.428 -9.552,3.197 -16.016,2.235 l -5.04,-0.75 -2.798,2.463 c -4.479,3.943 -7.671,2.092 -13.005,2.788 -3.891,0.508 -4.318,1.957 -7.861,-0.409 z m -32.888,-1.15 c -4.963,-2.402 -3.185,-9.9 -0.194,-13.036 1.378,-1.444 2.605,-2.109 4.532,-3.026 1.557,-0.741 4.525,-1.196 6.051,-0.084 1.261,0.919 1.925,2.487 2.391,3.892 0.536,1.613 0.913,3.525 0.642,5.243 -0.872,5.527 -8.426,9.429 -13.422,7.011 z m 89.924,-61.209 c -1.502,-0.38 -3.47,-1.722 -3.245,-3.555 0.061,-0.489 0.181,-1.184 0.652,-1.328 1.735,-0.532 3.604,-0.449 5.417,-0.531 3.688,-0.168 7.383,-0.202 11.075,-0.219 1.285,-0.006 12.817,-0.15 16.23,0.602 0.502,0.111 -0.293,1.129 -0.761,1.344 -1.142,0.523 -2.322,0.982 -3.538,1.296 -1.891,0.488 -3.821,0.829 -5.756,1.104 -3.484,0.496 -12.581,1.232 -15.854,1.366 -1.406,0.058 -2.856,0.267 -4.22,-0.079 z m -22.817,-13.944 c -1.79,-1.978 -0.817,-5.125 2.164,-5.719 7.652,-1.526 38.947,-4.497 47.598,-5.328 3.442,-0.33 6.878,-0.792 10.334,-0.925 1.317,-0.051 4.577,-0.173 3.882,2.528 -0.179,0.698 -0.965,1.224 -1.671,1.371 -10.487,2.189 -21.088,3.8 -31.652,5.584 -7.28,1.229 -14.553,2.528 -21.878,3.454 -0.71,0.09 -7.256,0.716 -8.777,-0.965 z m -84.372,-21.465 c -4.848,-4.848 7.481,-5.646 8.011,-5.683 37.703,-2.629 75.409,-5.299 113.158,-7.136 7.317,-0.356 21.422,-4.795 21.831,2.519 1.16,20.776 -41.296,5.281 -62.037,6.956 -6.618,0.535 -57.007,3.826 -66.946,4.028 -4.677,0.096 -10.709,2.624 -14.017,-0.684 z m -91.167,-6.062 c -41.187,-9.105 -59.18,-63.22 -26.831,-92.789 10.942,-10.002 25.49,-14.852 40.272,-13.177 10.299,1.166 9.378,4.149 19.778,5.73 2.338,0.355 4.626,-1.456 6.983,-1.255 6.154,0.524 6.214,5.39 7.75,9.841 3.298,9.553 10.53,16.75 12.754,26.829 8.015,36.324 -22.392,73.291 -60.706,64.821 z m 23.513,-9.592 c 13.41,-4.281 25.611,-16.286 28.667,-30.319 0.61,-2.8 1.031,-5.647 1.265,-8.503 0.156,-1.914 1.534,-4.749 -0.099,-5.762 -2.233,-1.384 -5.226,0.548 -7.837,0.841 -6.932,0.778 -13.856,1.614 -20.79,2.374 -4.492,0.493 -9.011,0.76 -13.487,1.384 -1.078,0.15 -2.967,-0.145 -3.129,0.932 -1.035,6.866 -0.112,13.887 -0.151,20.831 l -0.114,20.428 5.426,-0.333 c 3.318,-0.204 7.301,-0.931 10.249,-1.873 z m -21.652,-0.515 c -2.516,-8.745 -1.978,-18.501 -1.765,-27.435 0.089,-3.724 2.22,-8.041 0.202,-11.172 -1.315,-2.041 -4.858,0.05 -7.282,0.187 -5.58,0.316 -11.153,0.746 -16.725,1.172 -3.409,0.26 -7.221,-0.756 -10.219,0.887 -1.303,0.715 0.137,2.993 0.525,4.427 0.666,2.463 1.586,4.86 2.62,7.193 4.947,11.169 13.543,18.281 24.197,23.765 2.06,1.061 5.022,2.045 7.41,2.288 1.216,0.124 1.343,-0.248 1.037,-1.312 z m -6.985,-43.128 5.727,-0.432 0.417,-4.221 c 0.621,-6.3 0.068,-12.661 0.109,-18.991 0.033,-5.006 -0.105,-10.017 0.115,-15.019 0.167,-3.807 3.457,-3.803 3.839,-0.021 0.985,9.737 1.658,19.503 2.446,29.258 0.157,1.951 -1.305,4.878 0.389,5.858 1.442,0.834 2.333,-2.385 3.397,-3.668 1.825,-2.197 3.511,-4.505 5.261,-6.762 2.703,-3.483 5.44,-6.94 8.099,-10.458 l 5.854,-7.745 -0.981,-2.067 c -1.098,-2.314 -0.056,-4.022 -2.392,-5.671 -4.78,-3.374 -12.782,-4.478 -18.414,-4.351 -15.9,0.361 -32.964,8.574 -39.401,24.059 -3.69,8.877 -4.357,12.836 -4.356,22.173 0,0.648 0.173,1.415 0.677,1.824 2.027,1.644 5.23,-0.142 7.81,-0.529 7.136,-1.068 14.208,-2.695 21.404,-3.237 z m 39.791,-2.562 c 6.798,-0.675 13.774,-1.372 15.502,-1.549 l 3.142,-0.321 -0.344,-1.919 c -1.052,-5.873 -3.583,-11.7 -6.737,-16.734 -2.52,-4.021 -4.264,-7.092 -9.205,-6.899 l -3.698,0.144 -1.919,3.55 c -2.661,4.925 -6.351,9.221 -9.572,13.8 -4.8,6.824 -10.555,11.594 -2.207,11.085 5.018,-0.305 10.035,-0.66 15.038,-1.157 z m 210.094,53.513 c -6.732,-5.79 0.943,-37.953 1.076,-38.677 l 1.873,-10.204 -1.465,-0.942 c -6.114,-3.932 -8.045,-12.889 -14.442,-16.339 -9.96,-5.372 -16.959,10.953 -19.668,15.831 -6.734,12.125 -16.117,33.166 -33.588,31.199 -7.512,-0.846 -17.894,-2.285 -23.606,-8.652 -0.074,-0.082 -8.282,-13.467 -10.256,-13.917 -10.569,-2.411 -21.634,2.529 -32.461,1.982 l -4.524,-0.228 -0.324,1.818 c -0.921,5.174 -0.867,10.481 -1.597,15.685 -0.843,6.017 -2.284,22.515 -5.517,17.371 -11.697,-18.608 -0.376,-44.076 2.23,-65.9 0.302,-2.534 7.287,-1.443 7.577,1.093 0.713,6.234 -0.285,12.564 -1.003,18.798 l -0.382,3.316 4.42,-6.33 c 5.389,-7.717 21.953,-26.077 33.021,-12.961 3.794,4.496 5.387,10.476 8.502,15.467 0.928,1.488 1.825,3.652 3.565,3.868 1.644,0.203 39.391,-1.962 40.813,-2.192 3.886,-0.631 2.985,-7.304 4.868,-10.761 5.261,-9.66 12.483,-18.161 24.608,-18.358 4.649,-0.075 10.949,2.087 13.848,6.213 1.633,2.324 2.472,5.114 3.684,7.682 0.88,1.864 1.284,7.209 2.592,5.615 5.711,-6.959 1.947,-18.115 5.236,-26.496 0.323,-0.821 9.934,-13.537 11.491,-3.915 2.282,14.103 -1.735,28.521 -2.754,42.771 -1.093,15.287 -0.081,19.142 -4.816,33.353 -0.186,0.56 -4.051,21.508 -13.001,13.81 z m -59.621,-28.564 c 5.721,-2.628 9.466,-9.975 12.048,-15.283 0.342,-0.703 0.589,-1.459 0.739,-2.226 0.077,-0.389 0.326,-1.188 -0.07,-1.187 -4.912,0.009 -30.972,3.188 -33.263,3.468 -2.095,0.255 -4.638,-0.455 -6.267,0.886 -0.921,0.758 0.524,2.345 1.021,3.43 0.777,1.695 1.7,3.335 2.776,4.858 4.404,6.238 16.185,9.191 23.016,6.054 z m -64.753,-15.884 c 4.654,-0.634 9.344,-0.978 14.011,-1.508 3.303,-0.375 7.415,1 9.899,-1.208 1.543,-1.372 -1.184,-3.96 -1.911,-5.893 -0.845,-2.247 -2.346,-5.385 -3.799,-7.404 -0.677,-0.939 -2.008,-2.629 -3.462,-2.679 -1.53,-0.052 -4.195,1.408 -5.272,2.051 -4.973,2.975 -8.608,7.14 -12.163,11.71 -1.268,1.63 -2.641,3.25 -3.439,5.156 -0.153,0.366 0.742,0.357 1.138,0.342 1.675,-0.061 3.336,-0.341 4.998,-0.567 z m -37.092,41.099 c -1.069,-1.18 -0.929,-3.103 -0.878,-4.694 0.224,-7.03 1.189,-14.018 1.698,-21.033 0.874,-12.054 1.599,-24.118 2.45,-36.174 0.417,-5.913 0.431,-11.875 1.353,-17.73 0.259,-1.646 2.686,-2.871 4.173,-2.258 5.125,2.111 1.752,17.971 1.637,19.083 -2.17,21.12 -4.119,42.271 -6.917,63.317 -0.156,1.174 -2.722,0.367 -3.516,-0.511 z M 605.474,136.51 c 0.354,-0.143 0.783,-0.156 1.155,-0.095 0.04,0.007 0.473,0.075 0.526,0.213 0.02,0.05 -0.056,0.088 -0.084,0.096 -0.104,0.03 -0.21,0.054 -0.317,0.066 -0.302,0.032 -0.75,0.032 -1.052,0 -0.134,-0.015 -0.301,-0.009 -0.39,-0.111 -0.039,-0.044 0.009,-0.086 0.042,-0.108 0.037,-0.026 0.078,-0.045 0.12,-0.061 z M 483.959,95.188 c -0.83,-0.83 -0.527,-3.281 0.633,-3.465 19.602,-3.117 39.47,-4.244 59.235,-6.054 29.537,-2.704 59.119,-4.966 88.732,-6.632 0.002,0 17.888,-3.242 18.887,4.341 0.574,4.357 -7.936,4.222 -12.299,4.755 -5.228,0.638 -10.48,1.08 -15.736,1.415 -9.792,0.623 -65.514,3.719 -81.499,4.234 -19.314,0.622 -44.29,15.07 -57.953,1.406 z M 418.845,68.66 c -0.519,-0.519 -1.333,-3.431 0.03,-3.959 1.612,-0.624 3.445,-0.342 5.173,-0.37 5.063,-0.082 15.451,0.199 20.525,0.575 1.587,0.118 3.234,0.105 4.73,0.648 0.328,0.119 -0.324,0.658 -0.619,0.845 -0.65,0.412 -1.382,0.708 -2.128,0.896 -2.413,0.606 -4.843,1.217 -7.317,1.477 -4.17,0.437 -8.371,0.512 -12.563,0.609 -1.759,0.04 -3.524,-0.038 -5.276,-0.199 -0.866,-0.079 -1.94,0.093 -2.555,-0.522 z m -50.3,-5.452 c -6.632,-2.211 2.219,-6.352 4.011,-6.625 23.893,-3.644 49.154,-8.865 73.369,-7.87 0.33,0.014 -0.167,0.731 -0.465,0.875 -1.112,0.537 -2.337,0.829 -3.549,1.064 -6.401,1.24 -12.848,2.222 -19.268,3.358 -14.271,2.524 -28.518,5.193 -42.806,7.622 -3.747,0.637 -7.687,2.778 -11.292,1.576 z M 202.664,717.463 c -2.564,-2.017 -0.518,-6.562 -0.026,-9.786 0.726,-4.763 2.329,-9.352 3.649,-13.985 8.45,-29.681 18.619,-58.882 26.177,-88.802 l 0.806,-3.189 -13.667,-41.426 c -6.409,-19.423 -12.683,-38.89 -19.049,-58.326 -6.598,-20.145 -6.946,-28.08 14.389,-28.21 20.974,-0.129 44.034,-6.477 62.862,2.766 4.503,2.21 -2.094,9.819 -3.453,14.648 -1.999,7.099 -3.801,14.252 -5.744,21.366 -6.294,23.047 -12.935,45.999 -19.28,69.032 -2.133,7.744 -7.496,15.373 -6.167,23.294 3.723,22.198 13.865,42.828 20.847,64.226 3.405,10.439 7.239,20.741 10.413,31.253 0.277,0.915 5.706,11.894 -0.221,13.614 -7.245,2.103 -10.395,-18.045 -11.298,-20.868 -7.839,-24.508 -13.713,-49.766 -23.842,-73.419 -0.961,-2.244 -1.643,4.6 -2.36,6.933 -7.796,25.366 -15.414,50.785 -23.178,76.16 -0.389,1.272 -3.661,20.38 -10.858,14.719 z m 37.597,-137.72 c 3.173,-10.947 23.8,-76.422 28.827,-91.5 l 2.967,-8.902 -1.524,-0.383 c -3.531,-0.886 -7.284,-0.126 -10.922,0.007 -16.919,0.615 -33.846,1.161 -50.743,2.235 -2.046,0.13 -6.259,-0.661 -5.995,1.372 1.407,10.837 6.809,20.769 10.218,31.152 5.641,17.184 11.335,34.35 16.932,51.548 2.382,7.321 2.558,15.723 7.005,22.006 1.579,2.232 2.474,-4.91 3.235,-7.536 z m 679.478,132.301 c -20.031,-8.455 5.025,-51.887 8.215,-63.643 2.4,-8.845 -4.043,-17.932 -4.885,-27.058 -1.044,-11.307 -1.053,-22.728 -0.392,-34.064 0.655,-11.235 0.839,-22.785 4.328,-33.485 l 1.188,-3.64 -1.814,-9.021 c -3.386,-16.841 -10.094,-32.704 -14.939,-49.113 -1.219,-4.129 -2.153,-8.336 -3.206,-12.51 -0.62,-2.458 -1.569,-9.909 -1.812,-7.386 -4.607,47.786 -1.316,95.731 -7.541,143.678 -0.892,6.87 -2.076,13.699 -3.255,20.526 -0.909,5.266 -1.844,10.531 -3.008,15.747 -0.397,1.779 -0.522,6.084 -2.04,5.075 -1.651,-1.099 -2.861,-2.923 -3.527,-4.79 l -1.384,-3.886 -4.053,-0.401 c -7.514,-0.744 -19.392,-7.097 -26.793,-9.748 l -4.326,-1.549 -3.964,4.202 c -9.564,10.138 -23.209,12.79 -33.621,20.759 -3.211,2.457 -6.889,13.731 -1.811,16.095 9.88,4.599 55.377,-11.884 60.241,-13.073 6.887,-1.683 14.033,-2.379 20.765,-4.604 4.141,-1.368 12.258,-10.237 11.669,-5.916 -3.278,24.033 -40.109,26.812 -56.987,29.457 -8.734,1.37 -17.612,1.57 -26.416,2.375 -2.357,0.216 -5.176,-0.736 -7.067,0.687 -1.223,0.921 1.017,5.784 0.055,4.593 -6.473,-8.019 -13.89,-19.51 -10.358,-30.819 5.273,-16.883 30.068,-10.699 38.393,-24.169 l 1.308,-2.118 -2.479,-2.289 c -1.42,-1.31 -1.043,-6.208 0.831,-5.737 l 1.617,0.406 -0.082,-5.053 c -1.254,-77.236 3.234,-155.547 -4.853,-232.552 -1.664,-15.846 -3.288,-31.719 -5.967,-47.425 -1.203,-7.048 -3.837,-6.562 -1.797,-13.627 3.172,-10.983 6.94,-21.849 8.997,-33.094 1.66,-9.072 1.55,-18.381 2.104,-27.587 0.064,-1.056 0.803,-3.098 -0.253,-3.165 -3.466,-0.219 -5.023,6.277 -8.489,6.043 -0.13,-0.009 -2.215,-6.769 -2.37,-6.898 -3.397,-2.803 -3.145,4.051 -6.838,4.049 -4.581,-0.002 -15.101,-5.436 -17.333,-6.38 -26.776,-11.327 -53.528,-20.277 -78.829,-35.075 -3.043,-1.78 -14.244,-21.693 -7.666,-21.798 7.462,-0.12 15.071,1.286 22.034,3.972 l 4.848,1.869 1.818,-1.529 c 4.082,-3.435 15.023,6.153 14.385,9.275 -0.368,1.806 -7.13,-0.309 -5.5,0.551 15.302,8.078 38.822,16.065 56.553,16.169 4.935,0.029 6.758,-7.304 9.235,-11.573 7.926,-13.659 19.104,-25.962 23.529,-41.122 2.943,-10.086 3.58,-20.926 7.849,-30.526 7.662,-17.232 21.306,-4.019 29.152,-14.876 4.328,-5.989 2.021,-15.156 9.018,-21.278 6.183,-5.41 24.563,-3.592 27.523,-13.65 1.882,-6.396 -4.617,-12.663 -5.25,-19.3 -0.315,-3.294 -0.991,-23.489 0.098,-26.134 l 1.45,-3.524 -1.19,-6.725 c -0.52,-2.944 -0.575,-6.005 -1.536,-8.835 -4.135,-12.178 1.478,17.14 -1.496,17.84 -7.533,1.774 -12.379,-11.216 -13.527,-18.87 l -0.39,-2.6 -1.89,1.155 C 888.341,39.04 861,36.457 861.734,49.593 l 0.224,4.024 1.997,-0.324 c 3.702,-0.601 8.044,1.998 9.966,5.218 0.858,1.438 -10.793,2.256 -10.887,2.325 -3.141,2.306 -1.456,11.154 -0.581,12.765 6.065,11.158 10.588,28.353 23.143,30.264 3.18,0.484 6.314,-1.286 9.385,-2.241 1.269,-0.395 4.335,-2.871 3.563,-1.789 -10.59,14.866 -24.721,8.018 -32.561,-5.858 -5.451,-9.648 -14.154,-34.854 -10.518,-47.129 l 1.05,-3.543 L 855,41.723 c -7.725,-8.063 3.996,-27.882 10.853,-31.518 16.814,-8.915 57.351,6.569 55.974,29.65 l -0.427,7.142 2.139,0.894 c 3.589,1.499 4.198,3.082 4.275,11.114 l 0.064,7.063 -2.059,2.859 c -4.893,6.797 -2.593,24.424 1.706,30.871 1.599,2.399 4.92,-5.324 7.569,-4.186 8.115,3.486 2.137,11.497 2.732,15.072 0.639,3.847 6.341,4.55 9.646,6.619 4.902,3.068 25.584,15.381 28.959,19.606 16.536,20.695 14.415,44.084 15.429,69.937 1.345,34.259 -4.407,94.577 -30.067,120.96 -1.538,1.581 -0.45,-4.491 0.141,-6.616 4.321,-15.56 9.745,-30.792 14.53,-46.216 4.784,-15.421 9.586,-34.47 -16.174,-26.82 l -3.02,0.897 0.309,5.414 c 0.239,4.193 -3.17,1.524 -4.074,4.046 -5.738,16.003 -24.765,62.741 -19.136,78.513 1.069,2.994 4.117,4.852 6.338,7.128 10.772,11.045 6.922,-5.773 11.967,-13.366 0.94,-1.415 3.292,-3.447 4.547,-2.301 4.876,4.453 -1.934,13.121 -3.93,19.416 l -2.658,8.386 1.189,1.956 c 16.01,26.326 2.851,-26.131 15.805,-27.199 1.895,-0.156 3.028,2.87 3.132,4.769 0.648,11.862 -0.314,23.762 -0.925,35.626 -1.243,24.085 -8.781,48.514 -4.347,72.219 3.485,18.634 10.314,36.574 13.289,55.295 3.634,22.874 2.211,75.428 -0.26,95.862 -2.001,16.544 -7.157,32.565 -9.954,48.993 -0.724,4.251 3.428,10.377 -0.042,12.938 l -1.862,1.374 0.204,10.574 c 0.341,17.651 -12.363,6.301 -13.278,-7.205 l -0.384,-5.675 -6.029,-1.585 c -22.677,-5.961 -24.536,18.318 -24.667,40.367 l -0.052,8.742 1.809,-0.073 c 9.99,-0.399 21.529,-11.285 29.844,-15.632 2.983,-1.559 6.116,-2.823 9.25,-4.052 1.7,-0.666 5.736,-3.38 5.233,-1.624 -3.661,12.777 -37.493,34.88 -48.849,30.087 z m -77.516,-495.25 0.428,-12.058 -3.505,6.33 c -2.706,4.885 -4.802,7.674 -9.184,12.216 l -5.679,5.886 1.279,1.361 c 1.411,1.503 2.217,3.492 3.063,5.371 2.932,6.51 4.898,12.719 4.898,19.841 v 6.027 l 2.572,-1.687 c 1.239,-0.812 2.74,-1.289 3.769,-2.354 3.44,-3.561 1.397,-9.823 1.564,-14.771 0.293,-8.72 0.486,-17.443 0.795,-26.162 z m -117.558,-1.841 2.063,4.526 5.316,2.444 c 2.924,1.343 8.338,4.5 12.031,7.014 l 6.716,4.572 1.887,-1.395 c 1.252,-0.926 3.165,-1.209 4.623,-0.664 7.684,2.871 49.239,23.658 54.819,26.331 2.313,1.108 4.578,2.437 7.074,3.025 2.214,0.521 6.29,0.757 6.66,-1.487 0.235,-1.423 -1.127,-2.655 -1.68,-3.987 -1.47,-3.545 -2.857,-7.126 -4.389,-10.645 -0.979,-2.249 -0.88,-5.707 -3.143,-6.656 -5.387,-2.258 -11.658,-0.959 -17.412,-1.962 -15.029,-2.62 -27.824,-7.502 -41.673,-13.397 -8.341,-3.55 -13.658,-9.205 -22.821,-12.549 -8.178,-2.985 -13.689,-3.109 -10.071,4.83 z m 192.762,-95.607 c 3.217,-2.802 6.67,-5.32 10.012,-7.971 1.091,-0.865 2.234,-1.665 3.288,-2.575 1.997,-1.726 -0.551,-5.243 -1.113,-6.709 -0.202,-0.527 -0.536,-0.849 -1.134,-0.729 -1.328,0.267 -0.964,2.572 -2.05,3.387 -1.545,1.158 -3.389,0.241 -5.017,1.139 -1.125,0.62 -1.987,1.63 -2.984,2.44 -4.11,3.34 -4.104,3.29 -8.488,6.254 -1.757,1.188 -4.592,1.551 -5.275,3.559 -0.475,1.395 1.871,2.289 2.939,3.306 4.376,4.17 5.269,1.865 9.822,-2.101 z M 685.881,642.365 c -0.264,-0.185 -0.52,-0.389 -0.735,-0.629 -1.274,-1.414 0.031,-3.225 1.081,-4.32 0.927,-0.965 1.878,-1.909 2.873,-2.804 0.947,-0.853 1.916,-1.686 2.948,-2.434 0.418,-0.302 2.345,-1.829 3.316,-1.17 1.178,0.799 0.194,2.567 -0.297,3.38 -0.704,1.167 -1.426,2.325 -2.218,3.434 -0.807,1.131 -1.684,2.211 -2.573,3.278 -1.179,1.415 -2.589,2.53 -4.395,1.265 z m 19.965,-4.498 c -1.92,-0.93 -4.902,-2.377 -5.34,-4.797 -0.339,-1.874 0.995,-3.747 2.878,-4.04 0.763,-0.118 1.411,0.127 2.105,0.426 2.376,1.022 4.671,2.463 6.575,4.215 0.566,0.521 1.57,1.527 1.938,2.405 0.688,1.646 -1.624,3.783 -3.217,3.64 -1.207,-0.108 -4.214,-1.497 -4.939,-1.849 z m -18.055,-15.184 c -1.602,-1.069 -4.119,-2.729 -4.665,-4.816 -0.501,-1.914 1.114,-3.871 3.029,-4.036 1.178,-0.102 2.332,0.342 3.29,0.987 2.074,1.397 6.06,3.889 7.004,6.71 0.795,2.375 -1.663,3.98 -3.771,3.546 -1.651,-0.34 -3.563,-1.506 -4.887,-2.391 z m 13.47,1.805 c -2.184,-1.599 -0.915,-3.809 0.487,-5.557 0.888,-1.108 1.882,-2.13 2.904,-3.116 1.83,-1.767 6.073,-6.646 9.172,-3.388 3.009,3.162 -2.127,6.844 -3.931,8.383 -1.032,0.881 -2.102,1.721 -3.215,2.497 -1.488,1.038 -3.648,2.476 -5.417,1.181 z m 53.896,-19.541 c -6.351,-3.295 -6.044,-12.595 -1.634,-17.416 1.564,-1.711 3.839,-3.234 6.288,-3.022 1.384,0.119 4.101,1.168 5.268,1.958 2.356,1.595 2.864,4.255 3.116,6.901 0.182,1.909 0.229,4.047 -0.339,5.921 -1.588,5.244 -7.718,8.242 -12.699,5.658 z m -51.015,-45.721 c -0.325,-1.294 0.353,-2.573 1.092,-3.567 1.412,-1.899 12.682,-15.871 14.442,-17.961 0.977,-1.161 2.415,-2.109 3.95,-1.235 3.987,2.271 -1.189,6.752 -2.545,8.437 -1.587,1.971 -9.453,11.581 -12.486,14.728 -1.232,1.279 -3.883,1.871 -4.453,-0.402 z M 752.098,550 c -3.655,-2.33 -7.183,-4.856 -10.71,-7.375 -0.416,-0.297 -7.154,-3.428 -7.935,-6.667 -0.479,-1.988 2.066,-6.013 4.384,-4.305 6.101,4.498 13.826,10.954 19.269,16.192 1.155,1.111 1.204,3.979 -0.979,3.863 -1.161,-0.062 -3.217,-1.191 -4.029,-1.708 z m -38.553,-32.115 c -2.686,-2.04 -5.378,-4.076 -7.985,-6.218 -2.273,-1.868 -4.722,-3.579 -5.868,-6.38 -0.454,-1.108 1.419,-2.602 2.405,-2.402 0.964,0.195 1.929,0.476 2.802,0.932 3.28,1.714 9.701,6.632 12,8.4 2.737,2.105 5.461,4.229 8.109,6.444 0.539,0.451 1.798,1.584 1.801,2.572 0.003,1.097 -2.186,3.795 -3.467,3.317 -2.067,-0.772 -9.625,-6.535 -9.797,-6.665 z m 21.497,4.383 c -1.675,-1.849 -0.88,-4.822 0.341,-6.664 4.581,-6.907 10.843,-15.705 16.046,-22.275 0.872,-1.101 3.592,-2.913 4.493,-0.65 0.561,1.407 -0.512,3.519 -1.022,4.521 -3.875,7.616 -9.204,17.51 -14.156,24.722 -1.196,1.742 -4.334,1.859 -5.702,0.346 z m -471.274,-75.21 0.691,3.326 23.323,-0.369 c 18.811,-0.297 18.776,-1.7 32.254,2.23 1.688,0.492 10.6,3.536 10.664,5.665 0.132,4.324 -14.386,10.313 -17.785,10.591 -11.425,0.932 -22.909,0.856 -34.366,1.205 -29.952,0.912 -61.044,3.534 -91.039,1.212 -11.173,-0.865 -26.158,3.744 -33.259,-4.927 -9.969,-12.174 13.104,-10.71 17.282,-13.261 0.856,-0.523 -0.785,-1.845 -1.129,-2.787 -9.023,-24.663 -8.972,-24.308 -17.329,-48.871 -1.075,-3.158 -3.173,-6.132 -3.246,-9.467 -0.176,-8.036 15.482,-5.021 23.513,-5.346 21.706,-0.881 21.478,-0.599 43.108,-1.884 6.636,-0.394 17.694,-2.508 24.235,1.6 2.161,1.357 2.837,4.287 3.767,6.663 7.01,17.927 15.404,35.573 19.316,54.42 z m -28.965,4.588 c 7.751,-0.455 13.427,2.538 10.137,-3.935 l -1.436,-2.826 -5.25,-0.22 c -1.957,-0.081 -4.062,0.216 -5.848,-0.589 -1.451,-0.654 -2.145,-4.594 -3.37,-5.508 -1.139,-0.85 -2.954,1.055 -4.24,0.451 -2.723,-1.278 -1.396,-2.661 -3.968,-4.136 -1.222,-0.701 -2.919,-0.122 -4.147,-0.813 -2.394,-1.347 -0.818,-2.528 -3.117,-4.329 -1.961,-1.535 -4.205,3.229 -7.374,-0.191 l -1.461,-1.575 -1.944,1.635 c -2.322,1.955 -2.886,0.007 -5.638,1.298 -1.254,0.588 -1.116,2.678 -2.221,3.512 -2.956,2.232 -7.383,2.583 -10.826,2.113 -4.065,-0.556 -8.984,-4.168 -7.24,-8.989 1.373,-3.795 7.471,-5.121 10.417,-7.27 1.205,-0.879 1.307,-2.773 2.426,-3.759 1.345,-1.186 3.686,-1.092 4.741,-2.543 0.838,-1.153 0.751,-2.967 1.876,-3.842 2.413,-1.878 3.083,1.356 5.593,-0.239 1.028,-0.653 1.257,-2.154 2.218,-2.903 1.729,-1.348 4.071,-1.814 5.706,-3.275 2.153,-1.924 0.573,-2.879 2.878,-4.832 0.946,-0.801 2.056,-1.384 3.087,-2.07 0.635,-0.423 1.251,-0.876 1.912,-1.256 0.331,-0.191 1.437,-0.44 1.054,-0.452 -9.922,-0.312 -19.851,-0.452 -29.778,-0.452 h -30.059 l 0.87,1.327 c 3.453,5.271 4.617,11.727 6.885,17.607 4.434,11.496 8.342,23.495 13.724,34.6 l 2.277,4.7 20.499,-0.294 c 11.274,-0.161 25.502,-0.586 31.617,-0.945 z M 125.995,384.07 c -0.186,-0.301 -0.354,-0.879 0.079,-1.067 0.069,-0.03 0.145,-0.042 0.22,-0.04 0.384,0.012 0.751,0.347 0.933,0.662 0.047,0.083 0.084,0.176 0.087,0.273 0.009,0.292 -0.312,0.507 -0.572,0.541 -0.296,0.039 -0.591,-0.118 -0.747,-0.369 z m 15.515,-338.902 1.816,-4.62 -1.916,-2.785 C 113.107,-3.374 68.226,14.968 42.44,48.282 15.519,83.063 4.678,131.304 11.534,174.59 c 8.111,51.214 17.623,92.56 45.924,136.558 9.389,14.597 22.253,26.815 35.24,38.329 8.713,7.725 19.483,12.763 29.355,18.941 4.642,2.906 16.27,10.23 11.12,12.093 -10.475,3.79 -22.097,-4.581 -31.962,-9.753 C 72.158,355.527 51.313,328.166 36.795,299.485 3.688,234.083 -14.718,146.712 16.996,77.234 29.967,48.815 54.286,18.101 85.619,8.092 c 15.806,-5.049 33.335,-0.659 46.693,8.214 6.066,4.029 8.741,16.843 15.806,15.08 10.411,-2.597 14.507,-16.441 23.986,-21.47 8.889,-4.715 18.897,-7.614 28.897,-8.728 23.04,-2.566 34.163,7.407 52.829,19.966 0.212,0.143 23.316,20.096 31.05,20.712 1.975,0.158 -2.706,-2.906 -3.89,-4.495 -4.422,-5.926 -9.164,-11.663 -12.916,-18.034 -1.37,-2.325 -0.526,-8.654 2.044,-7.832 10.336,3.301 35.047,40.824 36.03,42.3 1.453,2.181 3.11,5.204 2.036,7.594 -0.716,1.594 -3.474,-0.386 -5.217,-0.512 -16.229,-1.174 -32.469,-2.186 -48.695,-3.389 -1.189,-0.088 -3.778,0.686 -3.543,-0.483 3.305,-16.435 36.122,1.444 44.249,-4.796 2.118,-1.627 -4.117,-3.683 -6.686,-4.412 -5.41,-1.535 -11.288,-1.693 -16.358,-4.125 -22.083,-10.591 -34.903,-30.31 -60.569,-34.62 -8.827,-1.482 -18.224,0.167 -26.67,3.131 -7.475,2.624 -28.476,14.602 -31.249,26.37 -0.674,2.86 2.55,5.305 3.573,8.06 3.105,8.362 6.882,16.559 8.803,25.269 2.464,11.17 5.344,34.162 -0.399,46.487 -8.8,18.882 -28.77,7.961 -32.592,-7.905 -4.257,-17.67 2.645,-49.961 8.679,-65.306 z m 13.016,72.16 c 5.045,-4.245 4.89,-12.052 4.626,-17.799 -0.306,-6.664 -0.472,-13.366 -1.526,-19.953 -0.991,-6.195 -2.811,-12.238 -4.588,-18.255 -0.824,-2.79 -1.924,-5.506 -3.202,-8.119 -0.409,-0.837 -1.5,-3.006 -1.81,-2.128 -5.824,16.504 -8.138,35.456 -6.714,52.941 0.43,5.288 5.278,19.99 13.214,13.313 z m 638.301,29.83 c -0.245,-0.27 -0.515,-0.617 -0.687,-0.945 -0.023,-0.044 -0.312,-0.575 -0.026,-0.605 0.04,-0.004 0.083,-0.001 0.12,0.014 0.115,0.046 0.229,0.098 0.332,0.165 0.146,0.095 0.283,0.205 0.414,0.321 0.158,0.141 0.308,0.29 0.45,0.447 0.245,0.271 0.514,0.618 0.687,0.946 0.023,0.044 0.312,0.575 0.027,0.605 -0.041,0.004 -0.084,0 -0.121,-0.015 -0.115,-0.045 -0.228,-0.097 -0.332,-0.165 -0.146,-0.095 -0.283,-0.204 -0.414,-0.321 -0.158,-0.14 -0.308,-0.29 -0.45,-0.447 z m 73.586,-10.388 c -2.123,-1.188 0.352,-4.617 0.878,-5.695 3.122,-6.394 6.902,-12.3 12.06,-17.242 1.303,-1.249 2.903,-2.065 4.67,-1.308 0.49,0.21 0.941,0.527 1.318,0.904 3.568,3.565 -1.738,8.37 -3.803,10.773 -0.365,0.425 -0.82,0.776 -1.138,1.236 -1.452,2.1 1.611,1.628 2.312,2.58 0.128,0.174 -0.385,0.194 -0.571,0.303 -0.455,0.265 -0.939,0.489 -1.349,0.818 -0.601,0.482 -1.102,1.076 -1.666,1.599 -2.676,2.485 -3.541,3.572 -6.862,5.147 -1.329,0.631 -4.168,1.826 -5.849,0.885 z m -99.832,-16.948 c -6.321,-6.257 -12.768,-12.386 -19.123,-18.608 -1.41,-1.379 -2.897,-2.69 -4.171,-4.195 -0.478,-0.565 -1.107,-1.224 -1.04,-1.96 0.048,-0.537 0.807,-1.164 1.304,-0.956 1.479,0.618 2.539,1.965 3.716,3.054 2.609,2.415 5.161,4.895 7.633,7.451 5.679,5.873 11.285,11.818 16.815,17.831 2.663,2.895 5.254,5.858 7.758,8.891 0.398,0.481 1.393,2.043 0.927,1.627 -4.741,-4.232 -9.302,-8.664 -13.819,-13.135 z m 16.879,0.709 c -0.13,-0.253 -0.257,-0.508 -0.38,-0.765 -0.031,-0.066 -0.061,-0.134 -0.081,-0.205 -0.009,-0.029 -0.026,-0.07 -0.004,-0.091 0.018,-0.019 0.054,0.004 0.077,0.018 0.058,0.035 0.111,0.079 0.162,0.124 0.454,0.406 0.971,0.84 1.256,1.395 0.049,0.095 0.257,0.565 -0.028,0.61 -0.037,0.006 -0.076,-0.001 -0.112,-0.013 -0.046,-0.016 -0.089,-0.041 -0.129,-0.068 -0.336,-0.23 -0.582,-0.656 -0.761,-1.005 z m -5.964,-3.768 c -0.275,-0.331 -0.489,-0.714 -0.51,-1.15 -0.012,-0.243 0.248,-0.383 0.46,-0.364 0.151,0.013 0.301,0.091 0.421,0.176 0.098,0.069 0.187,0.152 0.267,0.242 0.28,0.312 0.511,0.76 0.457,1.192 -0.038,0.303 -0.226,0.612 -0.556,0.418 -0.057,-0.033 -0.112,-0.07 -0.159,-0.115 -0.133,-0.127 -0.263,-0.258 -0.38,-0.399 z m -4.113,-8.783 c -1.002,-0.961 -2.003,-1.926 -2.958,-2.934 -0.559,-0.589 -1.081,-1.213 -1.579,-1.855 -0.371,-0.479 -0.552,-1.5 0.46,-1.251 0.423,0.105 1.429,1.125 1.524,1.223 1.963,2.006 3.781,3.997 5.53,6.2 0.663,0.835 1.282,1.705 1.877,2.591 0.134,0.201 0.405,0.437 0.306,0.658 -0.076,0.167 -0.349,-0.138 -0.485,-0.261 -1.588,-1.425 -3.134,-2.896 -4.675,-4.371 z M 877.884,88.753 c -0.383,-0.619 -0.308,-1.055 0.331,-1.451 0.908,-0.562 3.203,-1.068 3.999,-1.232 2.042,-0.421 4.083,-0.864 6.147,-1.154 1.066,-0.151 2.15,-0.199 3.227,-0.167 0.182,0.006 0.435,0.1 0.469,0.278 0.038,0.198 -0.15,0.404 -0.319,0.514 -0.984,0.647 -2.012,1.236 -3.084,1.722 -2.9,1.313 -6.153,1.948 -9.326,1.96 -0.279,0.001 -1.211,-0.093 -1.444,-0.47 z m -2.129,-7.635 c -0.909,-0.641 -3.12,-2.003 -2.71,-3.537 0.204,-0.76 1.04,-1.521 1.728,-1.813 0.567,-0.24 2.267,0.296 2.119,-0.86 -0.541,-4.252 -2.347,-8.151 -1.554,-12.534 0.086,-0.474 0.508,-2.158 1.329,-2.404 0.199,-0.059 0.488,0.115 0.534,0.317 0.447,1.939 0.685,3.923 0.899,5.901 0.293,2.704 0.411,5.424 0.619,8.136 0.213,2.764 3.882,1.332 5.891,1.602 0.401,0.053 0.956,0.035 1.15,0.391 0.148,0.273 -0.279,0.574 -0.512,0.78 -1.56,1.384 -1.851,0.956 -3.352,2.367 -1.468,1.381 -1.859,3.865 -4.358,2.731 -0.632,-0.287 -1.216,-0.676 -1.783,-1.077 z M 865.061,65.383 c -0.483,-1.259 0.526,-2.939 1.923,-2.933 0.498,0.002 1.007,0.266 1.365,0.595 0.282,0.258 0.463,0.562 0.588,0.924 0.059,0.171 0.095,0.35 0.108,0.53 0.099,1.463 -1.479,2.081 -2.7,1.794 -0.49,-0.115 -1.089,-0.401 -1.284,-0.91 z m 24.382,-5.067 c -0.178,-0.107 -0.345,-0.236 -0.491,-0.384 -1.23,-1.26 -0.014,-2.9 1.024,-3.769 1.405,-1.175 3.71,-1.692 5.41,-0.879 1.563,0.748 1.875,2.51 0.588,3.677 -1.168,1.059 -2.92,1.67 -4.478,1.749 -0.676,0.034 -1.453,-0.029 -2.053,-0.394 z m -10.581,-1.905 c -1.642,-1.642 0.492,-3.741 1.463,-5.155 2.122,-3.092 5.73,-5.331 9.15,-6.607 1.691,-0.631 3.498,-0.93 5.286,-1.175 4.849,-0.666 8.975,4.595 11.383,8.061 0.878,1.264 0.94,2.91 -1.189,2.376 -3.775,-0.947 -7.608,-3.822 -11.673,-3.224 -3.051,0.448 -5.22,2.336 -7.796,3.844 -1.272,0.744 -4.674,3.83 -6.624,1.88 z"
     style="fill-rule:nonzero"
     sodipodi:nodetypes="sccccsccsccccccccscccscccccccccccccscccccsccsssscccccccccccccccccscsccccccccscscscccccccccccscssccccccccccccccccsccsssscccssccsccsscccccccccccccccsccccccscscccccccccccsscscssscssccsscccscccccsscccccccccscscccsccccccccsccccccccccssscccccccccssccccccccccccccccscccscccccccccssscccccccccccccccsccscccccscccsccsscsccccccccscscccsccccccccccsccccccccccsccsscccsscscssccccssccccccscsccccccccccccccccsccsscccccsccccccsscscccsscscsccccccscccccccccscccccssccccccccccccccccscccsscccccccsccccccccsccscccccccccccsccccccsscccccsccccccccccssccccsscccccsscccccccsccccccccscccscccscccccsccsccccsccsscccccccsscsccsccccccccscscccccscccsscccsccccccsccccccccccsscccccsccsccccccccsccccccccccscccsccccccccccccsccccccccccsccccccssssccscsscccccccccccccccccccccccccccccccccscccccccscccccsccscsccccccsccscscsccccssccccccccccccccccccscccsccccsccsscccccscccccccccsccscccccccccccccccccscscscccccsccscscssccs" /></svg>
