<?xml version="1.0" encoding="UTF-8" standalone="no"?><!DOCTYPE svg PUBLIC "-//W3C//DTD SVG 1.1//EN" "http://www.w3.org/Graphics/SVG/1.1/DTD/svg11.dtd"><svg width="100%" height="100%" viewBox="0 0 992 869" version="1.1" xmlns="http://www.w3.org/2000/svg" xmlns:xlink="http://www.w3.org/1999/xlink" xml:space="preserve" xmlns:serif="http://www.serif.com/" style="fill-rule:evenodd;clip-rule:evenodd;stroke-linejoin:round;stroke-miterlimit:2;"><path id="coding" d="M271.962,867.831c-67.778,-5.063 -137.7,-20.543 -176.563,-39.091c-10.855,-5.181 -28.585,-17.696 -39.399,-27.812c-42.71,-39.953 -51.65,-88.56 -33.533,-182.326c7.898,-40.881 25.807,-98.308 38.527,-123.543c18.727,-37.153 48.974,-70.016 76.873,-83.521c8.621,-4.174 32.16,-9.43 62.552,-13.967c26.802,-4.001 49.102,-7.702 49.558,-8.225c0.455,-0.522 5.765,-11.709 11.801,-24.86c26.941,-58.705 69.255,-104.762 122.267,-133.086c10.338,-5.524 17.272,-10.985 15.409,-12.136c-5.327,-3.293 -65.409,15.499 -78.449,24.536c-7.213,4.999 -22.594,10.496 -39.81,14.229c-109.889,23.827 -178.252,20.03 -221.264,-12.289c-21.96,-16.5 -33.952,-33.926 -37.169,-54.011c-8.976,-56.047 25.93,-99.142 113.896,-140.614c36.098,-17.019 61.442,-24.064 69.781,-19.397c4.482,2.508 1.11,5.06 -18.91,14.309c-43.229,19.973 -101.754,67.585 -115.089,93.628c-7.548,14.743 -7.634,35.77 -0.195,47.968c8.057,13.213 34.258,26.466 62.645,31.689c25.955,4.775 129.229,9.862 129.229,6.366c0,-1.163 -3.671,-7.662 -8.158,-14.442c-7.116,-10.754 -7.883,-14.326 -6.007,-27.969c6.177,-44.911 67.115,-95.91 120.099,-100.508c20.617,-1.79 20.779,-1.878 28.927,-15.833c10.122,-17.336 21.131,-23.954 52.127,-31.339c18.73,-4.463 26.197,-7.94 33.248,-15.484c7.631,-8.166 11.461,-9.745 23.834,-9.829c8.109,-0.054 17.483,-2.172 20.832,-4.705c3.35,-2.534 9.849,-4.606 14.444,-4.606c8.91,-0 24.955,12.597 24.955,19.592c0,2.314 4.588,5.558 10.196,7.209c13.028,3.835 19.462,16.101 14.833,28.276c-2.862,7.528 -2.675,8.107 1.496,4.645c2.711,-2.251 8.081,-3.123 12.46,-2.024c6.197,1.556 7.884,4.218 8.668,13.684c0.808,9.761 2.035,11.576 7.247,10.718c3.45,-0.569 19.685,-1.778 36.077,-2.686c37.456,-2.076 52.912,1.881 70.436,18.034c7.369,6.793 14.217,12.351 15.217,12.351c0.999,-0 6.364,-8.53 11.921,-18.955c19.278,-36.17 61.474,-66.504 104.876,-75.394c22.443,-4.597 37.012,-1.266 38.502,8.802c0.807,5.46 -1.212,6.866 -12.549,8.735c-31.92,5.263 -70.401,32.728 -87.414,62.391c-5.045,8.794 -9.185,17.084 -9.201,18.422c-0.012,1.338 20.654,2.044 45.935,1.568c30.767,-0.578 46.352,0.254 47.138,2.517c1.856,5.345 -11.686,9.996 -55.482,19.058c-36.545,7.561 -40.75,9.107 -40.688,14.957c0.199,18.647 25.305,29.522 83.704,36.257c56.492,6.514 74.463,12.182 68.619,21.638c-2.939,4.756 -28.827,9.277 -75.266,13.144c-65.02,5.415 -94.267,-1.626 -111.64,-26.877l-9.134,-13.276l-17.392,8.773c-18.503,9.332 -26.497,11.217 -92.121,21.72c-22.986,3.679 -43.713,7.426 -46.061,8.327c-5.022,1.927 -12.986,-12.056 -16.719,-29.356l-2.56,-11.866l-5.308,17.922c-2.92,9.857 -6.064,19.89 -6.987,22.296c-1.052,2.741 1.695,5.771 7.362,8.118c22.026,9.124 66.024,54.431 93.999,96.797c6.537,9.898 19.547,33.92 28.913,53.382c14.125,29.35 18.397,35.65 25.051,36.943c65.791,12.782 147.887,66.506 175.682,114.967c15.578,27.159 20.093,46.807 20.041,87.203c-0.047,40.006 -6.503,81.26 -18.816,120.314c-23.598,74.845 -55.991,105.15 -130.45,122.042c-27.855,6.319 -37.929,6.606 -250.19,7.128c-121.642,0.299 -228.226,0.012 -236.853,-0.629l0,0.001Zm464.294,-11.833c54.94,-8.628 82.943,-20.626 106.22,-45.511c27.378,-29.269 48.2,-87.766 55.905,-157.054c9.835,-88.452 -12.29,-134.024 -90.248,-185.887c-34.598,-23.017 -53.552,-32.02 -80.789,-38.374c-18.284,-4.265 -18.369,-4.252 -16.543,2.566c1.009,3.769 3.406,14.739 5.325,24.377l3.49,17.524l15.297,3.921c8.414,2.156 18.627,6.539 22.696,9.74c6.849,5.387 8.403,5.472 20.954,1.148c13.726,-4.728 23.98,-3.829 20.502,1.798c-1.045,1.691 -7.396,4.554 -14.112,6.362l-12.213,3.289l8.283,17.972c6.77,14.691 8.308,22.702 8.423,43.879c0.118,21.728 0.9,25.606 4.847,24.046c17.639,-6.975 59.605,-4.345 59.605,3.735c-0,3.807 -3.968,4.281 -22.744,2.717c-29.995,-2.498 -41.236,3.004 -53.715,26.291c-4.957,9.249 -14.953,23.016 -22.214,30.594c-13.307,13.888 -14.209,16.876 -5.113,16.932c13.831,0.083 66.14,32.481 66.14,40.962c0,5.301 -6.765,3.064 -18.371,-6.075c-15.969,-12.575 -40.408,-24.348 -55.907,-26.933c-12.018,-2.004 -15.527,-0.77 -42.351,14.886c-16.086,9.39 -42.426,23.819 -58.534,32.066l-29.288,14.993l14.915,5.033c20.125,6.792 28.02,17.91 27.82,39.175c-0.29,30.902 -18.805,48.769 -45.809,44.206c-11.786,-1.991 -51.924,-20.885 -79.702,-37.517l-9.592,-5.744l-40.602,21.362c-22.331,11.749 -43.026,23.442 -45.988,25.985c-3.023,2.594 -8.338,3.851 -12.111,2.865c-3.758,-0.983 -21.362,3.14 -39.91,9.346c-39.941,13.365 -62.297,13.556 -87.192,0.745c-28.556,-14.696 -30.825,-35.846 -5.23,-48.771c10.093,-5.097 21.798,-7.219 48.622,-8.814c40.496,-2.407 51.294,-5.579 53.864,-15.82c1.006,-4.006 2.599,-9.292 3.541,-11.745c1.201,-3.13 -2.306,-5.656 -11.751,-8.464c-7.405,-2.201 -47.231,-16.618 -88.502,-32.039c-57.576,-21.512 -77.167,-27.57 -84.186,-26.028c-5.065,1.112 -18.646,10.97 -30.436,22.092c-11.709,11.046 -22.176,20.083 -23.261,20.083c-11.242,-0 18.483,-36.177 38.549,-46.916l7.415,-3.969l-10.635,-6.399c-51.095,-30.744 -61.175,-49.322 -47.9,-88.281c6.408,-18.807 4.063,-21.436 -20.724,-23.229c-18.541,-1.341 -23.708,-4.357 -13.908,-8.118c7.803,-2.993 24.527,-2.234 35.573,1.617c9.122,3.18 10.604,2.8 15.307,-3.921c18.722,-26.754 41.987,-43.299 61.096,-43.45c8.699,-0.072 8.703,-0.083 3.749,-9.66c-5.463,-10.565 -28.431,-26.586 -42.561,-29.69c-10.858,-2.385 -14.539,-7.093 -7.621,-9.748c7.596,-2.915 32.519,7.81 45.59,19.618l11.605,10.485l1.939,-24.261c1.065,-13.344 4.613,-33.791 7.882,-45.437c3.269,-11.647 4.8,-21.176 3.4,-21.176c-1.399,0 -22.032,2.849 -45.851,6.331c-54.716,7.998 -68.811,14.507 -96.736,44.668c-26.211,28.31 -44.401,64.841 -59.15,118.79c-23.331,85.342 -26.83,149.835 -10.116,186.455c21.109,46.25 62.256,71.664 146.223,90.313c68.359,15.182 112.664,17.21 348.22,15.944c142.042,-0.764 183.479,-1.932 208.619,-5.88l-0,-0Zm-374.671,-19.194c9.372,-2.699 22.921,-7.081 30.11,-9.738l13.071,-4.83l-7.581,-14.259c-4.169,-7.841 -7.581,-16.165 -7.581,-18.496c0,-5.047 -1.653,-5.254 -9.301,-1.161c-4.85,2.596 -5.321,4.929 -3.005,14.902c3.636,15.659 3.555,17.272 -0.795,15.822c-2.029,-0.677 -5.274,-6.794 -7.211,-13.595l-3.521,-12.364l-29.921,0.528c-33.524,0.592 -51.074,6.007 -54.506,16.821c-4.422,13.933 22.968,30.842 50.439,31.139c7.02,0.071 20.431,-2.071 29.802,-4.769l-0,-0Zm271.97,-26.444c6.043,-5.63 13.23,-23.818 13.275,-33.597c0.036,-8.249 -7.934,-20.461 -16.123,-24.695c-10.526,-5.444 -40.13,-5.856 -51.411,-0.715c-4.533,2.065 -10.981,9.124 -14.329,15.685c-6.988,13.699 -13.38,16.026 -10.299,3.75c1.832,-7.3 1.417,-7.831 -3.862,-4.936c-19.615,10.762 -19.537,11.054 6.997,26.198c44.579,25.443 63.251,29.956 75.752,18.31l-0,-0Zm-103.288,-213.399c26.465,-27.623 57.876,-58.251 69.801,-68.062l21.683,-17.837l0,-28.936c0,-26.389 -0.7,-29.768 -7.945,-38.379c-14.283,-16.974 -20.386,-17.705 -147.897,-17.705c-113.227,0 -116.886,0.191 -125.485,6.531c-12.352,9.108 -19.022,31.416 -21.607,72.258l-2.176,34.388l28.968,18.364c33.744,21.391 71.857,49.213 99.857,72.893c13.246,11.202 22.579,16.729 28.235,16.721c6.81,-0.01 17.776,-9.749 56.566,-50.236Zm-84.436,-27.938c-7.617,-7.617 -9.17,-11.75 -9.17,-24.399c-0,-8.737 2.092,-18.216 4.906,-22.234c2.699,-3.853 4.063,-9.665 3.031,-12.916c-2.179,-6.868 5.588,-15.984 13.619,-15.984c12.808,0 17.545,16.145 6.475,22.069c-5.149,2.756 -5.721,4.377 -2.787,7.911c3.094,3.729 5.098,2.936 12.441,-4.925c4.813,-5.153 11.469,-9.369 14.789,-9.369c10.129,0 19.681,13.048 19.668,26.868c-0.036,34.43 -40.387,55.564 -62.972,32.979Zm42.818,-8.624c9.499,-10.25 12.57,-21.283 8.852,-31.8c-4.028,-11.395 -8.607,-11.568 -19.439,-0.735c-11.268,11.268 -17.871,12.068 -22.847,2.771c-3.379,-6.313 -3.839,-6.395 -6.748,-1.198c-3.773,6.743 -1.292,28.408 3.982,34.762c2.153,2.595 9.145,4.583 16.117,4.583c9.317,-0 14.205,-2.04 20.083,-8.383l-0,-0Zm-26.891,-54.36c-0,-1.726 -1.412,-3.137 -3.137,-3.137c-1.726,-0 -3.137,1.411 -3.137,3.137c-0,1.725 1.411,3.137 3.137,3.137c1.725,0 3.137,-1.412 3.137,-3.137Zm-22.868,-171.741l16.446,-8.61l-17.051,-17.271c-9.378,-9.499 -21.319,-25.035 -26.535,-34.525l-9.484,-17.254l0.024,20.391c0.024,30.276 9.037,65.88 16.667,65.88c1.92,-0 10.892,-3.875 19.937,-8.611l-0.004,0Zm112.247,-4.476c11.918,-9.375 20.296,-29.306 20.213,-48.087l-0.072,-15.686l-6.035,11.423c-7.338,13.889 -20.888,27.757 -39.894,40.834l-14.254,9.807l7.486,4.15c11.054,6.126 22.781,5.247 32.555,-2.441l0.001,0Zm-42.081,-13.701c36.832,-18.664 59.5,-53.057 49.244,-74.713l-4.413,-9.317l-7.343,10.705c-20.731,30.225 -42.847,45.944 -68.531,48.709c-25.417,2.737 -41.715,-13.318 -51.016,-50.258c-4.635,-18.406 -10.42,-17.106 -11.697,2.63c-1.278,19.75 12.829,43.868 37.994,64.956c21.578,18.083 31.818,19.421 55.762,7.288Zm-9.246,-80.092c4.524,-2.421 7.474,-2.354 10.601,0.241c2.383,1.977 7.587,3.134 11.564,2.57c5.715,-0.81 7.231,-2.997 7.231,-10.436c-0,-8.942 -0.704,-9.452 -14.117,-10.227c-17.028,-0.984 -29.444,4.75 -30.805,14.227c-1.121,7.803 5.034,9.24 15.526,3.625l0,-0Zm-1.975,-9.194c-1.096,-1.772 1.474,-3.137 5.904,-3.137c4.313,0 8.715,1.412 9.781,3.137c1.096,1.772 -1.474,3.137 -5.904,3.137c-4.313,0 -8.715,-1.411 -9.781,-3.137Zm13.756,-29.237c6.152,1.608 7.05,0.952 5.51,-4.027c-3.078,-9.953 -11.105,-80.787 -9.457,-83.453c2.139,-3.461 16.168,-3.085 30.189,0.809c17.187,4.773 14.406,9.263 -4.36,7.041l-16.125,-1.91l2.127,32.645c2.569,39.44 4.445,49.898 8.949,49.898c1.884,0 6.007,2.336 9.162,5.192c5.347,4.839 6.162,4.807 11.994,-0.47c12.452,-11.27 15.967,-45.09 8.445,-81.254c-3.753,-18.037 -4.177,-18.592 -17.174,-22.429c-7.329,-2.164 -18.951,-9.017 -25.827,-15.229c-10.477,-9.465 -14.803,-11.295 -26.71,-11.295c-28.983,0 -45.379,13.217 -45.379,36.581c0,7.273 -2.165,22.558 -4.81,33.965c-3.45,14.876 -3.972,23.777 -1.846,31.476c4.211,15.253 15.397,29.758 26.571,34.457c8.718,3.665 11.027,3.217 25.489,-4.944c10.761,-6.074 18.278,-8.354 23.252,-7.053l-0,-0Zm18.137,-50.53c-1.879,-4.897 5.066,-12.418 8.394,-9.091c1.134,1.136 2.064,4.653 2.064,7.816c-0,6.779 -7.973,7.751 -10.458,1.275Zm-64.833,-4.935c-0,-4.725 1.638,-6.419 5.49,-5.677c3.019,0.581 5.49,3.136 5.49,5.677c-0,2.541 -2.471,5.096 -5.49,5.677c-3.852,0.742 -5.49,-0.952 -5.49,-5.677Zm-10.98,-31.371c1.066,-1.726 10.948,-3.137 21.96,-3.137c11.011,-0 20.893,1.411 21.96,3.137c1.227,1.986 -6.827,3.137 -21.96,3.137c-15.134,-0 -23.188,-1.151 -21.96,-3.137Zm185.898,73.997c71.43,-25.769 76.134,-28.933 68.798,-46.273c-7.896,-18.665 -14.253,-21.826 -49.817,-24.772c-17.786,-1.473 -39.115,-2.74 -47.399,-2.815c-14.103,-0.128 -15.324,0.511 -19.193,10.058c-2.272,5.608 -4.99,26.078 -6.04,45.489c-1.543,28.523 -1.095,35.292 2.337,35.292c2.335,0 25.427,-7.641 51.314,-16.979Zm-263.542,11.865c6.919,-1.854 7.059,-2.814 7.059,-48.583c-0,-45.912 -0.119,-46.691 -6.852,-46.691c-19.63,0 -59.337,30.609 -74.895,57.733c-11.968,20.867 -11.727,25.659 1.509,30.027c19.399,6.403 61.28,10.703 73.179,7.514Zm194.854,-88.215c2.964,-13.616 2.106,-15.291 -5.399,-10.536c-3.168,2.008 -3.654,6.224 -1.89,16.422c2.545,14.715 2.859,14.462 7.289,-5.886Zm-159.21,-39.061c4.198,-10.401 13.904,-17.05 29.028,-19.887c15.342,-2.879 17.903,-7.841 2.847,-5.519c-26.317,4.059 -37.339,16.167 -40.073,44.022l-1.468,14.955l3.123,-12.548c1.717,-6.902 4.662,-16.362 6.543,-21.023Zm83.589,-51.371c-3.088,-3.087 -8.649,1.653 -8.649,7.371c-0,4.789 0.412,4.781 5.303,-0.11c2.917,-2.917 4.422,-6.184 3.346,-7.26l-0,-0.001Zm42.929,-6.134c5.981,-4.525 5.973,-4.606 -0.449,-4.606c-3.596,-0 -7.35,2.117 -8.343,4.706c-2.263,5.895 0.914,5.859 8.792,-0.1l-0,-0Zm339.03,421.982c7.094,-11.478 114.468,-52.337 114.468,-43.558c0,1.525 -12.68,9.141 -28.178,16.925c-42.516,21.353 -92.575,36.804 -86.29,26.633Zm-874.77,-30.265c-4.425,-4.425 -1.744,-10.476 6.535,-14.75c12.794,-6.605 209.709,-67.804 241.563,-75.075c12.82,-2.926 4.119,3.548 -14.181,10.552c-28.609,10.949 -227.43,81.364 -229.738,81.364c-1.149,0 -3.029,-0.941 -4.179,-2.091Zm771.731,-6.275c-4.24,-4.24 -1.789,-7.346 10.91,-13.825c21.042,-10.735 84.822,-34.623 88.609,-33.187c1.916,0.726 -18.881,12.072 -46.215,25.212c-55.372,26.619 -50.484,24.62 -53.304,21.8Zm-25.756,-73.42c-6.1,-9.869 9.66,-15.97 132.675,-51.362c99.301,-28.569 118.338,-33.365 107.451,-27.071c-12.219,7.064 -238.546,80.99 -240.126,78.433Z" style="fill-rule:nonzero;"/></svg>