<svg width="100%" height="100%" viewBox="0 0 287 261" version="1.1" xmlns="http://www.w3.org/2000/svg" xmlns:xlink="http://www.w3.org/1999/xlink" pointer-events="none" xml:space="preserve" xmlns:serif="http://www.serif.com/" style="fill-rule:evenodd;clip-rule:evenodd;stroke-linejoin:round;stroke-miterlimit:2;">
    <g id="productivity">
        <path d="M168.584,251.229c-6.74,-0 -12.594,-0.689 -17.186,-1.514c-10.273,-1.844 -16.634,-4.753 -16.698,-4.782c-0.158,-0.074 -0.227,-0.261 -0.153,-0.421c0.073,-0.158 0.261,-0.227 0.419,-0.154c0.062,0.029 6.368,2.91 16.568,4.739c9.408,1.687 24.153,2.801 40.958,-1.484c0.17,-0.042 0.342,0.059 0.385,0.229c0.044,0.169 -0.059,0.341 -0.228,0.385c-8.723,2.223 -16.895,3.002 -24.065,3.002Z" style="fill-rule:nonzero;stroke:#000;stroke-width:1.63px;" />
        <path d="M162.564,256.233c-2.453,-0 -5.438,-0.117 -8.762,-0.487c-8.37,-0.93 -20.665,-3.69 -31.703,-11.57c-0.142,-0.101 -0.174,-0.299 -0.073,-0.44c0.102,-0.142 0.298,-0.175 0.44,-0.074c20.911,14.924 46.68,11.623 46.936,11.588c0.174,-0.024 0.333,0.098 0.357,0.27c0.024,0.174 -0.097,0.333 -0.271,0.357c-0.04,0.006 -2.687,0.356 -6.924,0.356Z" style="fill-rule:nonzero;stroke:#000;stroke-width:1.63px;" />
        <path d="M195.146,22.829c-0.064,0 -0.128,-0.019 -0.183,-0.058c-0.072,-0.051 -7.328,-5.138 -20.794,-8.099c-12.43,-2.734 -32.845,-4.164 -59.517,4.545c-0.167,0.055 -0.345,-0.037 -0.399,-0.202c-0.054,-0.166 0.036,-0.345 0.202,-0.399c26.828,-8.76 47.374,-7.312 59.889,-4.553c13.579,2.992 20.912,8.141 20.985,8.193c0.143,0.101 0.175,0.298 0.074,0.44c-0.061,0.087 -0.158,0.133 -0.257,0.133Z" style="fill-rule:nonzero;stroke:#000;stroke-width:1.63px;" />
        <path d="M203.873,20.749c-0.073,-0 -0.147,-0.026 -0.207,-0.077c-0.065,-0.056 -6.624,-5.652 -19.554,-9.721c-11.936,-3.757 -31.897,-6.943 -59.209,-0.792c-0.171,0.038 -0.34,-0.068 -0.378,-0.239c-0.039,-0.17 0.069,-0.339 0.238,-0.378c27.472,-6.188 47.562,-2.971 59.578,0.818c13.041,4.111 19.673,9.777 19.739,9.834c0.132,0.114 0.146,0.314 0.031,0.446c-0.062,0.072 -0.149,0.109 -0.238,0.109Z" style="fill-rule:nonzero;stroke:#000;stroke-width:1.63px;" />
        <path d="M215.537,21.993c-0.426,-0 -0.796,-0.1 -1.112,-0.3c-0.753,-0.475 -0.873,-1.315 -0.99,-2.128c-0.11,-0.765 -0.213,-1.489 -0.803,-1.951c-0.705,-0.553 -1.642,-0.339 -2.632,-0.113c-1.088,0.248 -2.212,0.504 -3.157,-0.219c-0.838,-0.64 -0.948,-1.627 -1.046,-2.497c-0.093,-0.833 -0.173,-1.553 -0.801,-1.927c-0.535,-0.32 -1.157,-0.206 -1.813,-0.086c-0.77,0.141 -1.642,0.3 -2.378,-0.329c-0.387,-0.33 -0.534,-0.701 -0.664,-1.028c-0.128,-0.323 -0.229,-0.578 -0.538,-0.77c-0.498,-0.309 -1.232,-0.275 -2.184,0.099c-0.163,0.064 -0.346,-0.016 -0.411,-0.178c-0.063,-0.163 0.017,-0.346 0.179,-0.41c1.147,-0.452 2.073,-0.468 2.749,-0.048c0.486,0.302 0.65,0.712 0.792,1.073c0.119,0.297 0.22,0.553 0.487,0.781c0.508,0.434 1.132,0.32 1.854,0.188c0.709,-0.13 1.512,-0.277 2.251,0.164c0.898,0.536 1.003,1.484 1.106,2.401c0.091,0.817 0.177,1.588 0.8,2.065c0.711,0.543 1.644,0.33 2.633,0.104c1.092,-0.249 2.222,-0.506 3.164,0.232c0.789,0.619 0.921,1.544 1.038,2.36c0.105,0.732 0.195,1.363 0.702,1.682c0.713,0.451 2.011,0.122 3.751,-0.947c0.148,-0.091 0.344,-0.045 0.436,0.104c0.091,0.149 0.045,0.344 -0.105,0.435c-1.35,0.83 -2.444,1.243 -3.308,1.243Z" style="fill-rule:nonzero;stroke:#000;stroke-width:1.63px;" />
        <path d="M34.928,163.004c-0.067,-0 -0.134,-0.021 -0.191,-0.065c-0.139,-0.106 -0.165,-0.305 -0.059,-0.443l1.49,-1.948c0.107,-0.138 0.305,-0.165 0.443,-0.059c0.139,0.105 0.166,0.304 0.06,0.443l-1.491,1.948c-0.062,0.082 -0.156,0.124 -0.252,0.124Z" style="fill-rule:nonzero;stroke:#000;stroke-width:1.63px;" />
        <path d="M7.742,149.919c-0.092,0 -0.185,-0.029 -0.264,-0.089c-0.191,-0.145 -0.228,-0.418 -0.081,-0.608l2.054,-2.672c0.147,-0.189 0.42,-0.226 0.611,-0.081c0.191,0.145 0.228,0.418 0.082,0.608l-2.055,2.672c-0.086,0.112 -0.216,0.17 -0.347,0.17Z" style="fill-rule:nonzero;stroke:#000;stroke-width:1.63px;" />
        <path d="M31.484,98.651c-0.188,-0 -0.377,-0.059 -0.538,-0.182c-0.389,-0.297 -0.463,-0.854 -0.165,-1.241l4.177,-5.46c0.298,-0.387 0.854,-0.462 1.242,-0.166c0.389,0.297 0.463,0.854 0.166,1.241l-4.177,5.46c-0.175,0.229 -0.439,0.348 -0.705,0.348Z" style="fill-rule:nonzero;stroke:#000;stroke-width:1.63px;" />
        <path d="M31.456,167.542c-0.067,0 -0.134,-0.021 -0.191,-0.064c-0.139,-0.106 -0.166,-0.305 -0.06,-0.443l1.491,-1.949c0.106,-0.138 0.305,-0.165 0.443,-0.059c0.139,0.106 0.165,0.305 0.059,0.443l-1.49,1.948c-0.063,0.082 -0.157,0.124 -0.252,0.124Z" style="fill-rule:nonzero;stroke:#000;stroke-width:1.63px;" />
        <path d="M2.957,156.143c-0.093,0 -0.186,-0.029 -0.265,-0.089c-0.191,-0.145 -0.228,-0.417 -0.081,-0.607l2.054,-2.672c0.147,-0.19 0.421,-0.226 0.611,-0.081c0.191,0.145 0.228,0.418 0.082,0.607l-2.055,2.672c-0.086,0.112 -0.215,0.17 -0.346,0.17Z" style="fill-rule:nonzero;stroke:#000;stroke-width:1.63px;" />
        <path d="M21.754,111.369c-0.188,-0 -0.377,-0.06 -0.537,-0.182c-0.389,-0.297 -0.463,-0.854 -0.167,-1.242l4.177,-5.459c0.299,-0.388 0.856,-0.463 1.243,-0.166c0.388,0.296 0.463,0.854 0.165,1.241l-4.176,5.46c-0.175,0.229 -0.438,0.348 -0.705,0.348Z" style="fill-rule:nonzero;stroke:#000;stroke-width:1.63px;" />
        <path d="M32.643,163.309c-0.067,-0 -0.135,-0.021 -0.192,-0.065l-1.948,-1.491c-0.139,-0.106 -0.166,-0.305 -0.06,-0.443c0.107,-0.14 0.305,-0.165 0.444,-0.06l1.948,1.492c0.139,0.105 0.165,0.303 0.059,0.443c-0.062,0.08 -0.156,0.124 -0.251,0.124Z" style="fill-rule:nonzero;stroke:#000;stroke-width:1.63px;" />
        <path d="M4.592,150.337c-0.093,-0 -0.186,-0.029 -0.265,-0.089l-2.685,-2.045c-0.191,-0.145 -0.228,-0.418 -0.082,-0.608c0.147,-0.191 0.421,-0.226 0.611,-0.081l2.686,2.045c0.191,0.145 0.228,0.416 0.081,0.608c-0.086,0.11 -0.215,0.17 -0.346,0.17Z" style="fill-rule:nonzero;stroke:#000;stroke-width:1.63px;" />
        <path d="M25.078,99.505c-0.188,-0 -0.377,-0.06 -0.537,-0.182l-5.46,-4.179c-0.389,-0.296 -0.463,-0.854 -0.165,-1.241c0.299,-0.391 0.854,-0.463 1.242,-0.166l5.459,4.179c0.389,0.296 0.463,0.849 0.166,1.241c-0.175,0.225 -0.438,0.348 -0.705,0.348Z" style="fill-rule:nonzero;stroke:#000;stroke-width:1.63px;" />
        <path d="M37.181,166.781c-0.067,-0 -0.134,-0.022 -0.192,-0.065l-1.948,-1.491c-0.139,-0.106 -0.165,-0.304 -0.059,-0.443c0.106,-0.139 0.305,-0.166 0.443,-0.06l1.948,1.491c0.139,0.106 0.166,0.305 0.06,0.443c-0.063,0.082 -0.157,0.125 -0.252,0.125Z" style="fill-rule:nonzero;stroke:#000;stroke-width:1.63px;" />
        <path d="M10.847,155.099c-0.092,-0 -0.185,-0.029 -0.264,-0.089l-2.686,-2.045c-0.191,-0.146 -0.227,-0.416 -0.081,-0.608c0.147,-0.19 0.421,-0.226 0.611,-0.081l2.685,2.045c0.192,0.145 0.228,0.418 0.082,0.607c-0.086,0.113 -0.216,0.171 -0.347,0.171Z" style="fill-rule:nonzero;stroke:#000;stroke-width:1.63px;" />
        <path d="M37.796,109.234c-0.188,-0 -0.377,-0.059 -0.537,-0.182l-5.46,-4.179c-0.389,-0.296 -0.463,-0.85 -0.166,-1.241c0.299,-0.387 0.856,-0.463 1.243,-0.166l5.459,4.179c0.389,0.296 0.463,0.854 0.166,1.241c-0.175,0.229 -0.439,0.348 -0.705,0.348Z" style="fill-rule:nonzero;stroke:#000;stroke-width:1.63px;" />
        <path d="M225.689,29.667c-1.309,0.589 -1.905,2.158 -1.328,3.498c0.283,0.654 0.798,1.154 1.451,1.408c0.637,0.248 1.334,0.23 1.958,-0.051c1.31,-0.589 1.906,-2.158 1.327,-3.498c-0.282,-0.654 -0.797,-1.154 -1.448,-1.408c-0.64,-0.248 -1.335,-0.229 -1.96,0.051Zm1.043,5.713c-0.388,-0 -0.776,-0.073 -1.15,-0.218c-0.811,-0.315 -1.452,-0.936 -1.8,-1.747c-0.714,-1.655 0.025,-3.595 1.647,-4.324c0.782,-0.351 1.651,-0.374 2.448,-0.064c0.813,0.315 1.452,0.936 1.802,1.747c0.713,1.655 -0.027,3.595 -1.65,4.325c-0.416,0.187 -0.856,0.281 -1.297,0.281Z" style="fill-rule:nonzero;stroke:#000;stroke-width:1.63px;" />
        <path d="M271.64,40.477l-0.972,0l-17.799,191.302l2.103,-0c4.482,-0 8.432,-3.634 8.823,-8.116l15.255,-175.07c0.391,-4.482 -2.926,-8.116 -7.41,-8.116Z" style="fill:#fff;fill-rule:nonzero;stroke:#000;stroke-width:1.63px;" />
        <path d="M253.216,231.463l1.756,-0c4.316,-0 8.133,-3.512 8.509,-7.827l15.254,-175.07c0.181,-2.084 -0.46,-4.041 -1.806,-5.508c-1.337,-1.46 -3.216,-2.264 -5.289,-2.264l-0.684,-0l-17.74,190.669Zm1.756,0.632l-2.103,-0c-0.089,-0 -0.174,-0.037 -0.233,-0.103c-0.061,-0.067 -0.09,-0.154 -0.082,-0.243l17.8,-191.301c0.014,-0.163 0.151,-0.287 0.314,-0.287l0.972,0c2.252,0 4.296,0.877 5.755,2.469c1.467,1.6 2.167,3.728 1.969,5.991l-15.253,175.07c-0.405,4.634 -4.503,8.404 -9.139,8.404Z" style="fill-rule:nonzero;stroke:#000;stroke-width:1.63px;" />
        <path d="M67.299,40.794c-4.316,-0 -8.132,3.511 -8.508,7.827l-15.255,175.07c-0.181,2.083 0.46,4.04 1.806,5.507c1.338,1.461 3.216,2.265 5.288,2.265l200.385,-0c4.316,-0 8.132,-3.512 8.508,-7.827l15.255,-175.07c0.181,-2.085 -0.46,-4.041 -1.806,-5.509c-1.339,-1.459 -3.217,-2.263 -5.289,-2.263l-200.384,-0Zm183.716,191.301l-200.385,-0c-2.251,-0 -4.295,-0.876 -5.755,-2.469c-1.466,-1.6 -2.166,-3.727 -1.969,-5.99l15.255,-175.07c0.404,-4.634 4.503,-8.405 9.138,-8.405l200.384,0c2.252,0 4.296,0.877 5.755,2.469c1.467,1.6 2.167,3.728 1.969,5.991l-15.254,175.07c-0.404,4.634 -4.504,8.404 -9.138,8.404Z" style="fill-rule:nonzero;stroke:#000;stroke-width:1.63px;" />
        <path d="M262.119,73.263l-194.914,0c-0.175,0 -0.316,-0.141 -0.316,-0.316c-0,-0.174 0.141,-0.316 0.316,-0.316l194.914,0c0.175,0 0.316,0.142 0.316,0.316c0,0.175 -0.141,0.316 -0.316,0.316Z" style="fill-rule:nonzero;stroke:#000;stroke-width:1.63px;" />
        <path d="M129.262,220.842l-0.027,0c-0.175,-0.015 -0.303,-0.169 -0.288,-0.342l14.53,-166.75c0.014,-0.174 0.165,-0.305 0.341,-0.287c0.175,0.015 0.304,0.168 0.288,0.342l-14.529,166.75c-0.015,0.163 -0.153,0.287 -0.315,0.287Z" style="fill-rule:nonzero;stroke:#000;stroke-width:1.63px;" />
        <path d="M171.543,219.519c-0.009,0 -0.019,-0.001 -0.027,-0.001c-0.175,-0.016 -0.304,-0.17 -0.288,-0.343l14.529,-166.749c0.014,-0.174 0.171,-0.304 0.342,-0.288c0.173,0.015 0.303,0.169 0.288,0.343l-14.53,166.749c-0.014,0.165 -0.152,0.289 -0.314,0.289Z" style="fill-rule:nonzero;stroke:#000;stroke-width:1.63px;" />
        <path d="M89.299,220.842l-0.028,0c-0.174,-0.015 -0.302,-0.169 -0.287,-0.342l14.529,-166.75c0.015,-0.174 0.166,-0.305 0.342,-0.287c0.174,0.015 0.303,0.168 0.288,0.342l-14.529,166.75c-0.015,0.163 -0.153,0.287 -0.315,0.287Z" style="fill-rule:nonzero;stroke:#000;stroke-width:1.63px;" />
        <path d="M215.338,219.851c-0.01,-0 -0.018,-0 -0.028,-0.002c-0.174,-0.015 -0.302,-0.168 -0.288,-0.343l14.53,-166.749c0.015,-0.174 0.173,-0.304 0.342,-0.287c0.174,0.015 0.302,0.168 0.288,0.342l-14.529,166.749c-0.014,0.166 -0.153,0.29 -0.315,0.29Z" style="fill-rule:nonzero;stroke:#000;stroke-width:1.63px;" />
        <path d="M109.299,67.706l27.505,-0l0.831,-12.445l-27.504,-0l-0.832,12.445Zm27.8,0.632l-28.138,0c-0.088,0 -0.171,-0.036 -0.231,-0.1c-0.06,-0.064 -0.09,-0.15 -0.084,-0.237l0.874,-13.077c0.01,-0.166 0.149,-0.296 0.315,-0.296l28.138,0c0.088,0 0.171,0.037 0.23,0.101c0.061,0.064 0.091,0.149 0.085,0.237l-0.873,13.077c-0.012,0.166 -0.15,0.295 -0.316,0.295Z" style="fill-rule:nonzero;stroke:#000;stroke-width:1.63px;" />
        <path d="M149.602,67.706l27.505,-0l0.832,-12.445l-27.504,-0l-0.833,12.445Zm27.801,0.632l-28.138,0c-0.087,0 -0.171,-0.036 -0.231,-0.1c-0.059,-0.064 -0.091,-0.15 -0.085,-0.237l0.875,-13.077c0.01,-0.166 0.148,-0.296 0.314,-0.296l28.138,0c0.089,0 0.172,0.037 0.231,0.101c0.061,0.064 0.091,0.149 0.085,0.237l-0.873,13.077c-0.011,0.166 -0.15,0.295 -0.316,0.295Z" style="fill-rule:nonzero;stroke:#000;stroke-width:1.63px;" />
        <path d="M70.32,67.706l27.504,-0l0.831,-12.445l-27.504,-0l-0.831,12.445Zm27.8,0.632l-28.138,0c-0.088,0 -0.172,-0.036 -0.231,-0.1c-0.06,-0.064 -0.091,-0.15 -0.085,-0.237l0.874,-13.077c0.011,-0.166 0.149,-0.296 0.315,-0.296l28.138,0c0.088,0 0.171,0.037 0.231,0.101c0.06,0.064 0.091,0.149 0.085,0.237l-0.874,13.077c-0.011,0.166 -0.149,0.295 -0.315,0.295Z" style="fill-rule:nonzero;stroke:#000;stroke-width:1.63px;" />
        <path d="M235.562,67.705l27.504,0l0.831,-12.444l-27.505,-0l-0.83,12.444Zm27.799,0.633l-28.138,-0c-0.088,-0 -0.171,-0.037 -0.23,-0.1c-0.061,-0.064 -0.092,-0.15 -0.085,-0.237l0.874,-13.078c0.011,-0.166 0.149,-0.295 0.316,-0.295l28.137,0c0.088,0 0.171,0.036 0.232,0.1c0.059,0.064 0.09,0.15 0.084,0.237l-0.874,13.078c-0.012,0.166 -0.15,0.295 -0.316,0.295Z" style="fill-rule:nonzero;stroke:#000;stroke-width:1.63px;" />
        <path d="M193.323,67.485l27.503,-0l0.832,-12.445l-27.504,-0l-0.831,12.445Zm27.799,0.632l-28.137,0c-0.088,0 -0.171,-0.036 -0.232,-0.1c-0.059,-0.064 -0.09,-0.15 -0.084,-0.237l0.874,-13.077c0.012,-0.166 0.148,-0.295 0.315,-0.295l28.139,-0c0.088,-0 0.171,0.036 0.23,0.1c0.061,0.064 0.09,0.15 0.085,0.237l-0.874,13.077c-0.011,0.166 -0.149,0.295 -0.316,0.295Z" style="fill-rule:nonzero;stroke:#000;stroke-width:1.63px;" />
        <path d="M136.296,180.746l35.461,-0l4.128,-48.152l-35.461,-0l-4.128,48.152Zm35.752,0.633l-36.098,0c-0.087,0 -0.172,-0.038 -0.232,-0.103c-0.06,-0.065 -0.089,-0.152 -0.082,-0.24l4.181,-48.787c0.014,-0.162 0.151,-0.289 0.316,-0.289l36.097,0c0.088,0 0.173,0.038 0.233,0.103c0.06,0.065 0.089,0.152 0.082,0.241l-4.183,48.786c-0.013,0.164 -0.149,0.289 -0.314,0.289Z" style="fill-rule:nonzero;stroke:#000;stroke-width:1.63px;" />
        <path d="M228.904,110.422c-0.008,0 -0.017,0 -0.025,-0.001c-0.175,-0.015 -0.305,-0.167 -0.291,-0.34l2.483,-30.618c0.014,-0.164 0.151,-0.291 0.316,-0.291l33.128,0c0.088,0 0.172,0.037 0.232,0.102c0.06,0.065 0.089,0.152 0.082,0.24l-1.32,16.29c-0.014,0.173 -0.168,0.304 -0.342,0.289c-0.173,-0.014 -0.303,-0.167 -0.289,-0.342l1.294,-15.946l-32.494,-0l-2.459,30.326c-0.013,0.165 -0.151,0.291 -0.315,0.291Z" style="fill-rule:nonzero;stroke:#000;stroke-width:1.63px;" />
        <path d="M222,192.763l32.494,-0l2.432,-29.985l-32.494,0l-2.432,29.985Zm32.785,0.633l-33.128,0c-0.087,0 -0.172,-0.038 -0.233,-0.103c-0.059,-0.065 -0.089,-0.151 -0.082,-0.24l2.483,-30.616c0.013,-0.165 0.151,-0.291 0.315,-0.291l33.128,0c0.088,0 0.173,0.037 0.232,0.102c0.061,0.065 0.091,0.151 0.084,0.24l-2.483,30.617c-0.015,0.164 -0.151,0.291 -0.316,0.291Z" style="fill-rule:nonzero;stroke:#000;stroke-width:1.63px;" />
        <path d="M185.296,109.979c-0.008,0 -0.017,0 -0.027,-0.001c-0.173,-0.014 -0.303,-0.167 -0.288,-0.342l2.553,-30.617c0.012,-0.164 0.149,-0.29 0.314,-0.29l34.052,0c0.087,0 0.172,0.037 0.232,0.102c0.06,0.066 0.089,0.153 0.082,0.241l-0.228,2.741c-0.014,0.174 -0.165,0.304 -0.342,0.289c-0.173,-0.015 -0.303,-0.168 -0.287,-0.341l0.198,-2.399l-33.416,-0l-2.528,30.328c-0.013,0.165 -0.151,0.289 -0.315,0.289Z" style="fill-rule:nonzero;stroke:#000;stroke-width:1.63px;" />
        <path d="M88.729,176.298l-34.359,-0c-0.089,-0 -0.173,-0.037 -0.233,-0.103c-0.06,-0.065 -0.09,-0.153 -0.082,-0.24l2.575,-30.618c0.014,-0.164 0.151,-0.289 0.315,-0.289l15.238,-0c0.175,-0 0.316,0.141 0.316,0.316c0,0.175 -0.141,0.316 -0.316,0.316l-14.947,-0l-2.522,29.986l33.724,-0l2.111,-25.102c0.015,-0.174 0.165,-0.305 0.342,-0.289c0.174,0.015 0.303,0.168 0.289,0.341l-2.136,25.391c-0.014,0.165 -0.151,0.291 -0.315,0.291Z" style="fill-rule:nonzero;stroke:#000;stroke-width:1.63px;" />
        <path d="M211.627,219.694l-8.902,0c-0.175,0 -0.316,-0.141 -0.316,-0.316c-0,-0.175 0.141,-0.316 0.316,-0.316l8.612,0l4.196,-48.154l-36.055,0l-0.533,6.109c-0.014,0.175 -0.171,0.306 -0.342,0.288c-0.175,-0.016 -0.303,-0.168 -0.287,-0.343l0.557,-6.398c0.014,-0.162 0.151,-0.288 0.314,-0.288l36.69,0c0.089,0 0.174,0.037 0.234,0.102c0.06,0.066 0.089,0.154 0.082,0.241l-4.252,48.786c-0.014,0.164 -0.151,0.289 -0.314,0.289Z" style="fill-rule:nonzero;stroke:#000;stroke-width:1.63px;" />
        <path d="M94.59,102.391c-0.008,-0 -0.017,-0 -0.026,-0.002c-0.174,-0.014 -0.303,-0.166 -0.289,-0.34l1.843,-22.727l-15.717,0c-0.175,0 -0.316,-0.141 -0.316,-0.316c-0,-0.175 0.141,-0.316 0.316,-0.316l16.06,-0c0.088,-0 0.173,0.037 0.232,0.102c0.06,0.065 0.09,0.152 0.083,0.24l-1.871,23.068c-0.013,0.165 -0.152,0.291 -0.315,0.291Z" style="fill-rule:nonzero;stroke:#000;stroke-width:1.63px;" />
        <path d="M76.589,109.94l-15.739,-0c-0.088,-0 -0.173,-0.037 -0.233,-0.102c-0.059,-0.065 -0.089,-0.152 -0.082,-0.24l2.483,-30.618c0.013,-0.164 0.15,-0.29 0.315,-0.29l6.405,-0c0.175,-0 0.316,0.141 0.316,0.316c0,0.175 -0.141,0.316 -0.316,0.316l-6.113,0l-2.432,29.986l15.396,-0c0.175,-0 0.316,0.141 0.316,0.316c0,0.174 -0.141,0.316 -0.316,0.316Z" style="fill-rule:nonzero;stroke:#000;stroke-width:1.63px;" />
        <path d="M151.151,109.993l-8.452,0c-0.088,0 -0.173,-0.037 -0.232,-0.101c-0.061,-0.065 -0.091,-0.153 -0.084,-0.242l2.576,-30.616c0.015,-0.164 0.151,-0.29 0.315,-0.29l21.382,-0c0.175,-0 0.316,0.142 0.316,0.316c-0,0.175 -0.141,0.316 -0.316,0.316l-21.091,0l-2.521,29.985l8.107,0c0.174,0 0.316,0.143 0.316,0.316c0,0.175 -0.142,0.316 -0.316,0.316Z" style="fill-rule:nonzero;stroke:#000;stroke-width:1.63px;" />
        <path d="M100.575,122.041c-0.008,0 -0.017,0 -0.026,-0.001c-0.174,-0.014 -0.304,-0.167 -0.289,-0.342l1.062,-12.62c0.013,-0.164 0.15,-0.29 0.315,-0.29l9.202,0c0.174,0 0.316,0.141 0.316,0.316c-0,0.175 -0.142,0.316 -0.316,0.316l-8.912,0l-1.037,12.332c-0.014,0.165 -0.152,0.289 -0.315,0.289Z" style="fill-rule:nonzero;stroke:#000;stroke-width:1.63px;" />
        <path d="M124.549,140.038l-25.488,0c-0.088,0 -0.173,-0.037 -0.232,-0.101c-0.06,-0.067 -0.09,-0.153 -0.083,-0.242l0.755,-8.976c0.015,-0.174 0.164,-0.305 0.342,-0.288c0.174,0.014 0.303,0.168 0.289,0.341l-0.727,8.634l25.144,0c0.173,0 0.316,0.141 0.316,0.316c-0,0.175 -0.143,0.316 -0.316,0.316Z" style="fill-rule:nonzero;stroke:#000;stroke-width:1.63px;" />
        <path d="M135.029,120.914c-0.008,-0 -0.018,-0 -0.027,-0.002c-0.173,-0.014 -0.303,-0.166 -0.289,-0.341l0.938,-11.151l-8.655,0c-0.175,0 -0.316,-0.141 -0.316,-0.316c0,-0.175 0.141,-0.316 0.316,-0.316l9,0c0.088,0 0.173,0.037 0.232,0.102c0.06,0.066 0.091,0.152 0.082,0.241l-0.966,11.494c-0.014,0.165 -0.153,0.289 -0.315,0.289Z" style="fill-rule:nonzero;stroke:#000;stroke-width:1.63px;" />
        <path d="M98.744,36.569c-0,19.621 -15.906,35.527 -35.527,35.527c-19.621,0 -35.526,-15.906 -35.526,-35.527c-0,-19.62 15.905,-35.526 35.526,-35.526c19.621,-0 35.527,15.906 35.527,35.526Z" style="fill-rule:nonzero;stroke:#000;stroke-width:1.63px;" />
        <path d="M88.663,54.043c-0.061,-0 -0.123,-0.018 -0.177,-0.054c-0.145,-0.098 -0.183,-0.295 -0.085,-0.439c0.916,-1.357 1.728,-2.796 2.412,-4.28c0.073,-0.158 0.261,-0.228 0.419,-0.155c0.159,0.074 0.228,0.261 0.155,0.42c-0.698,1.514 -1.527,2.984 -2.462,4.369c-0.061,0.09 -0.161,0.139 -0.262,0.139Z" style="fill-rule:nonzero;stroke:#000;stroke-width:1.63px;" />
        <path d="M93.57,41.431c-0.015,-0 -0.031,-0.002 -0.047,-0.004c-0.173,-0.025 -0.292,-0.186 -0.266,-0.359c0.219,-1.479 0.331,-2.992 0.331,-4.499c-0,-11.562 -6.727,-22.295 -17.137,-27.343c-0.157,-0.076 -0.223,-0.265 -0.147,-0.422c0.077,-0.157 0.266,-0.223 0.423,-0.147c5.164,2.504 9.531,6.389 12.629,11.234c3.182,4.976 4.864,10.744 4.864,16.678c-0,1.538 -0.114,3.082 -0.338,4.592c-0.023,0.157 -0.158,0.27 -0.312,0.27Z" style="fill-rule:nonzero;stroke:#000;stroke-width:1.63px;" />
        <path d="M55.591,7.154c-0.141,-0 -0.269,-0.095 -0.306,-0.238c-0.043,-0.169 0.059,-0.342 0.228,-0.385c4.714,-1.205 9.784,-1.277 14.533,-0.21c0.17,0.038 0.277,0.207 0.239,0.378c-0.039,0.17 -0.208,0.277 -0.378,0.239c-4.652,-1.046 -9.62,-0.975 -14.237,0.206c-0.026,0.007 -0.053,0.01 -0.079,0.01Z" style="fill-rule:nonzero;stroke:#000;stroke-width:1.63px;" />
        <path d="M35.124,24.519c-0.042,0 -0.086,-0.009 -0.127,-0.027c-0.16,-0.07 -0.232,-0.257 -0.162,-0.417c1.494,-3.39 3.569,-6.462 6.164,-9.128c0.122,-0.126 0.322,-0.128 0.447,-0.006c0.126,0.121 0.128,0.322 0.007,0.447c-2.544,2.612 -4.575,5.621 -6.039,8.942c-0.053,0.119 -0.168,0.189 -0.29,0.189Z" style="fill-rule:nonzero;stroke:#000;stroke-width:1.63px;" />
        <path d="M46.816,62.827c-0.058,-0 -0.116,-0.016 -0.169,-0.05c-2.622,-1.661 -4.976,-3.701 -6.996,-6.063c-0.114,-0.132 -0.099,-0.332 0.034,-0.445c0.133,-0.114 0.332,-0.098 0.446,0.034c1.98,2.314 4.286,4.313 6.855,5.94c0.147,0.094 0.191,0.289 0.098,0.437c-0.061,0.094 -0.163,0.147 -0.268,0.147Z" style="fill-rule:nonzero;stroke:#000;stroke-width:1.63px;" />
        <path d="M64.887,9.08c-0,0.922 -0.748,1.67 -1.67,1.67c-0.922,0 -1.67,-0.748 -1.67,-1.67c0,-0.922 0.748,-1.669 1.67,-1.669c0.922,-0 1.67,0.747 1.67,1.669Z" style="fill:#fff;fill-rule:nonzero;stroke:#000;stroke-width:1.63px;" />
        <path d="M63.217,7.727c-0.746,-0 -1.353,0.607 -1.353,1.353c-0,0.747 0.607,1.354 1.353,1.354c0.747,-0 1.354,-0.607 1.354,-1.354c-0,-0.746 -0.607,-1.353 -1.354,-1.353Zm0,3.339c-1.095,0 -1.986,-0.891 -1.986,-1.986c0,-1.095 0.891,-1.986 1.986,-1.986c1.095,0 1.986,0.891 1.986,1.986c0,1.095 -0.891,1.986 -1.986,1.986Z" style="fill-rule:nonzero;stroke:#000;stroke-width:1.63px;" />
        <path d="M64.887,64.058c-0,0.923 -0.748,1.67 -1.67,1.67c-0.922,0 -1.67,-0.747 -1.67,-1.67c0,-0.922 0.748,-1.669 1.67,-1.669c0.922,-0 1.67,0.747 1.67,1.669Z" style="fill:#fff;fill-rule:nonzero;stroke:#000;stroke-width:1.63px;" />
        <path d="M63.217,62.705c-0.746,-0 -1.353,0.607 -1.353,1.353c-0,0.747 0.607,1.354 1.353,1.354c0.747,0 1.354,-0.607 1.354,-1.354c-0,-0.746 -0.607,-1.353 -1.354,-1.353Zm0,3.339c-1.095,0 -1.986,-0.891 -1.986,-1.986c0,-1.095 0.891,-1.986 1.986,-1.986c1.095,0 1.986,0.891 1.986,1.986c0,1.095 -0.891,1.986 -1.986,1.986Z" style="fill-rule:nonzero;stroke:#000;stroke-width:1.63px;" />
        <path d="M35.728,34.9c0.922,-0 1.67,0.747 1.67,1.669c-0,0.922 -0.748,1.67 -1.67,1.67c-0.922,0 -1.67,-0.748 -1.67,-1.67c0,-0.922 0.748,-1.669 1.67,-1.669Z" style="fill:#fff;fill-rule:nonzero;stroke:#000;stroke-width:1.63px;" />
        <path d="M35.728,35.216c-0.746,-0 -1.353,0.607 -1.353,1.353c-0,0.747 0.607,1.354 1.353,1.354c0.746,-0 1.354,-0.607 1.354,-1.354c-0,-0.746 -0.608,-1.353 -1.354,-1.353Zm0,3.339c-1.095,0 -1.986,-0.891 -1.986,-1.986c0,-1.095 0.891,-1.986 1.986,-1.986c1.095,0 1.986,0.891 1.986,1.986c-0,1.095 -0.891,1.986 -1.986,1.986Z" style="fill-rule:nonzero;stroke:#000;stroke-width:1.63px;" />
        <path d="M90.706,34.9c0.922,-0 1.67,0.747 1.67,1.669c-0,0.922 -0.748,1.67 -1.67,1.67c-0.922,0 -1.669,-0.748 -1.669,-1.67c-0,-0.922 0.747,-1.669 1.669,-1.669Z" style="fill:#fff;fill-rule:nonzero;stroke:#000;stroke-width:1.63px;" />
        <path d="M90.706,35.216c-0.746,-0 -1.353,0.607 -1.353,1.353c-0,0.747 0.607,1.354 1.353,1.354c0.747,-0 1.354,-0.607 1.354,-1.354c-0,-0.746 -0.607,-1.353 -1.354,-1.353Zm0,3.339c-1.095,0 -1.986,-0.891 -1.986,-1.986c0,-1.095 0.891,-1.986 1.986,-1.986c1.095,0 1.986,0.891 1.986,1.986c0,1.095 -0.891,1.986 -1.986,1.986Z" style="fill-rule:nonzero;stroke:#000;stroke-width:1.63px;" />
        <path d="M50.242,12.319c0.246,0.425 0.1,0.968 -0.325,1.214c-0.425,0.245 -0.969,0.1 -1.214,-0.325c-0.245,-0.425 -0.1,-0.969 0.325,-1.214c0.425,-0.246 0.969,-0.1 1.214,0.325Z" style="fill:#fff;fill-rule:nonzero;stroke:#000;stroke-width:1.63px;" />
        <path d="M49.472,12.191c-0.099,-0 -0.197,0.026 -0.285,0.076c-0.274,0.158 -0.368,0.509 -0.21,0.782c0.158,0.273 0.508,0.367 0.782,0.21c0.132,-0.077 0.227,-0.2 0.267,-0.348c0.039,-0.147 0.019,-0.302 -0.058,-0.434c-0.076,-0.132 -0.199,-0.227 -0.347,-0.267c-0.05,-0.013 -0.1,-0.019 -0.149,-0.019Zm0.003,1.777c-0.417,-0 -0.823,-0.216 -1.046,-0.602c-0.332,-0.576 -0.134,-1.314 0.441,-1.646c0.279,-0.161 0.603,-0.204 0.914,-0.121c0.311,0.084 0.571,0.283 0.732,0.562c-0,-0 0,-0 0,-0c0.161,0.278 0.204,0.603 0.12,0.914c-0.083,0.311 -0.282,0.571 -0.561,0.732c-0.189,0.109 -0.396,0.161 -0.6,0.161Z" style="fill-rule:nonzero;stroke:#000;stroke-width:1.63px;" />
        <path d="M38.967,49.544c0.425,-0.245 0.968,-0.099 1.214,0.326c0.245,0.425 0.099,0.968 -0.326,1.213c-0.425,0.246 -0.968,0.1 -1.214,-0.325c-0.245,-0.425 -0.099,-0.968 0.326,-1.214Z" style="fill:#fff;fill-rule:nonzero;stroke:#000;stroke-width:1.63px;" />
        <path d="M39.41,49.742c-0.097,-0 -0.195,0.024 -0.285,0.076c-0.133,0.077 -0.227,0.2 -0.267,0.348c-0.04,0.147 -0.019,0.302 0.057,0.434c0.158,0.273 0.509,0.368 0.782,0.21c0.133,-0.077 0.227,-0.2 0.267,-0.348c0.04,-0.148 0.019,-0.302 -0.057,-0.434c-0.106,-0.184 -0.299,-0.286 -0.497,-0.286Zm0.003,1.777c-0.417,-0 -0.822,-0.216 -1.045,-0.603c-0.333,-0.575 -0.135,-1.314 0.441,-1.646c0.574,-0.332 1.313,-0.134 1.645,0.442c0.161,0.278 0.204,0.603 0.121,0.914c-0.084,0.311 -0.283,0.57 -0.562,0.731c-0.189,0.11 -0.396,0.162 -0.6,0.162Z" style="fill-rule:nonzero;stroke:#000;stroke-width:1.63px;" />
        <path d="M86.579,22.055c0.425,-0.245 0.969,-0.099 1.214,0.326c0.245,0.425 0.1,0.968 -0.325,1.213c-0.425,0.246 -0.969,0.1 -1.214,-0.325c-0.246,-0.425 -0.1,-0.968 0.325,-1.214Z" style="fill:#fff;fill-rule:nonzero;stroke:#000;stroke-width:1.63px;" />
        <path d="M86.579,22.055l0.003,0l-0.003,0Zm0.444,0.197c-0.1,0 -0.198,0.026 -0.286,0.077l0,0c-0.132,0.077 -0.227,0.2 -0.266,0.348c-0.04,0.147 -0.02,0.302 0.057,0.434c0.076,0.132 0.2,0.227 0.347,0.267c0.148,0.039 0.302,0.019 0.435,-0.057c0.132,-0.077 0.227,-0.2 0.266,-0.348c0.04,-0.148 0.019,-0.302 -0.057,-0.434c-0.076,-0.133 -0.2,-0.227 -0.347,-0.267c-0.05,-0.013 -0.1,-0.02 -0.149,-0.02Zm0.002,1.778c-0.104,0 -0.21,-0.014 -0.314,-0.041c-0.31,-0.084 -0.57,-0.283 -0.731,-0.562c-0.161,-0.278 -0.204,-0.603 -0.12,-0.914c0.083,-0.311 0.282,-0.571 0.561,-0.731c0.278,-0.162 0.603,-0.205 0.914,-0.121c0.311,0.083 0.571,0.283 0.732,0.561c0.161,0.279 0.203,0.604 0.12,0.915c-0.083,0.311 -0.283,0.57 -0.561,0.731c-0.186,0.108 -0.392,0.162 -0.601,0.162Z" style="fill-rule:nonzero;stroke:#000;stroke-width:1.63px;" />
        <path d="M39.855,22.055c0.425,0.246 0.571,0.789 0.326,1.214c-0.246,0.425 -0.789,0.571 -1.214,0.325c-0.425,-0.245 -0.571,-0.788 -0.326,-1.213c0.246,-0.425 0.789,-0.571 1.214,-0.326Z" style="fill:#fff;fill-rule:nonzero;stroke:#000;stroke-width:1.63px;" />
        <path d="M39.412,22.253c-0.198,-0 -0.391,0.102 -0.497,0.286c-0.076,0.132 -0.097,0.286 -0.057,0.434c0.04,0.148 0.134,0.271 0.267,0.348c0.273,0.157 0.624,0.063 0.782,-0.21c0.076,-0.132 0.097,-0.287 0.057,-0.434c-0.04,-0.148 -0.134,-0.271 -0.267,-0.348l0,0c-0.09,-0.052 -0.188,-0.076 -0.285,-0.076Zm-0.003,1.776c-0.204,0 -0.411,-0.052 -0.6,-0.161c-0.576,-0.332 -0.774,-1.07 -0.442,-1.646c0.333,-0.575 1.071,-0.773 1.646,-0.44c0.279,0.16 0.478,0.42 0.562,0.731c0.083,0.311 0.04,0.636 -0.12,0.914c-0.224,0.386 -0.629,0.602 -1.046,0.602Z" style="fill-rule:nonzero;stroke:#000;stroke-width:1.63px;" />
        <path d="M87.468,49.544c0.425,0.246 0.57,0.789 0.325,1.214c-0.245,0.425 -0.789,0.571 -1.214,0.325c-0.425,-0.245 -0.571,-0.788 -0.325,-1.213c0.245,-0.425 0.789,-0.571 1.214,-0.326Z" style="fill:#fff;fill-rule:nonzero;stroke:#000;stroke-width:1.63px;" />
        <path d="M87.024,49.741c-0.049,0 -0.099,0.007 -0.149,0.02c-0.147,0.04 -0.271,0.134 -0.347,0.267c-0.077,0.132 -0.097,0.286 -0.057,0.434c0.039,0.148 0.134,0.271 0.266,0.348c0.133,0.076 0.287,0.096 0.435,0.057c0.147,-0.04 0.271,-0.135 0.347,-0.267c0.076,-0.132 0.097,-0.287 0.057,-0.434c-0.039,-0.148 -0.134,-0.271 -0.266,-0.348c-0.089,-0.051 -0.187,-0.077 -0.286,-0.077Zm-0.003,1.778c-0.208,0 -0.414,-0.054 -0.6,-0.162c-0.279,-0.161 -0.478,-0.42 -0.561,-0.731c-0.084,-0.311 -0.041,-0.636 0.12,-0.915c0.161,-0.278 0.421,-0.477 0.731,-0.561c0.312,-0.083 0.636,-0.041 0.915,0.12c0.278,0.161 0.478,0.421 0.561,0.732c0.083,0.311 0.041,0.636 -0.12,0.914c-0.161,0.279 -0.421,0.478 -0.732,0.562c-0.104,0.028 -0.209,0.041 -0.314,0.041Z" style="fill-rule:nonzero;stroke:#000;stroke-width:1.63px;" />
        <path d="M48.703,59.931c0.245,-0.425 0.789,-0.57 1.214,-0.325c0.425,0.245 0.571,0.789 0.325,1.214c-0.245,0.425 -0.789,0.571 -1.214,0.325c-0.425,-0.245 -0.57,-0.789 -0.325,-1.214Z" style="fill:#fff;fill-rule:nonzero;stroke:#000;stroke-width:1.63px;" />
        <path d="M48.977,60.09c-0.158,0.273 -0.064,0.624 0.21,0.781c0.273,0.158 0.624,0.064 0.781,-0.209c0.077,-0.133 0.097,-0.287 0.058,-0.435c-0.04,-0.147 -0.135,-0.271 -0.267,-0.347c-0.273,-0.158 -0.624,-0.064 -0.782,0.21Zm0.494,1.49c-0.205,0 -0.412,-0.052 -0.601,-0.161c-0.575,-0.332 -0.773,-1.07 -0.441,-1.646c0,0 0,0 0,-0c0.333,-0.575 1.071,-0.773 1.646,-0.441c0.279,0.161 0.478,0.421 0.561,0.732c0.084,0.311 0.041,0.635 -0.12,0.914c-0.223,0.386 -0.629,0.602 -1.045,0.602Z" style="fill-rule:nonzero;stroke:#000;stroke-width:1.63px;" />
        <path d="M76.192,12.319c0.246,-0.425 0.789,-0.571 1.214,-0.325c0.425,0.245 0.571,0.789 0.325,1.214c-0.245,0.425 -0.789,0.57 -1.214,0.325c-0.425,-0.246 -0.57,-0.789 -0.325,-1.214Z" style="fill:#fff;fill-rule:nonzero;stroke:#000;stroke-width:1.63px;" />
        <path d="M76.192,12.319l0.003,-0l-0.003,-0Zm0.771,-0.128c-0.05,-0 -0.1,0.006 -0.149,0.019c-0.148,0.04 -0.271,0.135 -0.348,0.267c-0.076,0.132 -0.097,0.287 -0.057,0.434c0.039,0.148 0.134,0.271 0.266,0.348c0.273,0.158 0.625,0.064 0.782,-0.21c0.158,-0.273 0.064,-0.624 -0.209,-0.781c-0.088,-0.051 -0.186,-0.077 -0.285,-0.077Zm-0.003,1.777c-0.205,-0 -0.412,-0.052 -0.601,-0.161c-0.278,-0.162 -0.478,-0.421 -0.561,-0.732c-0.083,-0.311 -0.041,-0.636 0.12,-0.914c0.161,-0.279 0.421,-0.478 0.732,-0.562c0.31,-0.083 0.635,-0.04 0.914,0.121c0.279,0.161 0.478,0.42 0.561,0.731c0.084,0.311 0.041,0.636 -0.12,0.915c-0.223,0.386 -0.629,0.602 -1.045,0.602Z" style="fill-rule:nonzero;stroke:#000;stroke-width:1.63px;" />
        <path d="M76.192,60.346c0.246,-0.425 0.789,-0.571 1.214,-0.325c0.425,0.245 0.571,0.789 0.325,1.214c-0.245,0.425 -0.789,0.57 -1.214,0.325c-0.425,-0.245 -0.57,-0.789 -0.325,-1.214Z" style="fill:#fff;fill-rule:nonzero;stroke:#000;stroke-width:1.63px;" />
        <path d="M76.192,60.346l0.003,0l-0.003,0Zm0.771,-0.128c-0.05,-0 -0.1,0.006 -0.149,0.019c-0.148,0.04 -0.271,0.135 -0.348,0.267c-0.076,0.133 -0.097,0.287 -0.057,0.435c0.039,0.147 0.134,0.271 0.266,0.347c0.133,0.077 0.287,0.097 0.435,0.057c0.148,-0.039 0.271,-0.134 0.347,-0.266c0.077,-0.133 0.097,-0.287 0.058,-0.435c-0.04,-0.147 -0.135,-0.271 -0.267,-0.347c-0.088,-0.051 -0.186,-0.077 -0.285,-0.077Zm-0.003,1.777c-0.205,-0 -0.412,-0.052 -0.601,-0.161c-0.278,-0.161 -0.478,-0.421 -0.561,-0.732c-0.083,-0.311 -0.041,-0.635 0.12,-0.914c0.161,-0.279 0.421,-0.478 0.732,-0.561c0.311,-0.084 0.635,-0.041 0.914,0.12c0.279,0.161 0.478,0.421 0.561,0.732c0.084,0.31 0.041,0.635 -0.12,0.914c-0.223,0.386 -0.629,0.602 -1.045,0.602Z" style="fill-rule:nonzero;stroke:#000;stroke-width:1.63px;" />
        <path d="M73.735,34.982c-8.03,2.783 -10.555,2.716 -10.915,1.679c-0.359,-1.038 1.583,-2.652 9.613,-5.435c5.74,-1.99 13.221,-3.507 17.021,-4.211c0.58,-0.108 0.78,0.467 0.257,0.742c-3.42,1.798 -10.236,5.235 -15.976,7.225Z" style="fill:#fff;fill-rule:nonzero;stroke:#000;stroke-width:1.63px;" />
        <path d="M89.592,27.318c-0.023,-0 -0.05,0.002 -0.08,0.008c-3.899,0.722 -11.288,2.227 -16.975,4.198c-8.671,3.005 -9.622,4.443 -9.418,5.033c0.205,0.59 1.842,1.131 10.512,-1.874c5.689,-1.972 12.424,-5.361 15.933,-7.206c0.108,-0.057 0.136,-0.117 0.133,-0.131c-0.005,-0.009 -0.039,-0.028 -0.105,-0.028Zm-25.201,10.313c-1.291,0 -1.71,-0.406 -1.87,-0.867c-0.351,-1.013 0.447,-2.593 9.808,-5.837c5.727,-1.985 13.151,-3.498 17.068,-4.223c0.484,-0.09 0.8,0.154 0.898,0.435c0.098,0.281 0,0.668 -0.437,0.898c-3.524,1.853 -10.292,5.258 -16.019,7.243c-5.103,1.769 -7.901,2.351 -9.448,2.351Z" style="fill-rule:nonzero;stroke:#000;stroke-width:1.63px;" />
        <path d="M66.007,27.958c0.188,5.401 -0.888,6.943 -2.279,6.991c-1.391,0.049 -2.571,-1.415 -2.759,-6.816c-0.134,-3.862 0.986,-8.715 1.636,-11.169c0.099,-0.375 0.87,-0.401 0.995,-0.035c0.819,2.404 2.273,7.167 2.407,11.029Z" style="fill:#fff;fill-rule:nonzero;stroke:#000;stroke-width:1.63px;" />
        <path d="M63.12,16.984c-0.005,0 -0.011,0 -0.016,0.001c-0.114,0.004 -0.184,0.046 -0.195,0.063c-0.662,2.503 -1.756,7.275 -1.624,11.074c0.086,2.462 0.388,4.255 0.898,5.327c0.39,0.819 0.892,1.205 1.534,1.184c0.643,-0.022 1.117,-0.444 1.448,-1.288c0.435,-1.105 0.612,-2.914 0.526,-5.377c-0.132,-3.797 -1.554,-8.482 -2.39,-10.937c-0.01,-0.012 -0.077,-0.047 -0.181,-0.047Zm0.541,18.283c-0.872,-0 -1.561,-0.52 -2.049,-1.546c-0.555,-1.168 -0.869,-2.992 -0.959,-5.577c-0.135,-3.88 0.973,-8.721 1.646,-11.261c0.082,-0.309 0.389,-0.517 0.783,-0.531c0.397,-0.014 0.714,0.173 0.817,0.475c0.848,2.488 2.289,7.241 2.424,11.12c0.09,2.585 -0.096,4.427 -0.569,5.629c-0.428,1.089 -1.106,1.658 -2.015,1.689c-0.026,0.001 -0.052,0.002 -0.078,0.002Z" style="fill-rule:nonzero;stroke:#000;stroke-width:1.63px;" />
        <path d="M67.059,36.355c0,1.955 -1.585,3.54 -3.54,3.54c-1.955,-0 -3.539,-1.585 -3.539,-3.54c-0,-1.955 1.584,-3.54 3.539,-3.54c1.955,0 3.54,1.585 3.54,3.54Z" style="fill:#fff;fill-rule:nonzero;stroke:#000;stroke-width:1.63px;" />
        <path d="M63.519,33.132c-1.777,-0 -3.223,1.446 -3.223,3.223c-0,1.778 1.446,3.224 3.223,3.224c1.778,-0 3.224,-1.446 3.224,-3.224c-0,-1.777 -1.446,-3.223 -3.224,-3.223Zm0,7.079c-2.126,0 -3.856,-1.73 -3.856,-3.856c0,-2.126 1.73,-3.856 3.856,-3.856c2.127,0 3.856,1.73 3.856,3.856c0,2.126 -1.729,3.856 -3.856,3.856Z" style="fill-rule:nonzero;stroke:#000;stroke-width:1.63px;" />
        <path d="M32.308,234.549c-13.116,-12.09 -6.327,-19.889 -6.327,-19.889c-0,0 5.859,-9.491 26.42,2.918c20.562,12.409 40.464,7.796 44.965,5.936c4.501,-1.86 20.228,-13.553 29.09,-14.21c4.931,-0.366 10.833,3.343 5.656,13.365c-10.708,20.726 -39.788,23.09 -39.788,23.09c-0,0 -14.097,2.648 -28.578,0.084c-0,-0 -18.322,0.797 -31.438,-11.294Z" style="fill:#fff;fill-rule:nonzero;stroke:#000;stroke-width:1.63px;" />
        <path d="M63.746,245.525c0.018,0 0.036,0.003 0.055,0.006c14.254,2.525 28.324,-0.056 28.464,-0.082c0.011,-0.003 0.022,-0.004 0.033,-0.004c0.072,-0.007 7.339,-0.628 15.81,-3.761c7.796,-2.884 18.241,-8.55 23.723,-19.16c2.814,-5.447 2.105,-8.556 1.014,-10.207c-1.471,-2.227 -4.252,-2.852 -6.365,-2.697c-6.107,0.453 -15.46,6.178 -22.289,10.358c-2.972,1.82 -5.32,3.256 -6.704,3.828c-2.351,0.971 -8.494,2.572 -16.587,2.407c-10.166,-0.207 -19.809,-3.022 -28.662,-8.364c-10.491,-6.332 -17.011,-6.803 -20.633,-6.085c-3.882,0.77 -5.341,3.04 -5.355,3.064c-0.009,0.013 -0.02,0.027 -0.03,0.04c-0.017,0.02 -1.638,1.934 -1.679,5.254c-0.038,3.083 1.316,8.051 7.981,14.195c12.865,11.859 31.029,11.217 31.21,11.21c0.004,-0 0.009,-0.002 0.014,-0.002Zm13.532,1.745c-4.174,0 -8.852,-0.28 -13.555,-1.111c-0.927,0.029 -18.844,0.407 -31.629,-11.377c-6.862,-6.324 -8.238,-11.493 -8.184,-14.715c0.056,-3.393 1.625,-5.367 1.816,-5.594c0.171,-0.264 1.73,-2.51 5.691,-3.317c5.436,-1.107 12.551,0.962 21.148,6.151c8.757,5.285 18.295,8.068 28.348,8.274c7.992,0.161 14.027,-1.406 16.332,-2.36c1.338,-0.553 3.784,-2.05 6.616,-3.784c6.884,-4.214 16.311,-9.984 22.571,-10.448c2.292,-0.17 5.319,0.524 6.941,2.98c1.184,1.791 1.975,5.126 -0.981,10.846c-5.578,10.795 -16.173,16.545 -24.08,19.468c-8.353,3.087 -15.549,3.756 -15.946,3.79c-0.371,0.067 -6.709,1.196 -15.088,1.197Z" style="fill-rule:nonzero;stroke:#000;stroke-width:1.63px;" />
        <path d="M66.345,237.025l4.644,2.599l-2.319,4.819l-3.844,-2.462l1.519,-4.956Z" style="fill:#fff;fill-rule:nonzero;stroke:#000;stroke-width:1.63px;" />
        <path d="M65.198,241.844l3.342,2.139l2.036,-4.228l-4.044,-2.263l-1.334,4.352Zm3.472,2.915c-0.059,0 -0.119,-0.017 -0.17,-0.051l-3.845,-2.46c-0.119,-0.078 -0.173,-0.224 -0.132,-0.36l1.52,-4.956c0.027,-0.09 0.095,-0.165 0.184,-0.2c0.089,-0.035 0.189,-0.03 0.272,0.017l4.645,2.598c0.145,0.082 0.203,0.263 0.13,0.414l-2.319,4.819c-0.039,0.082 -0.111,0.142 -0.198,0.166c-0.029,0.009 -0.058,0.013 -0.087,0.013Z" style="fill-rule:nonzero;stroke:#000;stroke-width:1.63px;" />
        <path d="M69.167,239.01c0.537,-0.694 1.587,-0.685 2.108,0.021l2.254,3.059l-3.045,3.923l-4.033,-1.855c0.277,-1.739 1.688,-3.822 2.716,-5.148Z" style="fill-rule:nonzero;stroke:#000;stroke-width:1.63px;" />
        <path d="M68.699,242.265l1.231,-1.246c0.443,-0.448 1.136,-0.533 1.675,-0.207l0.875,0.532l0.189,-0.408c0.204,-0.442 0.705,-0.659 1.166,-0.505c2.809,0.938 12.139,4.153 15.26,6.465c3.692,2.735 1.07,8.819 -5.368,8.198c-5.102,-0.491 -12.076,-6.18 -14.75,-8.521c-0.526,-0.46 -0.393,-1.309 0.246,-1.59l0.007,-0.002l-0.681,-0.981c-0.375,-0.539 -0.312,-1.268 0.15,-1.735Z" style="fill:#fff;fill-rule:nonzero;stroke:#000;stroke-width:1.63px;" />
        <path d="M68.923,242.488c-0.354,0.358 -0.402,0.918 -0.115,1.332l0.681,0.98c0.054,0.076 0.07,0.172 0.046,0.262c-0.025,0.091 -0.087,0.166 -0.172,0.205c-0.217,0.096 -0.354,0.274 -0.387,0.494c-0.034,0.218 0.042,0.427 0.209,0.574c2.719,2.379 9.581,7.964 14.572,8.445c3.697,0.357 5.781,-1.525 6.441,-3.244c0.633,-1.647 0.138,-3.328 -1.291,-4.386c-3.083,-2.284 -12.393,-5.49 -15.173,-6.42c-0.307,-0.102 -0.642,0.042 -0.778,0.339l-0.189,0.407c-0.037,0.082 -0.108,0.143 -0.194,0.17c-0.086,0.026 -0.179,0.014 -0.257,-0.033l-0.875,-0.53c-0.416,-0.251 -0.945,-0.187 -1.286,0.159l-1.232,1.246Zm15.73,12.969c-0.307,-0 -0.626,-0.016 -0.956,-0.047c-5.175,-0.499 -12.164,-6.18 -14.929,-8.6c-0.327,-0.286 -0.484,-0.715 -0.418,-1.145c0.048,-0.308 0.202,-0.58 0.432,-0.775l-0.493,-0.709c-0.461,-0.663 -0.384,-1.562 0.185,-2.138l1.231,-1.245c0.548,-0.556 1.397,-0.661 2.064,-0.256l0.573,0.347l0.04,-0.086c0.272,-0.588 0.939,-0.877 1.553,-0.673c2.802,0.937 12.191,4.172 15.348,6.511c1.668,1.236 2.245,3.198 1.506,5.121c-0.68,1.769 -2.677,3.695 -6.136,3.695Z" style="fill-rule:nonzero;stroke:#000;stroke-width:1.63px;" />
        <path d="M76.706,249.23c-0.045,-0 -0.091,-0.01 -0.135,-0.031c-0.158,-0.075 -0.225,-0.263 -0.15,-0.421l2.085,-4.386c0.076,-0.158 0.265,-0.224 0.422,-0.149c0.158,0.075 0.225,0.264 0.15,0.422l-2.086,4.384c-0.054,0.115 -0.167,0.181 -0.286,0.181Z" style="fill-rule:nonzero;stroke:#000;stroke-width:1.63px;" />
        <path d="M86.37,236.956c-0.088,0 -0.175,-0.037 -0.237,-0.107l-0.682,-0.773c-0.058,-0.066 -0.086,-0.152 -0.077,-0.24c0.008,-0.087 0.052,-0.166 0.121,-0.22l21.683,-16.732c0.137,-0.106 0.336,-0.08 0.443,0.058c0.107,0.138 0.081,0.337 -0.057,0.443l-21.415,16.526l0.458,0.519c0.116,0.131 0.103,0.331 -0.028,0.447c-0.06,0.052 -0.135,0.079 -0.209,0.079Z" style="fill-rule:nonzero;stroke:#000;stroke-width:1.63px;" />
        <path d="M87.118,237.992l-9.439,3.388l1.493,5.136l11.395,-3.108l-3.449,-5.416Z" style="fill:#fff;fill-rule:nonzero;stroke:#000;stroke-width:1.63px;" />
        <path d="M78.065,241.578l1.324,4.55l10.681,-2.912l-3.084,-4.842l-8.921,3.204Zm1.107,5.254c-0.137,-0 -0.263,-0.091 -0.303,-0.229l-1.494,-5.134c-0.047,-0.161 0.039,-0.33 0.197,-0.386l9.439,-3.389c0.138,-0.049 0.294,0.003 0.373,0.128l3.45,5.416c0.054,0.085 0.064,0.189 0.028,0.284c-0.036,0.093 -0.115,0.165 -0.212,0.19l-11.395,3.108c-0.027,0.007 -0.055,0.012 -0.083,0.012Z" style="fill-rule:nonzero;stroke:#000;stroke-width:1.63px;" />
        <path d="M79.578,241.074c-0.416,-0.771 -1.453,-0.937 -2.084,-0.324l-2.727,2.645l2.358,4.371l4.284,-1.166c0.013,-1.762 -1.036,-4.047 -1.831,-5.526Z" style="fill-rule:nonzero;stroke:#000;stroke-width:1.63px;" />
        <path d="M79.503,244.363l-1.009,-1.432c-0.364,-0.515 -1.033,-0.714 -1.618,-0.48l-0.951,0.38l-0.119,-0.434c-0.129,-0.468 -0.587,-0.766 -1.067,-0.689c-2.925,0.462 -12.657,2.097 -16.117,3.864c-4.091,2.089 -2.507,8.522 3.945,8.971c5.114,0.355 12.929,-4.11 15.952,-5.978c0.595,-0.366 0.603,-1.225 0.019,-1.608l-0.006,-0.004l0.833,-0.854c0.458,-0.469 0.516,-1.2 0.138,-1.736Z" style="fill:#fff;fill-rule:nonzero;stroke:#000;stroke-width:1.63px;" />
        <path d="M74.888,242.012c-0.032,0 -0.066,0.002 -0.099,0.007c-2.895,0.459 -12.607,2.09 -16.023,3.835c-1.584,0.808 -2.349,2.384 -1.996,4.112c0.369,1.805 2.114,4.004 5.819,4.261c0.189,0.014 0.383,0.019 0.579,0.019c4.999,0.002 12.228,-4.122 15.185,-5.949c0.189,-0.117 0.299,-0.311 0.302,-0.533c0.002,-0.223 -0.103,-0.42 -0.29,-0.542c-0.079,-0.052 -0.134,-0.138 -0.144,-0.232c-0.011,-0.094 0.019,-0.19 0.085,-0.257l0.833,-0.855c0.351,-0.36 0.396,-0.921 0.106,-1.333l-1.01,-1.431c-0.28,-0.398 -0.791,-0.55 -1.242,-0.369l-0.951,0.379c-0.083,0.034 -0.178,0.03 -0.258,-0.011c-0.081,-0.04 -0.141,-0.112 -0.164,-0.199l-0.119,-0.433c-0.077,-0.281 -0.331,-0.469 -0.613,-0.469Zm-11.732,12.867c-0.207,-0 -0.41,-0.006 -0.611,-0.02c-4.059,-0.282 -5.982,-2.744 -6.394,-4.766c-0.413,-2.019 0.479,-3.86 2.328,-4.803c3.498,-1.786 13.292,-3.433 16.211,-3.896c0.637,-0.1 1.249,0.295 1.421,0.92l0.025,0.092l0.622,-0.248c0.725,-0.29 1.545,-0.047 1.994,0.591l1.009,1.432c0.466,0.66 0.395,1.56 -0.17,2.139l-0.603,0.619c0.196,0.23 0.303,0.523 0.299,0.833c-0.006,0.436 -0.23,0.834 -0.601,1.063c-3.005,1.856 -10.359,6.044 -15.53,6.044Z" style="fill-rule:nonzero;stroke:#000;stroke-width:1.63px;" />
        <path d="M70.509,249.918c-0.137,0 -0.264,-0.09 -0.304,-0.23l-1.334,-4.668c-0.048,-0.168 0.049,-0.343 0.217,-0.391c0.168,-0.049 0.343,0.05 0.391,0.218l1.334,4.668c0.049,0.168 -0.049,0.343 -0.217,0.391c-0.029,0.008 -0.058,0.012 -0.087,0.012Z" style="fill-rule:nonzero;stroke:#000;stroke-width:1.63px;" />
        <path d="M62.935,253.514c-0.058,0 -0.115,-0.015 -0.168,-0.048c-5.194,-3.251 -3.131,-7.465 -3.11,-7.508c0.08,-0.156 0.27,-0.218 0.426,-0.139c0.155,0.079 0.217,0.269 0.139,0.424c-0.077,0.154 -1.81,3.75 2.881,6.687c0.148,0.093 0.193,0.288 0.1,0.436c-0.06,0.096 -0.163,0.148 -0.268,0.148Z" style="fill-rule:nonzero;stroke:#000;stroke-width:1.63px;" />
        <path d="M66.638,236.183c-0.021,0 -0.042,-0.003 -0.063,-0.007c-0.171,-0.035 -0.282,-0.202 -0.247,-0.372l0.289,-1.424c-0.92,-0.733 -6.013,-4.767 -14.114,-10.724c-8.931,-6.569 -10.887,-7.913 -10.906,-7.926c-0.144,-0.099 -0.181,-0.295 -0.082,-0.44c0.098,-0.144 0.295,-0.181 0.439,-0.082c0.019,0.013 1.975,1.357 10.923,7.937c8.95,6.582 14.234,10.82 14.286,10.863c0.093,0.073 0.136,0.193 0.112,0.309l-0.327,1.612c-0.031,0.15 -0.163,0.254 -0.31,0.254Z" style="fill-rule:nonzero;stroke:#000;stroke-width:1.63px;" />
        <path d="M113.05,204.679c-0.674,-3.017 -4.978,-14.145 -8.224,-22.342c-2.59,-6.543 -8.853,-11.261 -16.308,-12.209c-5.549,-0.706 -11.565,-0.849 -17.349,-0.393c-9.646,0.76 -17.93,6.664 -21.121,15.127c-2.873,7.624 -6.005,16.983 -6.076,21.723c-0.076,5.051 2.976,9.877 6.306,13.625c4.201,4.728 10.194,7.675 16.666,8.275c9.246,0.856 23.673,1.714 30.226,-0.427c10.05,-3.284 17.512,-16.075 15.88,-23.379Z" style="fill-rule:nonzero;stroke:#000;stroke-width:1.63px;" />
        <path d="M100.038,189.919l-43.686,-0c-1.983,-0 -3.59,1.606 -3.59,3.588l0,28.886c0,1.982 1.607,3.589 3.59,3.589l43.686,-0c1.983,-0 3.59,-1.607 3.59,-3.589l-0,-28.886c-0,-1.982 -1.607,-3.588 -3.59,-3.588Z" style="fill:#fff;fill-rule:nonzero;stroke:#000;stroke-width:1.63px;" />
        <path d="M56.352,190.235c-1.805,-0 -3.274,1.468 -3.274,3.272l0,28.886c0,1.804 1.469,3.273 3.274,3.273l43.686,-0c1.805,-0 3.274,-1.469 3.274,-3.273l-0,-28.886c-0,-1.804 -1.469,-3.272 -3.274,-3.272l-43.686,-0Zm43.686,36.064l-43.686,0c-2.154,0 -3.906,-1.752 -3.906,-3.906l-0,-28.886c-0,-2.152 1.752,-3.904 3.906,-3.904l43.686,-0c2.154,-0 3.906,1.752 3.906,3.904l-0,28.886c-0,2.154 -1.752,3.906 -3.906,3.906Z" style="fill-rule:nonzero;stroke:#000;stroke-width:1.63px;" />
        <path d="M102.932,226.157l-50.219,-0c-1.248,-0 -2.26,1.011 -2.26,2.258c0,1.249 1.012,2.26 2.26,2.26l50.219,0c1.249,0 2.26,-1.011 2.26,-2.26c0,-1.247 -1.011,-2.258 -2.26,-2.258Z" style="fill:#fff;fill-rule:nonzero;stroke:#000;stroke-width:1.63px;" />
        <path d="M52.713,226.473c-1.072,-0 -1.944,0.872 -1.944,1.942c0,1.073 0.872,1.944 1.944,1.944l50.219,0c1.072,0 1.944,-0.871 1.944,-1.944c0,-1.07 -0.872,-1.942 -1.944,-1.942l-50.219,-0Zm50.219,4.518l-50.219,0c-1.421,0 -2.576,-1.155 -2.576,-2.576c-0,-1.42 1.155,-2.576 2.576,-2.576l50.219,0c1.421,0 2.577,1.156 2.577,2.576c-0,1.421 -1.156,2.576 -2.577,2.576Z" style="fill-rule:nonzero;stroke:#000;stroke-width:1.63px;" />
        <path d="M82.059,169.955l0.47,-6.669c0.319,-0.022 0.539,-0.035 0.604,-0.037c1.86,-0.021 2.465,-0.623 2.625,-2.151c0.1,-0.956 0.135,-2.376 -0.331,-4.152c-0.049,-0.189 -0.038,-0.391 0.038,-0.571l0.318,-0.745c0.067,-0.244 -0.018,-0.508 -0.214,-0.667l-0.169,-0.14c-0.607,-0.498 -1.112,-1.109 -1.516,-1.787c-0.373,-0.625 -1.005,-1.796 -1.439,-2.004c-1.222,-0.584 -6.182,-3.178 -8.954,1.355c-2.162,3.535 1.37,8.401 2.654,9.995c0.31,0.385 -2.096,7.941 -2.096,7.941l-3.11,0.752c-0,-0 2.4,4.262 9.69,2.5c5.191,-1.256 4.367,-3.187 4.367,-3.187l-2.937,-0.433Z" style="fill:#fff;fill-rule:nonzero;stroke:#000;stroke-width:1.63px;" />
        <path d="M71.461,171.274c0.754,0.955 3.315,3.39 9.094,1.993c2.776,-0.671 3.729,-1.508 4.039,-2.092c0.113,-0.213 0.136,-0.389 0.134,-0.508l-2.715,-0.399c-0.164,-0.024 -0.281,-0.171 -0.27,-0.336l0.471,-6.668c0.011,-0.157 0.136,-0.283 0.293,-0.292c0.328,-0.024 0.555,-0.037 0.622,-0.039c1.815,-0.021 2.181,-0.593 2.314,-1.869c0.142,-1.351 0.037,-2.672 -0.321,-4.037c-0.069,-0.26 -0.05,-0.535 0.053,-0.776l0.308,-0.721c0.024,-0.119 -0.02,-0.246 -0.114,-0.323l-0.17,-0.14c-0.612,-0.502 -1.146,-1.131 -1.587,-1.871l-0.169,-0.286c-0.296,-0.509 -0.848,-1.456 -1.134,-1.593l-0.134,-0.063c-1.454,-0.704 -5.882,-2.843 -8.415,1.298c-1.996,3.264 1.175,7.824 2.631,9.632c0.125,0.154 0.417,0.518 -2.04,8.235c-0.034,0.106 -0.12,0.186 -0.227,0.212l-2.663,0.643Zm5.806,3.049c-4.796,0.001 -6.519,-2.942 -6.604,-3.093c-0.048,-0.086 -0.054,-0.19 -0.014,-0.281c0.039,-0.091 0.119,-0.158 0.215,-0.182l2.938,-0.709c1.05,-3.313 2.077,-6.936 2.056,-7.528c-1.557,-1.947 -4.824,-6.732 -2.637,-10.307c1.878,-3.073 4.983,-3.59 9.23,-1.539l0.13,0.062c0.428,0.204 0.873,0.925 1.409,1.845l0.165,0.282c0.403,0.676 0.889,1.25 1.445,1.706l0.17,0.138c0.292,0.24 0.417,0.631 0.319,0.996c-0.004,0.014 -0.009,0.028 -0.015,0.041l-0.318,0.745c-0.047,0.113 -0.055,0.243 -0.023,0.368c0.378,1.441 0.489,2.834 0.339,4.263c-0.183,1.754 -0.979,2.413 -2.936,2.435c-0.041,0.002 -0.151,0.008 -0.311,0.019l-0.43,6.101l2.647,0.39c0.108,0.015 0.201,0.087 0.244,0.189c0.023,0.052 0.209,0.527 -0.112,1.166c-0.519,1.035 -2.023,1.86 -4.471,2.452c-1.289,0.312 -2.431,0.441 -3.436,0.441Z" style="fill-rule:nonzero;stroke:#000;stroke-width:1.63px;" />
        <path d="M75.019,146.622c1.344,-0.289 2.889,-0.083 3.541,-0.323c1.052,-0.386 1.082,-1.646 2.537,-2c1.762,-0.429 2.497,0.323 3.186,1.372c0.115,0.175 0.216,0.37 0.299,0.591c1.108,2.972 -0.291,4.42 -0.914,4.892c0,-0 -3.964,2.048 -4.642,2.633c-0.635,0.548 -1.368,1.843 -0.907,3.707c0.059,0.239 -0.045,0.489 -0.249,0.612c-0.238,0.144 -0.547,0.075 -0.71,-0.162c-0.515,-0.748 -1.641,-2.193 -2.443,-1.85c-1.006,0.429 -0.693,3.447 1.528,3.795c0.682,0.106 1.236,0.804 1.169,1.518c-0.044,0.466 -0.483,1.031 -1.136,1.181c-0.398,0.091 -0.792,-0.069 -1.143,-0.294c-1.449,-0.924 -5.536,-4.848 -6.044,-8.365c-0.612,-4.237 4.139,-6.922 5.928,-7.307Z" style="fill-rule:nonzero;stroke:#000;stroke-width:1.63px;" />
        <path d="M83.03,163.536l-0.012,-0c-0.067,-0.003 -1.668,-0.074 -2.822,-1.053c-0.133,-0.112 -0.149,-0.313 -0.036,-0.445c0.113,-0.133 0.312,-0.15 0.446,-0.037c0.983,0.835 2.421,0.901 2.436,0.903c0.174,0.005 0.31,0.154 0.303,0.327c-0.006,0.171 -0.146,0.305 -0.315,0.305Z" style="fill-rule:nonzero;stroke:#000;stroke-width:1.63px;" />
        <path d="M238.926,101.616c0.243,-1.509 -0.154,-1.9 0.203,-3.232c0.316,-1.184 0.926,-2.594 2.097,-3.784c0.217,-0.22 1.863,-1.864 4.281,-2.257c5.779,-0.939 11.217,2.642 12.974,4.644c1.57,1.789 1.889,5.191 3.081,6.305c3.628,3.394 6.274,2.467 9.269,5.399c2.159,2.113 2.907,4.672 3.26,5.876c0.296,1.013 0.966,3.713 0.061,8.179c-1.312,6.47 -3.852,6.391 -4.829,11.295c-1.236,6.199 2.43,8.284 0.719,13.061c-1.343,3.752 -5.141,6.759 -9.3,6.985c-8.124,0.441 -13.306,-9.935 -13.512,-10.602c-0.861,-2.812 -2.48,-4.154 0.615,-11.655c1.936,-4.69 0.37,-11.15 -1.265,-12.763c-1.328,-1.309 -8.021,3.534 -10.827,-3.506c-0.533,-1.34 -1.224,-2.339 -1.341,-3.424c-0.164,-1.523 0.622,-2.094 3.037,-6.791c0.995,-1.931 1.306,-2.669 1.477,-3.73Z" style="fill-rule:nonzero;stroke:#000;stroke-width:1.63px;" />
        <path d="M267.17,228.184c-0,0 3.889,5.159 3.611,8.552l0.078,1.314l8.117,-7.387l-1.132,-0.459c-1.798,-1.229 -3.695,-1.958 -4.739,-3.868l-5.935,1.848Z" style="fill:#fff;fill-rule:nonzero;stroke:#000;stroke-width:1.63px;" />
        <path d="M271.097,236.74l0.038,0.631l7.257,-6.602l-0.668,-0.271c-0.022,-0.01 -0.041,-0.02 -0.06,-0.033c-0.438,-0.299 -0.888,-0.573 -1.324,-0.838c-1.311,-0.794 -2.552,-1.547 -3.382,-2.914l-5.273,1.642c0.884,1.247 3.641,5.402 3.412,8.385Zm-0.238,1.626c-0.04,-0 -0.081,-0.008 -0.119,-0.023c-0.113,-0.047 -0.189,-0.152 -0.196,-0.274l-0.079,-1.313c-0.001,-0.016 -0.001,-0.03 0,-0.045c0.265,-3.237 -3.51,-8.286 -3.548,-8.336c-0.062,-0.082 -0.08,-0.19 -0.048,-0.288c0.031,-0.098 0.109,-0.174 0.208,-0.205l5.935,-1.848c0.142,-0.045 0.299,0.018 0.371,0.15c0.744,1.362 1.978,2.11 3.284,2.903c0.434,0.264 0.883,0.535 1.326,0.837l1.102,0.447c0.101,0.041 0.173,0.13 0.193,0.237c0.018,0.107 -0.018,0.216 -0.099,0.289l-8.117,7.387c-0.059,0.053 -0.136,0.082 -0.213,0.082Z" style="fill-rule:nonzero;stroke:#000;stroke-width:1.63px;" />
        <path d="M269.386,235.045l0.126,1.598c0.249,3.167 -0.276,6.348 -1.53,9.267l-0.963,2.244c-0.092,0.214 -0.072,0.458 0.053,0.654l0.064,0.1c0.707,1.108 3.824,2.063 7.767,-0.611c2.441,-1.653 7.389,-6.247 10.772,-14.27c0.214,-0.506 0.074,-1.093 -0.347,-1.447c-1.537,-1.289 -5.327,-4.231 -8.286,-4.56c-0.329,-0.036 -0.621,0.211 -0.623,0.541l-0.029,3.184c-0.012,1.429 -1.185,2.576 -2.612,2.556l-3.65,-0.048c-0.432,-0.005 -0.776,0.36 -0.742,0.792Z" style="fill:#fff;fill-rule:nonzero;stroke:#000;stroke-width:1.63px;" />
        <path d="M269.702,235.019l0.126,1.6c0.251,3.205 -0.287,6.461 -1.555,9.416l-0.964,2.244c-0.05,0.117 -0.039,0.251 0.03,0.358l0.063,0.1c0.194,0.304 0.713,0.692 1.586,0.872c0.979,0.202 3.026,0.266 5.739,-1.574c1.098,-0.745 6.776,-4.926 10.657,-14.13c0.161,-0.383 0.056,-0.817 -0.26,-1.082c-1.481,-1.243 -5.238,-4.168 -8.117,-4.489c-0.069,-0.007 -0.143,0.014 -0.195,0.06c-0.049,0.044 -0.076,0.105 -0.076,0.17l-0.03,3.184c-0.007,0.776 -0.316,1.502 -0.87,2.044c-0.554,0.543 -1.277,0.829 -2.063,0.825l-3.649,-0.048c-0.122,0.002 -0.229,0.045 -0.311,0.131c-0.081,0.088 -0.121,0.201 -0.111,0.319Zm0.296,15.321c-0.46,0 -0.842,-0.051 -1.137,-0.111c-0.92,-0.189 -1.646,-0.61 -1.992,-1.15l-0.063,-0.1c-0.182,-0.285 -0.211,-0.639 -0.078,-0.95l0.964,-2.243c1.228,-2.861 1.749,-6.014 1.505,-9.118l-0.126,-1.599c-0.024,-0.294 0.079,-0.586 0.281,-0.8c0.2,-0.215 0.488,-0.332 0.78,-0.333l3.65,0.049c0.591,0.006 1.178,-0.221 1.611,-0.645c0.435,-0.424 0.676,-0.991 0.681,-1.597l0.029,-3.185c0.002,-0.243 0.108,-0.476 0.29,-0.636c0.186,-0.165 0.436,-0.244 0.684,-0.216c3.051,0.34 6.929,3.352 8.454,4.631c0.53,0.445 0.705,1.174 0.436,1.813c-3.95,9.369 -9.761,13.647 -10.886,14.408c-2.109,1.431 -3.867,1.782 -5.083,1.782Z" style="fill-rule:nonzero;stroke:#000;stroke-width:1.63px;" />
        <path d="M267.428,247.656c-0.123,-0 -0.239,-0.072 -0.291,-0.191c-0.069,-0.161 0.004,-0.347 0.164,-0.416l0.504,-0.219c2.57,-1.116 4.6,-3.264 5.566,-5.895l0.336,-0.916c0.129,-0.349 0.437,-0.578 0.807,-0.6c0.365,-0.025 0.704,0.17 0.872,0.501l0.436,0.855c0.056,0.112 0.159,0.186 0.282,0.205c0.124,0.019 0.244,-0.021 0.332,-0.11c2.368,-2.409 4.177,-5.23 5.376,-8.389l0.69,-1.815c0.062,-0.164 0.244,-0.244 0.408,-0.184c0.163,0.062 0.245,0.246 0.183,0.408l-0.69,1.817c-1.23,3.239 -3.087,6.135 -5.517,8.607c-0.232,0.236 -0.551,0.343 -0.879,0.291c-0.326,-0.051 -0.6,-0.249 -0.749,-0.544l-0.436,-0.854c-0.078,-0.154 -0.225,-0.16 -0.27,-0.157c-0.044,0.003 -0.192,0.024 -0.251,0.186l-0.336,0.917c-1.027,2.792 -3.18,5.073 -5.908,6.258l-0.504,0.218c-0.041,0.018 -0.083,0.027 -0.125,0.027Z" style="fill-rule:nonzero;stroke:#000;stroke-width:1.63px;" />
        <path d="M237.594,242.673c0,-0 0.446,5.078 -1.659,7.488l-0.656,1.035l9.874,-0.524l-0.477,-1.081c-0.849,-1.923 -1.501,-5.017 -1.336,-7.038l-5.746,0.12Z" style="fill:#fff;fill-rule:nonzero;stroke:#000;stroke-width:1.63px;" />
        <path d="M236.189,250.35l-0.314,0.498l8.804,-0.467l-0.292,-0.662c-0.766,-1.736 -1.463,-4.692 -1.382,-6.843l-5.073,0.106c0.06,1.196 0.114,5.219 -1.743,7.368Zm-0.91,1.162c-0.112,0 -0.215,-0.059 -0.273,-0.156c-0.06,-0.103 -0.058,-0.229 0.005,-0.329l0.658,-1.035c0.008,-0.014 0.017,-0.027 0.028,-0.04c1.991,-2.278 1.587,-7.203 1.583,-7.253c-0.009,-0.087 0.021,-0.173 0.079,-0.238c0.059,-0.065 0.141,-0.103 0.228,-0.104l5.748,-0.12c0.089,0.002 0.175,0.035 0.237,0.1c0.061,0.065 0.092,0.152 0.084,0.242c-0.152,1.853 0.424,4.877 1.31,6.885l0.477,1.081c0.042,0.094 0.035,0.204 -0.02,0.293c-0.055,0.088 -0.15,0.144 -0.253,0.15l-9.874,0.524l-0.017,0Z" style="fill-rule:nonzero;stroke:#000;stroke-width:1.63px;" />
        <path d="M236.239,246.877l-0.992,1.021c-1.964,2.022 -4.389,3.535 -7.068,4.41l-2.058,0.673c-0.196,0.064 -0.347,0.222 -0.405,0.419l-0.03,0.1c-0.323,1.12 0.868,3.757 4.959,4.817c2.46,0.637 8.161,1.227 15.211,-0.991c0.834,-0.262 1.38,-1.062 1.34,-1.937c-0.09,-2.023 -0.447,-5.625 -1.807,-7.547c-0.168,-0.237 -0.492,-0.268 -0.711,-0.079c-0.484,0.417 -1.349,1.164 -2.139,1.848c-0.959,0.828 -2.409,0.718 -3.233,-0.244l-2.105,-2.459c-0.25,-0.291 -0.696,-0.305 -0.962,-0.031Z" style="fill:#fff;fill-rule:nonzero;stroke:#000;stroke-width:1.63px;" />
        <path d="M236.466,247.098l-0.992,1.02c-1.992,2.05 -4.481,3.603 -7.196,4.491l-2.059,0.673c-0.097,0.031 -0.172,0.108 -0.2,0.206l-0.03,0.101c-0.086,0.299 -0.039,0.861 0.346,1.538c0.436,0.766 1.587,2.157 4.389,2.883c1.091,0.283 6.938,1.564 15.037,-0.986c0.692,-0.218 1.153,-0.884 1.119,-1.621c-0.087,-1.955 -0.432,-5.516 -1.749,-7.379c-0.036,-0.048 -0.079,-0.064 -0.11,-0.067c-0.048,-0.005 -0.096,0.01 -0.137,0.045l-2.139,1.847c-0.527,0.456 -1.202,0.677 -1.897,0.627c-0.696,-0.053 -1.328,-0.374 -1.782,-0.903l-2.106,-2.459c-0.062,-0.074 -0.149,-0.115 -0.243,-0.117c-0.096,-0.003 -0.185,0.032 -0.251,0.101Zm-0.454,12.114c-2.915,0 -4.858,-0.437 -5.447,-0.589c-3.026,-0.785 -4.293,-2.331 -4.779,-3.182c-0.417,-0.732 -0.564,-1.471 -0.403,-2.028l0.029,-0.102c0.087,-0.298 0.315,-0.533 0.61,-0.63l2.058,-0.673c2.62,-0.857 5.02,-2.354 6.94,-4.33l0.992,-1.021c0.189,-0.195 0.452,-0.304 0.725,-0.292c0.271,0.008 0.527,0.131 0.704,0.337l2.105,2.459c0.344,0.402 0.823,0.644 1.35,0.684c0.526,0.039 1.037,-0.128 1.436,-0.474l2.138,-1.848c0.175,-0.15 0.403,-0.22 0.628,-0.193c0.222,0.026 0.418,0.143 0.549,0.328c1.411,1.995 1.775,5.691 1.865,7.717c0.047,1.023 -0.595,1.948 -1.562,2.253c-3.912,1.232 -7.319,1.584 -9.938,1.584Z" style="fill-rule:nonzero;stroke:#000;stroke-width:1.63px;" />
        <path d="M237.703,255.616c-0.415,0 -0.831,-0.012 -1.248,-0.035c-0.305,-0.017 -0.573,-0.173 -0.737,-0.43c-0.165,-0.258 -0.193,-0.567 -0.08,-0.851l0.314,-0.791c0.048,-0.119 -0.017,-0.203 -0.046,-0.233c-0.031,-0.03 -0.113,-0.096 -0.233,-0.049l-0.807,0.311c-2.47,0.957 -5.261,0.859 -7.658,-0.269l-0.441,-0.208c-0.158,-0.074 -0.226,-0.262 -0.151,-0.42c0.075,-0.158 0.262,-0.226 0.42,-0.151l0.442,0.207c2.24,1.054 4.85,1.146 7.159,0.252l0.807,-0.312c0.321,-0.124 0.669,-0.05 0.91,0.194c0.242,0.245 0.314,0.593 0.185,0.912l-0.314,0.791c-0.037,0.092 -0.027,0.192 0.026,0.275c0.053,0.084 0.14,0.136 0.239,0.14c2.985,0.167 5.921,-0.281 8.723,-1.33l1.613,-0.604c0.164,-0.062 0.346,0.021 0.407,0.185c0.062,0.163 -0.021,0.345 -0.185,0.406l-1.614,0.605c-2.493,0.934 -5.087,1.405 -7.731,1.405Z" style="fill-rule:nonzero;stroke:#000;stroke-width:1.63px;" />
        <path d="M255.331,159.565c-0,-0 3.985,13.186 -2.811,22.544c-9.154,12.609 -3.923,41.703 -8.505,61.266c-0.088,0.374 -0.428,0.635 -0.813,0.631l-5.55,-0.059c-0.369,-0.005 -0.69,-0.253 -0.786,-0.61c-1.306,-4.878 -10.07,-37.896 -9.789,-44.477c0.065,-1.501 0.256,-3.252 0.519,-5.093c1.281,-8.917 3.974,-17.574 7.887,-25.69l6.104,-12.663l13.744,4.151Z" style="fill-rule:nonzero;stroke:#000;stroke-width:1.63px;" />
        <path d="M259.629,158.073c0,0 5.013,9.317 2.795,19.119c-2.219,9.801 1.117,17.931 3.469,21.758c2.323,3.782 6.581,13.321 8.078,27.499c0.035,0.344 -0.089,0.687 -0.339,0.927c-0.783,0.747 -2.721,2.267 -5.647,2.392c-0.34,0.014 -0.669,-0.125 -0.894,-0.381c-2.307,-2.621 -15.585,-18.009 -20.304,-30.251c-5.175,-13.424 -6.145,-35.734 -6.145,-35.734c-0,-0 12.883,1.361 18.987,-5.329Z" style="fill-rule:nonzero;stroke:#000;stroke-width:1.63px;" />
        <path d="M247.429,203.104c-0.007,-0 -0.016,-0.002 -0.023,-0.002c-0.175,-0.013 -0.306,-0.164 -0.293,-0.338c0.574,-7.929 1.595,-15.942 5.152,-20.84c2.531,-3.486 3.846,-7.902 3.908,-13.126c0.003,-0.174 0.144,-0.313 0.316,-0.313l0.004,-0c0.175,0.003 0.315,0.145 0.313,0.32c-0.065,5.358 -1.42,9.897 -4.029,13.49c-3.463,4.77 -4.466,12.678 -5.034,20.515c-0.011,0.167 -0.149,0.294 -0.314,0.294Z" style="fill:#fff;fill-rule:nonzero;stroke:#000;stroke-width:1.63px;" />
        <path d="M205.947,111.566c-0,0 -1.228,-1.618 -1.143,-3.087c0.078,-1.358 0.183,-4.513 -1.414,-6.242c-2.072,-2.242 -5.411,-2.959 -5.75,-2.272c-0.303,0.618 3.819,3.842 3.595,6.37c-0.048,0.535 -0.521,0.941 -1.058,0.924c-0.649,-0.018 -1.659,-0.241 -2.913,-1.147c-0.319,-0.23 -0.778,-0.038 -0.82,0.353c-0.061,0.536 0.041,1.341 0.698,2.397c0.838,1.344 2.214,2.326 3.156,2.66c1.027,0.366 2.31,2.406 2.31,2.406l3.339,-2.362Z" style="fill:#fff;fill-rule:nonzero;stroke:#000;stroke-width:1.63px;" />
        <path d="M196.959,106.329c-0.041,0 -0.074,0.013 -0.088,0.019c-0.038,0.017 -0.103,0.059 -0.114,0.151c-0.049,0.444 0.024,1.186 0.653,2.195c0.806,1.295 2.116,2.219 2.994,2.531c0.894,0.319 1.878,1.652 2.288,2.256l2.816,-1.992c-0.357,-0.542 -1.09,-1.812 -1.02,-3.028c0.165,-2.853 -0.284,-4.876 -1.33,-6.008c-1.524,-1.651 -3.767,-2.421 -4.803,-2.421l-0.001,-0c-0.217,-0 -0.34,0.032 -0.398,0.058c0.096,0.235 0.577,0.805 0.971,1.269c1.171,1.387 2.775,3.285 2.622,5.004c-0.062,0.701 -0.674,1.233 -1.381,1.214c-0.675,-0.022 -1.759,-0.247 -3.089,-1.208c-0.041,-0.03 -0.083,-0.04 -0.12,-0.04Zm5.649,7.916c-0.022,0 -0.041,-0.003 -0.063,-0.007c-0.084,-0.017 -0.159,-0.068 -0.206,-0.141c-0.341,-0.542 -1.391,-2.007 -2.147,-2.276c-0.977,-0.348 -2.432,-1.369 -3.318,-2.793c-0.725,-1.162 -0.805,-2.055 -0.745,-2.598c0.033,-0.294 0.215,-0.539 0.486,-0.661c0.278,-0.122 0.589,-0.09 0.833,0.088c1.201,0.866 2.152,1.069 2.739,1.087c0.371,0.008 0.701,-0.275 0.732,-0.637c0.13,-1.458 -1.438,-3.311 -2.475,-4.539c-0.86,-1.017 -1.292,-1.527 -1.087,-1.942c0.074,-0.151 0.252,-0.344 0.678,-0.407c1.147,-0.166 3.797,0.665 5.587,2.603c1.762,1.908 1.563,5.346 1.498,6.476c-0.078,1.331 1.068,2.862 1.079,2.876c0.053,0.069 0.074,0.155 0.061,0.24c-0.013,0.085 -0.061,0.161 -0.13,0.21l-3.341,2.362c-0.053,0.038 -0.117,0.059 -0.181,0.059Z" style="fill-rule:nonzero;stroke:#000;stroke-width:1.63px;" />
        <path d="M261.841,144.998c-0.131,-9.703 -2.253,-16.116 -5.715,-20.286c-2.641,-3.182 -6.431,-5.199 -10.521,-5.804c-2.152,-0.318 -5.131,-0.679 -7.779,-0.718c-0.343,-0.271 -0.73,-0.497 -1.164,-0.665c-0.532,0.284 -1.057,0.541 -1.577,0.772c-1.033,0.114 -1.906,0.324 -2.504,0.667c-0.283,0.162 -0.483,0.309 -0.632,0.45c-6.243,1.68 -11.628,-0.111 -16.244,-2.301c-3.149,-1.492 -5.228,-2.734 -8.205,-5.815c-0.474,-0.491 -1.233,-0.571 -1.803,-0.195l-3.521,2.341c-0.617,0.409 -0.814,1.222 -0.456,1.869c2.424,4.378 12.164,19.555 30.058,18.327c0.588,1.198 1.341,2.317 2.232,3.326c2.274,2.576 1.528,9.035 -2.114,22.721c0,0 15.822,8.164 31.717,3.139c0,0 -1.636,-7.703 -1.772,-17.828Z" style="fill:#fff;fill-rule:nonzero;stroke:#000;stroke-width:1.63px;" />
        <path d="M232.269,159.518c1.981,0.952 16.506,7.528 30.977,3.091c-0.29,-1.484 -1.601,-8.641 -1.722,-17.606c-0.122,-9.093 -1.967,-15.664 -5.64,-20.09c-2.544,-3.061 -6.211,-5.083 -10.326,-5.692c-2.055,-0.305 -5.067,-0.674 -7.736,-0.714c-0.071,-0.001 -0.137,-0.025 -0.192,-0.069c-0.291,-0.23 -0.61,-0.419 -0.95,-0.564c-0.482,0.254 -0.975,0.493 -1.467,0.711c-0.03,0.014 -0.061,0.022 -0.093,0.026c-1.058,0.116 -1.859,0.328 -2.381,0.628c-0.246,0.14 -0.434,0.273 -0.575,0.405c-0.038,0.035 -0.083,0.062 -0.134,0.075c-6.502,1.751 -11.969,-0.189 -16.46,-2.319c-3.268,-1.549 -5.343,-2.825 -8.297,-5.882c-0.37,-0.381 -0.958,-0.444 -1.401,-0.151l-3.521,2.341c-0.484,0.32 -0.635,0.945 -0.354,1.451c2.528,4.567 12.143,19.373 29.758,18.165c0.127,-0.007 0.25,0.062 0.306,0.177c0.573,1.166 1.308,2.261 2.186,3.256c2.299,2.604 1.783,8.572 -1.978,22.761Zm20.409,5.244c-11.464,-0 -20.804,-4.731 -20.926,-4.794c-0.132,-0.068 -0.198,-0.219 -0.16,-0.363c3.71,-13.949 4.301,-20.028 2.181,-22.429c-0.867,-0.984 -1.602,-2.061 -2.184,-3.207c-0.631,0.04 -1.252,0.058 -1.861,0.058c-16.667,0.001 -25.811,-14.094 -28.284,-18.562c-0.436,-0.784 -0.191,-1.788 0.557,-2.285l3.521,-2.339c0.697,-0.464 1.625,-0.363 2.205,0.238c2.887,2.987 4.917,4.234 8.113,5.749c4.371,2.073 9.68,3.963 15.952,2.3c0.168,-0.147 0.375,-0.291 0.632,-0.437c0.59,-0.339 1.457,-0.576 2.577,-0.703c0.507,-0.227 1.016,-0.477 1.511,-0.741c0.082,-0.043 0.178,-0.049 0.264,-0.017c0.415,0.161 0.804,0.377 1.16,0.646c2.677,0.048 5.667,0.417 7.715,0.72c4.269,0.631 8.076,2.731 10.718,5.914c3.771,4.541 5.664,11.241 5.788,20.484c0.134,9.978 1.748,17.691 1.765,17.767c0.034,0.16 -0.059,0.318 -0.214,0.367c-3.739,1.182 -7.486,1.634 -11.03,1.634Z" style="fill-rule:nonzero;stroke:#000;stroke-width:1.63px;" />
        <path d="M248.723,105.987c-0.247,0.057 -0.489,-0.112 -0.511,-0.366c-0.11,-1.202 -0.914,-3.247 -2.25,-4.019c-1.712,-0.989 -4.003,-1.072 -4.896,0.183c-0.78,1.095 -0.615,1.953 -2.446,3.12c-0.176,0.111 -0.14,0.387 -0.017,0.557l0.628,0.966c0.137,0.189 0.151,0.687 0.104,0.916c-0.144,0.707 -0.457,2.165 -0.326,2.456c0.381,0.845 2.888,1.514 2.888,1.514l-0.254,6.512c-0.079,0.879 -0.468,1.034 -0.468,1.034l-1.483,1.346c0,-0 -0.055,1.595 5.721,2.514c4.337,0.689 4.066,-0.075 4.066,-0.075c-0,-0 -3.681,-3.861 -2.116,-12.265c0.035,-0.184 0.167,-0.336 0.344,-0.4c0.68,-0.241 2.542,-0.994 2.66,-2.303c0.126,-1.391 -0.797,-1.892 -1.644,-1.69Z" style="fill:#fff;fill-rule:nonzero;stroke:#000;stroke-width:1.63px;" />
        <path d="M240.045,120.313c0.159,0.324 1.009,1.392 5.417,2.095c2.382,0.378 3.27,0.295 3.584,0.216c-0.778,-0.977 -3.374,-4.898 -1.994,-12.302c0.055,-0.294 0.265,-0.539 0.549,-0.639c0.704,-0.25 2.353,-0.95 2.452,-2.035c0.048,-0.53 -0.071,-0.933 -0.344,-1.169c-0.232,-0.202 -0.566,-0.268 -0.913,-0.185c-0.21,0.049 -0.426,0.007 -0.6,-0.117c-0.17,-0.124 -0.28,-0.315 -0.3,-0.526c-0.103,-1.136 -0.889,-3.08 -2.092,-3.775c-1.511,-0.872 -3.671,-1.043 -4.481,0.093c-0.226,0.317 -0.365,0.609 -0.513,0.92c-0.332,0.696 -0.676,1.419 -1.994,2.265c0,0.028 0.013,0.081 0.042,0.122l0.638,0.98c0.209,0.288 0.2,0.893 0.148,1.151l-0.031,0.153c-0.104,0.509 -0.381,1.863 -0.31,2.123c0.214,0.475 1.694,1.063 2.675,1.326c0.142,0.038 0.241,0.169 0.235,0.317l-0.254,6.512c-0.079,0.882 -0.438,1.188 -0.602,1.283l-1.312,1.192Zm8.218,3.012c-0.638,-0 -1.558,-0.079 -2.899,-0.294c-5.761,-0.915 -5.998,-2.523 -5.988,-2.835c0.003,-0.086 0.041,-0.167 0.105,-0.225l1.481,-1.345c0.028,-0.026 0.061,-0.046 0.094,-0.06c-0.004,0 0.216,-0.148 0.271,-0.769l0.244,-6.246c-0.73,-0.213 -2.481,-0.803 -2.849,-1.621c-0.14,-0.308 -0.019,-1.082 0.272,-2.497l0.031,-0.151c0.044,-0.212 0.006,-0.584 -0.051,-0.668l-0.636,-0.98c-0.123,-0.169 -0.181,-0.409 -0.143,-0.612c0.031,-0.163 0.122,-0.299 0.254,-0.384c1.187,-0.756 1.466,-1.343 1.791,-2.022c0.152,-0.321 0.31,-0.653 0.568,-1.014c1.041,-1.463 3.568,-1.281 5.312,-0.274c1.468,0.848 2.291,3.005 2.406,4.265c0.003,0.037 0.023,0.058 0.04,0.071c0.014,0.009 0.042,0.025 0.083,0.015c0.549,-0.131 1.086,-0.014 1.474,0.322c0.302,0.261 0.644,0.769 0.559,1.704c-0.125,1.398 -1.852,2.212 -2.869,2.573c-0.072,0.026 -0.125,0.088 -0.139,0.16c-1.519,8.151 1.998,11.952 2.033,11.988c0.031,0.033 0.055,0.071 0.069,0.113c0.04,0.109 0.036,0.279 -0.091,0.432c-0.141,0.17 -0.455,0.354 -1.422,0.354Z" style="fill-rule:nonzero;stroke:#000;stroke-width:1.63px;" />
        <path d="M215.448,122.607l-59.066,-0.177c-1.367,-0.004 -2.543,-0.956 -2.451,-1.985l3.241,-36.45c0.072,-0.794 0.889,-1.368 1.945,-1.364l59.065,0.176c1.367,0.004 2.545,0.956 2.454,1.985l-3.244,36.451c-0.07,0.792 -0.888,1.367 -1.944,1.364Z" style="fill:#fff;fill-rule:nonzero;stroke:#000;stroke-width:1.63px;" />
        <path d="M215.45,122.291l0.007,-0c0.884,-0 1.564,-0.453 1.619,-1.077l3.244,-36.451c0.035,-0.39 -0.172,-0.707 -0.353,-0.905c-0.412,-0.451 -1.096,-0.733 -1.786,-0.735l-59.066,-0.176c-0.889,-0.018 -1.571,0.449 -1.627,1.076l-3.243,36.451c-0.035,0.39 0.172,0.708 0.353,0.905c0.412,0.452 1.096,0.733 1.786,0.735l59.066,0.177Zm0.007,0.632l-0.009,-0l-59.066,-0.177c-0.874,-0.002 -1.716,-0.354 -2.251,-0.941c-0.375,-0.411 -0.559,-0.904 -0.516,-1.388l3.243,-36.45c0.086,-0.959 1.031,-1.653 2.25,-1.653l0.01,0l59.066,0.176c0.873,0.003 1.715,0.355 2.25,0.942c0.377,0.412 0.559,0.904 0.516,1.387l-3.243,36.45c-0.085,0.96 -1.031,1.654 -2.25,1.654Z" style="fill-rule:nonzero;stroke:#000;stroke-width:1.63px;" />
        <path d="M161.983,97.56l51.259,0l0.3,-3.565l-51.258,-0l-0.301,3.565Zm51.549,0.632l-51.893,0c-0.089,0 -0.174,-0.037 -0.233,-0.101c-0.06,-0.065 -0.09,-0.153 -0.082,-0.242l0.353,-4.197c0.014,-0.164 0.151,-0.29 0.316,-0.29l51.894,0c0.088,0 0.172,0.037 0.232,0.102c0.06,0.066 0.089,0.153 0.082,0.241l-0.354,4.198c-0.014,0.164 -0.151,0.289 -0.315,0.289Z" style="fill-rule:nonzero;stroke:#000;stroke-width:1.63px;" />
        <path d="M171.159,91.674l34.036,-0l0.3,-3.566l-34.036,0l-0.3,3.566Zm34.326,0.632l-34.67,0c-0.089,0 -0.174,-0.037 -0.233,-0.102c-0.059,-0.065 -0.089,-0.152 -0.082,-0.241l0.353,-4.198c0.014,-0.163 0.151,-0.289 0.316,-0.289l34.671,-0c0.088,-0 0.172,0.037 0.232,0.102c0.06,0.065 0.089,0.152 0.082,0.241l-0.354,4.197c-0.013,0.164 -0.149,0.29 -0.315,0.29Z" style="fill-rule:nonzero;stroke:#000;stroke-width:1.63px;" />
        <path d="M161.453,103.858l51.258,-0l0.301,-3.567l-51.259,0l-0.3,3.567Zm51.549,0.632l-51.893,-0c-0.089,-0 -0.174,-0.037 -0.233,-0.102c-0.061,-0.066 -0.091,-0.154 -0.082,-0.241l0.354,-4.199c0.013,-0.163 0.15,-0.289 0.315,-0.289l51.893,0c0.088,0 0.172,0.037 0.233,0.102c0.059,0.066 0.089,0.152 0.082,0.241l-0.354,4.199c-0.013,0.163 -0.151,0.289 -0.315,0.289Z" style="fill-rule:nonzero;stroke:#000;stroke-width:1.63px;" />
        <path d="M160.922,110.154l51.259,-0l0.3,-3.565l-51.26,-0l-0.299,3.565Zm51.55,0.632l-51.894,-0c-0.089,-0 -0.173,-0.037 -0.233,-0.102c-0.06,-0.064 -0.09,-0.152 -0.082,-0.241l0.353,-4.197c0.014,-0.163 0.151,-0.29 0.315,-0.29l51.895,-0c0.087,-0 0.172,0.038 0.232,0.103c0.06,0.064 0.089,0.152 0.082,0.239l-0.354,4.199c-0.013,0.163 -0.151,0.289 -0.314,0.289Z" style="fill-rule:nonzero;stroke:#000;stroke-width:1.63px;" />
        <path d="M160.392,116.452l51.259,-0l0.3,-3.567l-51.259,0l-0.3,3.567Zm51.549,0.632l-51.893,-0c-0.089,-0 -0.174,-0.037 -0.233,-0.103c-0.061,-0.065 -0.09,-0.153 -0.082,-0.24l0.353,-4.199c0.014,-0.163 0.151,-0.289 0.316,-0.289l51.893,0c0.089,0 0.172,0.037 0.233,0.102c0.059,0.066 0.089,0.152 0.082,0.241l-0.354,4.198c-0.014,0.164 -0.151,0.29 -0.315,0.29Z" style="fill-rule:nonzero;stroke:#000;stroke-width:1.63px;" />
        <path d="M204.54,121.329l-0.801,-2.665c-0.24,-1.187 2.174,-3.75 0.595,-4.465c-1.148,-0.521 -1.03,1.289 -2.66,1.584c-0.851,0.155 -1.788,-1.494 -1.935,-2.266c-0.507,-2.673 -1.661,-3.656 -2.683,-3.295c-1.021,0.361 -2.36,4.514 -0.536,7.437c1.823,2.923 5.494,5.379 5.494,5.379l2.526,-1.709Z" style="fill:#fff;fill-rule:nonzero;stroke:#000;stroke-width:1.63px;" />
        <path d="M197.465,110.466c-0.1,-0 -0.201,0.018 -0.303,0.053c-0.205,0.072 -0.55,0.515 -0.831,1.315c-0.509,1.456 -0.694,3.812 0.457,5.657c1.543,2.475 4.484,4.64 5.227,5.164l2.156,-1.458l-0.735,-2.443c-0.122,-0.594 0.207,-1.304 0.555,-2.055c0.322,-0.696 0.688,-1.485 0.528,-1.909c-0.03,-0.084 -0.096,-0.205 -0.315,-0.304c-0.328,-0.148 -0.427,-0.066 -0.787,0.417c-0.324,0.433 -0.767,1.025 -1.687,1.192c-1.093,0.199 -2.136,-1.652 -2.301,-2.519c-0.288,-1.515 -0.827,-2.598 -1.48,-2.972c-0.159,-0.092 -0.321,-0.138 -0.484,-0.138Zm4.549,12.888c-0.062,0 -0.123,-0.018 -0.177,-0.053c-0.152,-0.102 -3.748,-2.528 -5.586,-5.475c-1.27,-2.036 -1.071,-4.612 -0.517,-6.201c0.153,-0.436 0.577,-1.475 1.216,-1.701c0.439,-0.155 0.893,-0.11 1.315,0.131c0.835,0.48 1.453,1.658 1.785,3.403c0.147,0.773 1.025,2.115 1.567,2.015c0.676,-0.123 0.991,-0.544 1.294,-0.95c0.329,-0.437 0.735,-0.983 1.554,-0.612c0.321,0.145 0.539,0.367 0.648,0.659c0.25,0.671 -0.155,1.547 -0.547,2.394c-0.291,0.626 -0.59,1.274 -0.517,1.636l0.795,2.638c0.039,0.132 -0.012,0.275 -0.126,0.353l-2.528,1.708c-0.052,0.037 -0.114,0.055 -0.176,0.055Z" style="fill-rule:nonzero;stroke:#000;stroke-width:1.63px;" />
        <path d="M204.33,119.753l-3.65,2.201c-0.502,0.301 -0.753,0.893 -0.615,1.463c1.064,4.41 10.447,18.711 40.897,18.51c5.595,-0.035 7.835,-7.389 5.684,-12.553c-1.184,-2.84 -4.186,-4.449 -7.213,-3.906c-7.13,1.281 -24.313,5.481 -33.363,-5.409c-0.429,-0.516 -1.166,-0.652 -1.74,-0.306Z" style="fill:#fff;fill-rule:nonzero;stroke:#000;stroke-width:1.63px;" />
        <path d="M240.355,142.246c-12.708,0 -23.428,-2.617 -31.034,-7.58c-6.434,-4.198 -9.038,-9.001 -9.563,-11.176c-0.171,-0.705 0.134,-1.431 0.759,-1.807l3.649,-2.2c0.709,-0.427 1.612,-0.271 2.146,0.373c5.19,6.245 13.816,8.368 26.369,6.489c0.176,-0.025 0.334,0.095 0.359,0.267c0.026,0.172 -0.093,0.333 -0.266,0.36c-12.79,1.914 -21.605,-0.282 -26.949,-6.711c-0.332,-0.402 -0.894,-0.501 -1.331,-0.237l-3.651,2.2c-0.387,0.233 -0.576,0.682 -0.472,1.118c1.152,4.767 10.966,18.272 39.973,18.272c0.205,-0 0.409,-0.001 0.617,-0.003l0.001,0c0.175,0 0.316,0.141 0.317,0.315c0,0.175 -0.139,0.317 -0.314,0.319c-0.203,0.001 -0.408,0.001 -0.61,0.001Z" style="fill-rule:nonzero;stroke:#000;stroke-width:1.63px;" />
        <path d="M153.488,220.251l24.921,0c-0,0 3.417,20.781 -11.457,22.44c-14.874,1.659 -13.464,-22.44 -13.464,-22.44Z" style="fill:#fff;fill-rule:nonzero;stroke:#000;stroke-width:1.63px;" />
        <path d="M153.791,220.567c-0.071,2.053 -0.233,14.139 5.321,19.407c2.049,1.944 4.673,2.751 7.805,2.402c3.452,-0.385 6.177,-1.866 8.1,-4.404c4.441,-5.863 3.352,-15.671 3.118,-17.405l-24.344,0Zm11.735,22.522c-2.689,-0 -4.987,-0.89 -6.85,-2.658c-6.262,-5.941 -5.538,-19.62 -5.504,-20.198c0.009,-0.168 0.148,-0.298 0.316,-0.298l24.921,0c0.153,0 0.286,0.112 0.311,0.264c0.077,0.469 1.825,11.525 -3.199,18.154c-2.032,2.682 -4.903,4.248 -8.534,4.653c-0.499,0.055 -0.986,0.083 -1.461,0.083Z" style="fill-rule:nonzero;stroke:#000;stroke-width:1.63px;" />
        <path d="M160.96,215.17c-1.781,0.052 -5.576,0.11 -9.148,-2.324c-1.322,-0.901 -4.952,-3.373 -4.612,-6.625c0.29,-2.789 3.415,-5.356 7.655,-5.818c-5.031,0.597 -9.079,-3.174 -9.084,-7.069c-0.006,-2.984 2.361,-5.948 5.86,-6.928c-5.423,-4.097 -8.27,-10.701 -7.37,-17.254c0.876,-6.374 5.291,-12.647 11.952,-14.584c0.838,-0.244 8.078,-2.228 13.292,2.215c4.377,3.728 4.425,9.514 4.458,13.457c0.058,7.017 -2.756,12.348 -4.458,15.024c0.356,-0.025 3.953,-1.207 7.317,1.779c3.426,3.046 3.596,10.044 1.925,12.813c-1.748,2.899 -5.96,2.285 -6.711,2.497c3.152,2.782 3.042,5.101 3.007,5.539c-0.357,4.525 -8.564,7.117 -14.083,7.278Z" style="fill:#fff;fill-rule:nonzero;stroke:#000;stroke-width:1.63px;" />
        <path d="M154.794,200.729c-3.875,0.454 -6.997,2.817 -7.28,5.525c-0.32,3.064 3.165,5.437 4.475,6.331c3.56,2.425 7.346,2.315 8.962,2.269c5.418,-0.158 13.443,-2.737 13.777,-6.988c0.047,-0.595 -0.024,-2.737 -2.901,-5.276c-0.087,-0.076 -0.125,-0.195 -0.098,-0.308c0.025,-0.112 0.11,-0.203 0.221,-0.234c0.192,-0.053 0.5,-0.062 0.926,-0.075c1.502,-0.043 4.3,-0.125 5.6,-2.281c1.63,-2.701 1.438,-9.479 -1.865,-12.412c-1.92,-1.705 -4.219,-2.294 -6.829,-1.746c-0.124,0.025 -0.21,0.042 -0.255,0.045c-0.122,0.007 -0.233,-0.051 -0.294,-0.154c-0.061,-0.101 -0.059,-0.23 0.004,-0.331c2.042,-3.208 4.464,-8.389 4.409,-14.851c-0.031,-3.817 -0.079,-9.584 -4.347,-13.221c-4.94,-4.208 -11.693,-2.531 -12.997,-2.151c-6.08,1.768 -10.794,7.525 -11.728,14.325c-0.881,6.416 1.895,12.914 7.247,16.957c0.096,0.074 0.143,0.193 0.12,0.312c-0.022,0.118 -0.11,0.213 -0.225,0.245c-3.266,0.916 -5.635,3.701 -5.629,6.623c0.003,1.735 0.852,3.483 2.332,4.795c1.694,1.504 3.987,2.22 6.304,1.972c0.033,-0.004 0.065,-0.007 0.098,-0.011c0.173,-0.017 0.328,0.106 0.348,0.279c0.02,0.174 -0.104,0.329 -0.276,0.35c-0.033,0.004 -0.067,0.007 -0.099,0.011Zm6.166,14.441l0.003,-0l-0.003,-0Zm-0.959,0.333c-1.961,-0 -5.235,-0.261 -8.367,-2.396c-1.397,-0.951 -5.109,-3.48 -4.749,-6.92c0.253,-2.423 2.387,-4.532 5.382,-5.541c-1.584,-0.278 -3.065,-0.978 -4.269,-2.044c-1.614,-1.434 -2.541,-3.352 -2.545,-5.268c-0.004,-3.022 2.28,-5.901 5.509,-7.048c-5.22,-4.201 -7.9,-10.728 -7.014,-17.176c0.968,-7.044 5.86,-13.01 12.176,-14.847c1.359,-0.395 8.399,-2.142 13.586,2.278c4.488,3.823 4.537,9.766 4.569,13.697c0.053,6.22 -2.133,11.277 -4.129,14.585c2.611,-0.418 4.926,0.248 6.882,1.985c3.514,3.122 3.72,10.335 1.986,13.212c-1.478,2.45 -4.616,2.542 -6.124,2.586c-0.039,0.001 -0.079,0.002 -0.117,0.002c2.5,2.445 2.644,4.503 2.582,5.308c-0.37,4.676 -8.593,7.402 -14.389,7.57c-0.269,0.007 -0.595,0.017 -0.969,0.017Z" style="fill-rule:nonzero;stroke:#000;stroke-width:1.63px;" />
        <path d="M162.762,218.251c-0.014,-0 -0.028,-0.002 -0.042,-0.004c-0.174,-0.023 -0.295,-0.182 -0.273,-0.356c3.18,-23.476 -4.247,-49.966 -4.322,-50.23c-0.048,-0.168 0.049,-0.343 0.217,-0.391c0.166,-0.048 0.343,0.049 0.391,0.217c0.076,0.266 7.539,26.878 4.342,50.49c-0.022,0.158 -0.158,0.274 -0.313,0.274Z" style="fill-rule:nonzero;stroke:#000;stroke-width:1.63px;" />
        <path d="M166.349,216.252c-0.565,-1.384 -3.016,-7.779 0.163,-13.167c0.653,-1.107 2.84,-4.813 6.014,-4.551c2.367,0.195 3.86,2.479 4.188,3.009c-0.953,-3.476 0.759,-6.994 3.615,-8.21c3.376,-1.438 7.861,0.55 9.103,4.713c0.834,-0.237 3.087,-0.749 5.364,0.326c2.997,1.413 4.8,4.995 4.389,8.94c-1.247,4.231 -5.113,6.821 -8.778,6.34c-3.981,-0.524 -5.881,-4.43 -6.014,-4.715c0.621,0.976 1.534,2.789 0.975,4.553c-0.938,2.959 -5.597,4.429 -8.94,3.574c-3.105,-0.791 -4.004,-3.313 -6.502,-3.088c-1.647,0.15 -2.868,1.388 -3.577,2.276Z" style="fill:#fff;fill-rule:nonzero;stroke:#000;stroke-width:1.63px;" />
        <path d="M170.236,213.646c1.281,0 2.174,0.683 3.117,1.402c0.876,0.669 1.78,1.36 3.153,1.71c3.14,0.803 7.659,-0.519 8.56,-3.364c0.38,-1.198 0.03,-2.447 -0.473,-3.461c-0.304,-0.477 -0.465,-0.814 -0.486,-0.862c-0.071,-0.151 -0.013,-0.33 0.134,-0.411c0.145,-0.08 0.328,-0.033 0.419,0.108c0.168,0.264 0.337,0.556 0.494,0.87c0.775,1.209 2.511,3.334 5.294,3.699c3.634,0.478 7.247,-2.137 8.425,-6.087c0.383,-3.771 -1.309,-7.222 -4.212,-8.593c-2.033,-0.96 -4.094,-0.604 -5.143,-0.306c-0.167,0.046 -0.34,-0.048 -0.389,-0.215c-0.568,-1.906 -1.92,-3.48 -3.707,-4.32c-1.638,-0.77 -3.45,-0.84 -4.969,-0.193c-2.805,1.194 -4.313,4.636 -3.434,7.837c0.042,0.151 -0.034,0.31 -0.178,0.372c-0.144,0.064 -0.311,0.012 -0.395,-0.122c-0.499,-0.803 -1.882,-2.691 -3.946,-2.861c-1.975,-0.163 -3.898,1.316 -5.716,4.397c-2.693,4.565 -1.281,9.884 -0.334,12.396c1.073,-1.204 2.231,-1.87 3.448,-1.98c0.115,-0.01 0.228,-0.016 0.338,-0.016Zm8.17,3.97c-0.715,0 -1.414,-0.08 -2.057,-0.244c-1.497,-0.382 -2.497,-1.147 -3.38,-1.821c-1.002,-0.765 -1.796,-1.37 -3.015,-1.26c-1.17,0.106 -2.3,0.832 -3.358,2.158c-0.07,0.088 -0.18,0.133 -0.292,0.116c-0.111,-0.016 -0.206,-0.089 -0.248,-0.193c-0.954,-2.334 -2.845,-8.314 0.183,-13.448c1.953,-3.306 4.076,-4.891 6.312,-4.705c1.604,0.132 2.826,1.142 3.616,2.05c-0.267,-3.071 1.346,-6.082 4.038,-7.227c1.685,-0.718 3.685,-0.645 5.486,0.202c1.858,0.872 3.283,2.473 3.95,4.42c1.199,-0.295 3.251,-0.542 5.289,0.421c3.155,1.489 4.99,5.21 4.57,9.259c-0.003,0.02 -0.006,0.038 -0.012,0.057c-1.255,4.26 -5.177,7.08 -9.122,6.564c-2.038,-0.268 -3.555,-1.392 -4.586,-2.497c0.123,0.684 0.116,1.404 -0.11,2.116c-0.813,2.563 -4.199,4.032 -7.264,4.032Z" style="fill-rule:nonzero;stroke:#000;stroke-width:1.63px;" />
        <path d="M166.1,217.981c-0.019,0 -0.037,-0.001 -0.055,-0.005c-0.172,-0.03 -0.288,-0.195 -0.257,-0.366c0.071,-0.4 1.833,-9.831 10.643,-13.182c6.327,-2.407 12.007,-0.001 13.598,0.793c0.155,0.078 0.219,0.268 0.141,0.425c-0.077,0.155 -0.268,0.218 -0.424,0.141c-1.533,-0.765 -7.003,-3.083 -13.089,-0.768c-8.481,3.224 -10.178,12.315 -10.247,12.701c-0.027,0.153 -0.159,0.261 -0.31,0.261Z" style="fill-rule:nonzero;stroke:#000;stroke-width:1.63px;" />
    </g>
</svg>