<?xml version="1.0" encoding="UTF-8" standalone="no"?><!DOCTYPE svg PUBLIC "-//W3C//DTD SVG 1.1//EN" "http://www.w3.org/Graphics/SVG/1.1/DTD/svg11.dtd"><svg width="100%" height="100%" viewBox="0 0 992 808" version="1.1" xmlns="http://www.w3.org/2000/svg" xmlns:xlink="http://www.w3.org/1999/xlink" xml:space="preserve" xmlns:serif="http://www.serif.com/" style="fill-rule:evenodd;clip-rule:evenodd;stroke-linejoin:round;stroke-miterlimit:2;"><path id="productivity" d="M686.411,805.886c-1.64,-1.64 -1.64,-1.714 0.09,-23.222c0.841,-10.445 0.876,-18.707 0.082,-19.198c-0.333,-0.206 -7.702,-1.544 -16.374,-2.974c-17.096,-2.819 -18.58,-3.206 -20.809,-5.436c-4.456,-4.456 -0.074,-8.912 17.789,-18.089c4,-2.055 8.216,-4.498 9.368,-5.427c2.482,-2.003 2.537,-3.161 0.837,-17.598c-1.522,-12.916 -0.471,-17.827 3.812,-17.821c2.946,0.007 5.87,2.086 14.148,10.075c8.883,8.574 13.175,12.218 15.114,12.833c1.748,0.555 8.095,-2.192 17.382,-7.524c10.348,-5.94 18.607,-9.706 22.171,-10.107c2.822,-0.318 3.346,-0.143 4.401,1.466c2.049,3.128 1.552,4.272 -11.902,27.387l-5.243,9.009l1.805,4.065c2.39,5.382 2.921,7.577 5.53,22.843c2.692,15.756 2.796,18.915 0.671,20.403c-2.573,1.802 -5.256,0.111 -20.757,-13.082c-6.618,-5.633 -11.003,-8.675 -11.617,-8.06c-0.238,0.238 -4.459,8.788 -9.38,19.001c-4.922,10.213 -9.652,19.558 -10.512,20.765c-1.861,2.614 -4.416,2.881 -6.606,0.691l0,-0Zm-469.755,-19.935c-2.198,-2.649 -0.479,-3.725 19.624,-12.288c7,-2.982 22.709,-9.992 34.909,-15.578c12.2,-5.586 26.928,-12.204 32.728,-14.706c5.8,-2.503 15.586,-6.96 21.747,-9.905c6.162,-2.946 11.772,-5.356 12.468,-5.356c1.652,0 2.419,2.071 1.277,3.446c-1.061,1.279 -16.656,8.852 -47.129,22.887c-12.2,5.619 -32.818,15.118 -45.818,21.107c-13,5.99 -24.795,11.055 -26.212,11.256c-1.858,0.263 -2.859,0.022 -3.594,-0.863Zm144.621,-59.651c-11.86,-3.818 -14.007,-20.056 -6.446,-48.757c2.848,-10.814 14.055,-45.265 15.869,-48.785c3.805,-7.385 10.732,-12.896 25.426,-20.23c5.315,-2.653 9.487,-5.109 9.272,-5.457c-0.216,-0.349 -1.004,-0.474 -1.752,-0.279c-0.747,0.196 -2.471,0.049 -3.83,-0.326c-2.269,-0.627 -24.958,-16.639 -42.445,-29.955c-4,-3.046 -7.628,-5.757 -8.063,-6.026c-0.452,-0.279 -2.401,1.634 -4.56,4.472c-4.754,6.254 -17.689,18.84 -24.831,24.161c-24.095,17.953 -49.465,27.892 -85.455,33.48c-12.203,1.894 -44.427,2.657 -58.662,1.388c-14.088,-1.255 -28.257,-3.394 -41.228,-6.221c-43.674,-9.522 -76.769,-11.303 -106.937,-5.756c-9.151,1.683 -9.817,1.717 -11.091,0.565c-3.475,-3.145 -0.776,-5.918 11.747,-12.071c5.394,-2.651 12.578,-6.682 15.965,-8.959c23.233,-15.62 44.621,-41.38 66.028,-79.523c2.608,-4.647 10.097,-18.067 16.644,-29.824c13.542,-24.322 17.343,-29.942 26.272,-38.846c14.878,-14.838 31.594,-23.964 54.104,-29.539c17.226,-4.265 38.273,-5.668 63.158,-4.209l9.818,0.576l0.091,-7.849c0.2,-17.405 3.923,-30.106 12.397,-42.297c1.771,-2.547 3.029,-4.822 2.796,-5.055c-0.232,-0.232 -4.094,0.671 -8.581,2.007c-19.653,5.855 -20.237,5.98 -28.158,6.057c-7.047,0.069 -8.085,-0.11 -13.454,-2.308c-14.288,-5.849 -31.531,-18.178 -48.217,-34.477c-4.593,-4.486 -6.677,-7.196 -8.727,-11.342c-2.591,-5.243 -2.692,-5.738 -2.692,-13.123c-0,-9.556 1.375,-12.812 8.31,-19.681c5.909,-5.851 12.452,-9.341 27.69,-14.765c6.2,-2.208 20.272,-7.328 31.272,-11.379c41.391,-15.243 59.748,-20.703 83.324,-24.786c9.774,-1.692 25.167,-2.011 33.479,-0.693c18.469,2.929 35.862,10.531 54.853,23.978c6.591,4.666 15.312,11.496 16.444,12.878c0.686,0.837 2.364,0.237 9.818,-3.511c4.945,-2.487 13.867,-6.672 19.826,-9.3c7.014,-3.093 11.315,-5.422 12.194,-6.603c0.747,-1.004 2.327,-5.519 3.511,-10.033c4.176,-15.915 13.961,-37.357 22.431,-49.153c11.03,-15.361 27.434,-29.279 42.438,-36.007c37.376,-16.76 78.548,-8.326 109.706,22.472c4.654,4.6 10.24,10.45 12.415,13c2.939,3.447 4.416,4.627 5.757,4.599c0.992,-0.02 8.677,-0.743 17.077,-1.606c19.18,-1.971 57.168,-2.729 76.727,-1.531c48.813,2.991 91.817,17.454 132.909,44.701c9.181,6.088 11.091,7.655 11.091,9.1c0,1.591 -5.786,16.591 -10.559,27.374c-8.156,18.424 -21.391,42.021 -33.652,60c-5.637,8.265 -17.907,24.624 -22.22,29.626c-11.111,12.883 -18.574,21.081 -26.73,29.358c-57.183,58.039 -137.253,108.327 -242.111,152.061c-8.6,3.587 -16.194,7.024 -16.875,7.638c-0.681,0.614 -1.593,2.961 -2.027,5.216c-6.914,35.939 -17.512,64.764 -29.851,81.194c-20.681,27.537 -50.354,46.519 -102.884,65.814c-15.616,5.736 -44.337,15.702 -50.545,17.538c-6.572,1.945 -14.083,2.359 -18.276,1.009l0,0Zm-129.724,-104.351c34.97,-4.527 63.558,-15.726 85.968,-33.675c9.075,-7.27 24.915,-24.556 24.935,-27.212c-0,-0.481 -4.08,-5.43 -9.073,-10.998l-9.079,-10.124l-4.194,0.994c-6.467,1.532 -20.922,3.185 -27.808,3.18c-13.094,-0.009 -27.117,-3.424 -36.053,-8.779c-6.775,-4.059 -12.981,-10.539 -14.496,-15.134c-4.607,-13.971 8.166,-30.198 38.786,-49.272l7.887,-4.913l-1.337,-5.131c-2.325,-8.93 -4.179,-19.726 -6.138,-35.755l-0.366,-2.989l-4.88,-0.465c-11.566,-1.103 -28.128,-1.329 -39.061,-0.532c-46.775,3.407 -74.646,20.675 -99.298,61.52c-2.897,4.8 -10.407,18.218 -16.689,29.818c-6.283,11.6 -12.733,23.218 -14.334,25.818c-12.992,21.095 -22.458,33.208 -37.295,47.72c-6.439,6.297 -18.548,16.245 -24.945,20.491c-1.508,1.001 -2.628,1.934 -2.488,2.073c0.139,0.14 3.5,-0.046 7.469,-0.413c6.731,-0.621 29.685,-0.465 33.761,0.23c1,0.171 3.946,0.518 6.546,0.772c7.573,0.739 21.541,3.071 41.454,6.923c23.878,4.619 34.911,6.186 53.455,7.591c9.153,0.694 36.157,-0.299 47.273,-1.738l-0,-0Zm180.884,-27.329c85.449,-11.813 224.25,-69.803 324.207,-135.449c19.036,-12.503 49.229,-35.371 55.041,-41.691l1.587,-1.725l-6.962,-8c-39.469,-45.351 -57.198,-72.595 -67.206,-103.273c-2.751,-8.435 -7.755,-34.818 -9.656,-50.909c-2.048,-17.343 -0.435,-39.597 3.632,-50.118c0.516,-1.335 0.217,-1.371 -7.404,-0.908c-12.311,0.748 -23.578,2.103 -23.578,2.836c0,0.365 1.271,2.848 2.825,5.518c9.212,15.834 13.589,35.618 11.745,53.093c-1.282,12.152 -4.402,24.219 -8.804,34.05l-2.001,4.47l2.187,2.075c1.203,1.141 4.445,5.069 7.205,8.729c17.421,23.103 20.921,52.673 9.585,80.982c-5.058,12.633 -12.26,23.328 -22.284,33.091c-11.267,10.975 -22.615,17.787 -36.179,21.717c-11.869,3.44 -21.032,4.087 -32.642,2.305c-17.039,-2.614 -33.275,-10.672 -46.003,-22.833c-13.686,-13.075 -21.808,-27.041 -26.282,-45.189c-2.041,-8.281 -3.381,-21.657 -2.897,-28.92c0.353,-5.297 0.584,-4.993 -9.182,-12.046c-6.348,-4.585 -18.842,-16.491 -23.409,-22.307c-3.785,-4.821 -8.781,-12.752 -11.714,-18.595c-5.088,-10.137 -9.968,-28.155 -9.968,-36.806c0,-1.529 -0.308,-2.78 -0.685,-2.78c-0.944,-0 -26.869,12.314 -44.636,21.203c-26.776,13.396 -50.55,26.248 -71.77,38.801c-18.641,11.027 -24.202,14.531 -45.322,28.551c-22.421,14.884 -24.089,16.426 -28.901,26.717c-7.369,15.759 -8.763,33.412 -4.625,58.546c1.115,6.775 5.327,26.307 5.777,26.791c0.126,0.135 6.391,-2.765 13.923,-6.444c68.942,-33.675 108.139,-46.916 152.966,-51.673c19.078,-2.025 55.247,0.128 65.007,3.87l2.098,0.804l-0.43,5.585c-0.845,10.954 -7.066,25.444 -15.191,35.382c-25.892,31.669 -72.416,55.732 -157.137,81.275c-12.31,3.711 -22.582,6.948 -22.828,7.194c-0.688,0.688 7.322,10.122 13.491,15.89c7.778,7.271 17.112,14.669 33.536,26.578c7.8,5.656 15.327,11.275 16.727,12.486c3.032,2.623 4.562,2.73 16.157,1.127Zm-125.08,-97.693c8.908,-3.956 27.16,-12.176 40.56,-18.266c13.4,-6.091 31.236,-13.989 39.636,-17.55c27.75,-11.767 31.329,-13.542 29.993,-14.878c-0.742,-0.742 -10.038,1.006 -16.449,3.093c-5.27,1.716 -10.645,4.063 -42.635,18.614c-17.51,7.965 -60.067,27.561 -66.727,30.725c-2.695,1.281 -4.182,2.431 -4.182,3.235c-0,3.515 1.586,3.117 19.804,-4.973Zm356.196,-52.462c16.299,-4.767 33.686,-16.878 44.537,-31.021c7.523,-9.806 13.687,-23.106 16.29,-35.144c2.013,-9.312 1.861,-25.868 -0.317,-34.502c-2.886,-11.443 -9.38,-23.388 -17.799,-32.739c-3.09,-3.431 -3.27,-3.525 -3.771,-1.947c-0.416,1.309 0.183,2.56 2.846,5.95c16.853,21.451 18.739,51.361 4.974,78.875c-8.285,16.56 -21.838,30.515 -36.942,38.035c-12.954,6.449 -22.596,8.645 -34.772,7.918c-9.104,-0.543 -16.048,-2.438 -24.748,-6.754c-26.808,-13.297 -44.722,-42.307 -43.8,-70.927l0.225,-7.001l-2.477,-1.181c-1.362,-0.65 -2.838,-1.181 -3.279,-1.181c-0.565,-0 -0.686,3.162 -0.41,10.727c0.3,8.245 0.826,12.399 2.272,17.95c2.388,9.166 9.051,22.973 14.765,30.595c4.584,6.115 12.882,14.57 18.406,18.754c8.694,6.586 20.915,12.228 31.729,14.648c7.419,1.661 24.946,1.088 32.271,-1.055l-0,0Zm-3.636,-13.771c15.448,-5.107 28.636,-15.05 38.742,-29.213c6.005,-8.415 11.53,-21.24 12.64,-29.342l0.452,-3.293l-3.32,-0c-3.045,-0 -5.605,-1.289 -5.605,-2.822c-0,-1.805 2.122,-2.954 5.818,-3.149l4,-0.211l-0.146,-7.329c-0.178,-8.927 -1.543,-15.805 -4.588,-23.121c-2.082,-5.001 -2.44,-5.46 -3.722,-4.774c-0.779,0.417 -2.059,0.577 -2.844,0.355c-0.785,-0.222 -2.082,-0.59 -2.882,-0.817c-1.331,-0.377 -1.455,-0.065 -1.455,3.667c0,32.149 -34.373,61.171 -72.133,60.903c-8.775,-0.062 -19.545,-2.473 -25.222,-5.646c-1.776,-0.993 -3.336,-1.699 -3.466,-1.569c-0.582,0.583 -5.915,12.82 -6.787,15.576c-0.932,2.944 -0.889,3.171 1.098,5.818c3.713,4.948 12.242,13.405 16.329,16.192c4.003,2.73 13.098,7.588 13.396,7.156c0.088,-0.126 0.701,-2.241 1.364,-4.7c1.921,-7.132 4.112,-12.451 5.319,-12.914c1.4,-0.537 3.604,0.601 4.207,2.173c0.252,0.655 -0.497,4.182 -1.664,7.838c-3.305,10.358 -3.334,10.125 1.378,11.171c2.438,0.542 7.548,0.78 13.091,0.612c7.782,-0.237 10.085,-0.605 16,-2.561l-0,0Zm-70.979,-45.704l2.839,-5.826l-1.702,-4.195c-0.987,-2.431 -1.779,-6.046 -1.883,-8.598l-0.18,-4.403l-5.184,-1.728c-2.851,-0.95 -5.375,-1.537 -5.608,-1.304c-0.936,0.936 -1.068,7.993 -0.254,13.562c0.835,5.71 3.011,13.303 5.5,19.188l1.201,2.84l1.216,-1.855c0.668,-1.02 2.493,-4.476 4.055,-7.681l-0,0Zm52.433,-1.523c10.313,-2.536 21.069,-7.822 29.324,-14.412c7.886,-6.295 12.233,-11.719 16.248,-20.276c2.817,-6.004 3.065,-7.033 3.379,-14.027c0.279,-6.216 0.161,-7.49 -0.67,-7.218c-2.207,0.723 -6.362,7.528 -8.65,14.164c-5.595,16.231 -20.412,28.735 -40.473,34.155c-3.637,0.983 -7.53,1.346 -14.468,1.35l-9.493,0.006l-5.572,-2.754c-4.215,-2.083 -6.142,-3.547 -7.909,-6.007c-1.704,-2.372 -3.092,-3.455 -5.133,-4.005c-3.54,-0.953 -4.269,-0.484 -3.779,2.431c1.186,7.056 5.701,13.025 11.772,15.561c8.228,3.438 23.796,3.892 35.424,1.032l0,0Zm-4.679,-13.472c9.718,-1.734 19.959,-6.938 27.018,-13.728c3.709,-3.57 9.297,-10.809 9.297,-12.045c0,-0.471 -6.463,3.526 -14.363,8.882c-14.959,10.141 -17.637,11.6 -17.637,9.609c0,-0.911 -0.913,-1.145 -4.545,-1.165c-8.949,-0.05 -21.462,-3.317 -23.884,-6.237c-1.146,-1.38 -2.85,-1.269 -4.013,0.262c-2.188,2.882 -1.355,3.587 4.732,4.004c4.044,0.277 7.056,0.982 10.172,2.38c4.985,2.237 6.936,3.921 4.718,4.072c-0.749,0.051 -4.961,0.296 -9.361,0.546c-7.452,0.421 -7.876,0.525 -6.182,1.509c4.736,2.753 14.831,3.555 24.048,1.911l0,-0Zm-33.868,-16.604l2.582,-3.818l-1.566,-1.284c-1.956,-1.603 -2.881,-0.944 -5.769,4.112c-2.279,3.99 -2.208,4.808 0.415,4.808c1.305,0 2.418,-0.979 4.338,-3.818Zm-10.473,-1.818c1.277,-1.9 3.23,-4.436 4.34,-5.636l2.018,-2.182l-5.356,-5.818c-5.346,-5.808 -5.358,-5.816 -6.79,-4.364c-3.197,3.24 -9.098,16.337 -7.9,17.534c0.577,0.577 9.378,3.834 10.491,3.883c0.481,0.02 1.919,-1.517 3.197,-3.417Zm-14.843,-13.657c2.925,-5.161 5.318,-9.904 5.318,-10.539c-0,-0.635 -1.084,-2.205 -2.408,-3.489l-2.407,-2.333l-3.665,4.918c-2.016,2.705 -4.241,6.035 -4.945,7.4c-1.071,2.077 -4.03,9.936 -4.03,10.705c0,0.491 5.489,3.099 6.137,2.915c0.375,-0.106 3.075,-4.416 6,-9.577Zm86.486,4.911c2.442,-1.89 5.935,-4.581 7.762,-5.981c4.357,-3.34 5.075,-4.916 3.612,-7.937c-1.213,-2.504 -5.968,-6.223 -6.811,-5.327c-0.399,0.424 -8.296,17.846 -9.886,21.809c-0.655,1.634 0.809,0.929 5.323,-2.564Zm-102.987,-2.727c0,-1.903 4.75,-10.636 9.013,-16.573c3.306,-4.604 3.943,-5.939 3.357,-7.034c-1.233,-2.304 -4.297,-4.252 -8.603,-5.469c-9.935,-2.81 -14.241,-4.874 -18.047,-8.653c-3.13,-3.107 -3.871,-4.366 -4.574,-7.777c-0.852,-4.137 -0.339,-8.55 1.451,-12.48c0.71,-1.558 -0.049,-3.202 -6.99,-15.145c-4.283,-7.368 -8.202,-13.839 -8.708,-14.381c-0.769,-0.823 -2.196,-0.468 -8.637,2.146l-7.716,3.131l-0,6.43c-0,24.725 15.93,53.129 39.885,71.115c7.787,5.847 9.569,6.72 9.569,4.69Zm124.289,-16.734c1.241,-1.414 2.257,-2.862 2.257,-3.217c-0,-1.345 -3.934,-5.244 -6.73,-6.67c-1.601,-0.817 -4.62,-1.661 -6.709,-1.877c-3.536,-0.365 -3.831,-0.273 -4.261,1.335c-0.833,3.113 -0.559,4.272 1.009,4.272c2.473,0 5.38,1.905 8.25,5.409c1.496,1.825 2.992,3.319 3.323,3.319c0.332,-0 1.619,-1.157 2.861,-2.571Zm-49.113,-1.846c1.054,-0.83 2.766,-2.959 3.806,-4.732c2.055,-3.507 4.306,-4.57 6.823,-3.222c2.178,1.165 6.802,0.26 8.583,-1.68c1.959,-2.134 2.592,-5.585 1.66,-9.046c-1.057,-3.925 -2.946,-5.449 -6.692,-5.397c-2.501,0.034 -4.178,0.805 -9.098,4.182c-11.432,7.845 -14.891,12.302 -13.233,17.056c0.707,2.029 3.494,4.248 5.423,4.317c0.446,0.016 1.673,-0.649 2.728,-1.478Zm-1.357,-10.856c-0.696,-1.126 0.282,-2.18 2.043,-2.201c0.876,-0.01 3.778,-0.763 6.449,-1.674l4.856,-1.655l-1.459,2.049c-0.802,1.126 -2.398,2.534 -3.547,3.128c-2.369,1.225 -7.665,1.449 -8.342,0.353Zm64.544,7.858c-1.3,-1.301 -1.742,-1.402 -2.687,-0.618c-1.72,1.427 -1.368,2.099 1.234,2.356c3.124,0.31 3.296,0.104 1.453,-1.738Zm-6.726,-5.26c-0,-1.877 -16.007,-10.596 -19.455,-10.598c-0.935,0 -1.636,0.446 -1.636,1.042c-0,1.101 0.847,1.453 5.302,2.205c4.16,0.703 8.548,2.836 11.789,5.73c3.199,2.857 4,3.182 4,1.621Zm-76.59,-1.525c2.384,-0.989 4.06,-3.246 8.15,-10.972c3.456,-6.528 6.948,-9.647 11.629,-10.387c2.094,-0.331 4.092,-0.893 4.439,-1.249c0.361,-0.37 -0.851,-2.67 -2.833,-5.374c-8.212,-11.205 -29.124,-42.981 -29.676,-45.095c-0.441,-1.687 1.547,-3.093 9.244,-6.539c7.26,-3.25 15.251,-4.712 16.318,-2.986c0.53,0.857 -0.562,1.422 -11.301,5.844c-9.032,3.719 -8.831,3.291 -4.693,9.97c1.947,3.143 8.446,13.832 14.441,23.752c8.606,14.239 11.147,17.934 12.068,17.547c4.981,-2.093 5.062,-2.097 9.994,-0.493c2.672,0.868 5.168,1.388 5.545,1.155c1.455,-0.899 2.818,-5.73 3.219,-11.411c0.38,-5.39 0.204,-6.551 -1.948,-12.835c-4.039,-11.795 -9.401,-21.429 -19.136,-34.387c-3.241,-4.313 -6.573,-8.012 -7.405,-8.221c-0.832,-0.209 -2.975,-0.043 -4.762,0.369c-5.387,1.241 -18.606,0.922 -27.307,-0.659c-10.221,-1.858 -15.565,-1.878 -19.061,-0.072c-1.485,0.767 -5.481,3.631 -8.881,6.364c-4.91,3.947 -6.705,5.942 -8.727,9.697c-2.51,4.661 -2.544,4.844 -2.457,13.091c0.103,9.797 2.055,18.662 6.663,30.256c5.263,13.242 11.931,22.476 20.393,28.244c7.274,4.959 11.65,6.345 18.31,5.8c3,-0.246 6.498,-0.88 7.774,-1.409Zm-20.466,-50.169c-2.882,-3.517 -3.126,-5.681 -0.681,-6.032c2.143,-0.307 6.1,4.333 6.1,7.153c0,3.234 -2.229,2.772 -5.419,-1.121Zm-18.738,-9.287c4.654,-4.802 17.043,-10.711 22.339,-10.654c1.659,0.018 -0.872,1.575 -10.545,6.491c-7,3.558 -13.037,6.486 -13.416,6.507c-0.378,0.021 0.352,-1.033 1.622,-2.344Zm47.896,-3.729c-3.766,-4.938 -4.31,-8.434 -1.313,-8.434c1.408,0 4.555,4.06 5.531,7.136c0.503,1.586 -0.527,3.773 -1.777,3.773c-0.304,0 -1.402,-1.114 -2.441,-2.475Zm72.843,56.875c1.468,-1.467 1,-2.29 -2.956,-5.203c-6.855,-5.046 -20.484,-11.245 -22.784,-10.362c-1.268,0.486 -1.347,3.65 -0.114,4.59c0.5,0.381 3.363,1.576 6.363,2.655c3,1.079 8.237,3.582 11.637,5.562c6.945,4.044 6.666,3.946 7.854,2.758l0,0Zm-135.07,-1.69c-0.08,-1.091 -12.393,-17.073 -13.154,-17.073c-1.06,-0 -2.176,2.604 -2.176,5.079c0,4.152 2.915,8.011 7.996,10.582c4.568,2.313 7.441,2.866 7.334,1.412Zm-310.966,-7.953c8.4,-3.476 23.454,-9.053 33.454,-12.393c27.635,-9.228 42.641,-12.715 81.455,-18.928c1.2,-0.192 3.292,-1.026 4.649,-1.854c2.298,-1.401 2.385,-1.587 1.26,-2.711c-4.611,-4.612 -49.191,2.933 -83.727,14.17c-19.896,6.474 -53.906,20.324 -57.273,23.324c-2.648,2.359 -0.899,5.592 2.727,5.044c1.2,-0.182 9.055,-3.175 17.455,-6.652Zm450.904,0.343c2.114,-4.087 6.092,-17.178 7.31,-24.051c1.681,-9.494 1.557,-24.487 -0.273,-33.049c-0.77,-3.6 -2.532,-9.551 -3.915,-13.225c-2.676,-7.107 -8.692,-17.682 -10.813,-19.007c-0.955,-0.596 -3.354,-0.43 -9.517,0.659c-4.533,0.801 -13.805,2.426 -20.605,3.612c-6.8,1.185 -13.509,2.525 -14.909,2.976c-2.239,0.722 -9.362,4.023 -10.086,4.674c-0.148,0.133 1.695,2.466 4.094,5.185c11.786,13.357 20.884,31.751 24.928,50.399c0.911,4.2 2.014,8.011 2.451,8.469c0.437,0.457 2.75,1.388 5.14,2.068c5.992,1.703 13.601,5.481 19.655,9.758c2.8,1.978 5.164,3.621 5.254,3.651c0.089,0.03 0.669,-0.924 1.287,-2.119l-0.001,0Zm-161.343,-35.715c-3.258,-7.401 -4.378,-12.353 -4.425,-19.566c-0.038,-5.736 0.22,-7.404 1.517,-9.819c2.293,-4.271 6.736,-9.032 12.563,-13.463c6.017,-4.574 7.089,-7.073 1.693,-3.945c-10.139,5.876 -16.284,12.127 -18.116,18.428c-1.526,5.248 -1.016,14.924 1.094,20.77c1.535,4.252 6.453,12.476 7.084,11.845c0.176,-0.176 -0.458,-2.089 -1.41,-4.25Zm-22.51,-12.249c7.733,-3.152 8.221,-3.49 8.23,-5.707c0.012,-2.396 1.569,-8.199 3.263,-12.156c1.409,-3.288 6.819,-11.075 8.844,-12.73c24.259,-19.813 34.374,-26.433 50.066,-32.763c16.325,-6.587 25.804,-7.551 23.016,-2.342c-0.698,1.303 -0.11,1.414 12.046,2.268c7.029,0.494 13.389,1.224 14.132,1.622c0.754,0.403 1.352,1.513 1.352,2.508c-0,1.502 -0.921,2.248 -5.818,4.71c-3.2,1.609 -5.818,3.061 -5.818,3.228c-0,0.167 2.045,1.533 4.545,3.036c2.5,1.503 5.527,3.451 6.727,4.33c5.782,4.234 5.68,4.225 19.467,1.759c16.835,-3.012 30.52,-5.734 30.94,-6.154c0.531,-0.531 -4.162,-5.946 -10.871,-12.543c-14.497,-14.255 -29.94,-23.446 -47.55,-28.303c-6.71,-1.85 -8.303,-2.004 -21.077,-2.037c-12.209,-0.03 -14.523,0.159 -19.874,1.627c-29.092,7.983 -51.03,27.122 -66.506,58.019c-4.441,8.864 -11.438,28.956 -11.438,32.841c0,1.279 0.391,1.204 6.324,-1.213Zm382.767,-2.6c0,-3.986 -21.928,-14.534 -47.406,-22.803c-26.572,-8.624 -56.08,-12.967 -83.938,-12.354c-12.449,0.274 -14.398,0.806 -13.964,3.812c0.36,2.485 3.256,3.331 11.49,3.359c8.324,0.028 30.368,1.649 39.636,2.916c29.602,4.043 51.864,10.055 74.182,20.034c14.599,6.527 20,7.887 20,5.036Zm-326.379,466.388c-2.446,-1.179 -2.755,-3.849 -1.242,-10.742c0.747,-3.4 1.376,-7.654 1.398,-9.454c0.041,-3.255 0.019,-3.283 -3.884,-5.144c-4.472,-2.132 -6.62,-4.398 -6.62,-6.985c-0,-3.08 1.351,-4.528 6.755,-7.24c8.253,-4.142 9.034,-4.876 10.412,-9.787c2.334,-8.319 7.293,-11.002 11.642,-6.299c3.119,3.373 5.832,7.847 6.88,11.346c0.498,1.66 0.988,3.018 1.089,3.018c0.102,-0 2.75,-0.491 5.885,-1.091c6.866,-1.314 13.452,-1.412 14.646,-0.218c2.304,2.304 1.069,4.442 -6.921,11.99c-6.065,5.729 -7.678,7.642 -7.115,8.439c5.315,7.529 5.074,6.899 3.721,9.736l-1.243,2.607l-4.876,-0.443c-2.681,-0.243 -6.649,-0.766 -8.817,-1.162c-5.037,-0.919 -7.335,0.151 -11.37,5.29c-2.634,3.355 -7.077,7.116 -8.25,6.984c-0.241,-0.026 -1.182,-0.407 -2.09,-0.845l-0,-0Zm11.641,-16.906c1.541,-0.977 3.46,-1.242 8.502,-1.174l6.512,0.087l-0.409,-2.516c-0.643,-3.963 0.21,-5.873 4.824,-10.805l4.307,-4.605l-4.247,0.308c-3.793,0.274 -4.339,0.136 -5.101,-1.287c-0.469,-0.877 -0.659,-2.098 -0.423,-2.715c0.338,-0.881 0.023,-1.043 -1.469,-0.757c-1.637,0.313 -2.166,-0.092 -3.829,-2.924c-2.328,-3.965 -5.106,-7.448 -5.942,-7.448c-0.336,0 -1.134,1.798 -1.772,3.995c-1.413,4.86 -4.596,8.258 -10.553,11.265c-2.356,1.189 -4.453,2.437 -4.66,2.773c-0.208,0.335 1.559,1.499 3.925,2.585c3.887,1.784 4.381,2.267 5.118,5.002c0.753,2.797 0.442,9.215 -0.587,12.131c-0.254,0.719 0.391,0.436 1.703,-0.747c1.161,-1.049 3.007,-2.474 4.101,-3.168l0,-0Zm-326.774,-14.632c-0.803,-0.968 -0.784,-1.48 0.114,-3.08c0.818,-1.456 3.155,-2.766 9.683,-5.423c4.733,-1.927 20.105,-8.519 34.16,-14.649c40.365,-17.604 60.141,-25.459 62.34,-24.761c1.46,0.464 2.247,2.089 1.7,3.514c-0.208,0.542 -8.298,4.286 -17.977,8.319c-9.679,4.032 -29.053,12.286 -43.053,18.34c-22.072,9.546 -44.684,18.9 -45.686,18.9c-0.175,-0 -0.751,-0.522 -1.281,-1.16l-0,-0Zm588.61,-20.84c-0.395,-0.5 -1.238,-3.2 -1.875,-6c-2.076,-9.127 -2.11,-9.555 -0.845,-10.819c2.79,-2.79 4.619,-0.406 6.767,8.818c1.534,6.589 1.123,8.91 -1.578,8.91c-0.964,0 -2.075,-0.409 -2.469,-0.909Zm-109.307,-24.942c-1.138,-1.372 0.995,-5.615 4.841,-9.629c2.72,-2.839 3.227,-3.095 4.639,-2.339c2.044,1.093 1.51,3.516 -1.672,7.594c-3.697,4.738 -6.297,6.194 -7.808,4.374Zm99.105,-2.913c-0.886,-0.62 -5.262,-6.593 -9.725,-13.273c-12.194,-18.251 -17.784,-24.872 -20.996,-24.872c-1.445,-0 -4.902,2.7 -20.797,16.249c-5.558,4.737 -11.051,9.106 -12.206,9.707c-2.553,1.33 -5.143,0.428 -6.345,-2.21c-1.021,-2.24 1.323,-7.608 12.727,-29.152c4.644,-8.773 8.526,-16.464 8.627,-17.091c0.128,-0.797 -2.309,-2.365 -8.118,-5.222c-8.547,-4.203 -10.245,-5.585 -10.245,-8.339c0,-3.238 2.396,-4.603 19.493,-11.102c9.322,-3.543 17.831,-7.1 18.909,-7.904c1.079,-0.804 4.488,-5.702 7.575,-10.884c3.087,-5.181 6.196,-9.946 6.909,-10.589c3.217,-2.899 8.069,-1.972 9.667,1.848c0.368,0.879 2.347,5.362 4.398,9.962c2.05,4.6 4.298,10.587 4.995,13.305l1.268,4.942l10.384,6.144c5.712,3.379 13.384,7.765 17.049,9.747c9.577,5.178 11.822,8.027 8.953,11.362c-1.297,1.508 -4.078,2.576 -13.973,5.368c-17.667,4.984 -24.641,7.19 -26.004,8.225c-0.986,0.749 -1.079,1.476 -0.534,4.179c5.134,25.461 6.267,35.722 4.34,39.321c-0.92,1.72 -4.095,1.86 -6.351,0.279l-0,0Zm-1.27,-18.691c-0.28,-2.1 -1.466,-8.364 -2.636,-13.92c-3.556,-16.898 -4.67,-15.876 28.29,-25.923c4.103,-1.25 7.286,-2.556 7.073,-2.901c-0.213,-0.345 -6.25,-3.957 -13.416,-8.027c-14.478,-8.224 -16.213,-9.523 -15.899,-11.911c0.117,-0.901 -0.667,-2.969 -1.744,-4.597c-1.078,-1.627 -3.638,-6.996 -5.691,-11.931c-2.052,-4.934 -3.99,-9.242 -4.305,-9.573c-0.712,-0.746 -2.538,1.821 -6.634,9.327c-5.675,10.397 -9.29,13.095 -24.664,18.408c-10.834,3.744 -14.545,5.26 -14.545,5.939c-0,0.303 2.234,1.55 4.964,2.771c7.108,3.178 9.583,5.444 9.574,8.767c-0.008,3.161 -1.666,6.85 -9.95,22.149c-3.421,6.318 -6.035,11.672 -5.81,11.898c0.575,0.575 3.959,-1.942 12.061,-8.969c3.838,-3.33 8.01,-6.544 9.271,-7.144c7.354,-3.498 14.418,1.524 25.727,18.292c7.185,10.653 7.526,11.115 8.231,11.141c0.337,0.012 0.384,-1.696 0.103,-3.796l0,0Zm68.883,-54.509c-1.665,-1.665 -0.968,-3.525 1.747,-4.659c3.289,-1.375 5.284,-1.093 6.623,0.933c0.94,1.423 0.893,1.736 -0.462,3.091c-1.697,1.698 -6.463,2.08 -7.908,0.635Zm-167.61,-7.718c-1.583,-0.305 -2.334,-2.845 -1.234,-4.171c1.738,-2.094 10.881,-0.901 10.881,1.419c-0,2.788 -3.814,3.876 -9.647,2.752Zm-717.236,-57.548c-1.566,-2.533 0.343,-4.069 14.679,-11.809c61.37,-33.133 109.558,-57.83 154.17,-79.012c19.136,-9.086 21.374,-9.994 23.049,-9.351c1.704,0.653 2.27,2.617 1.084,3.756c-0.555,0.533 -20.972,10.964 -45.372,23.18c-24.4,12.216 -52.055,26.186 -61.455,31.043c-26.61,13.752 -73.504,38.546 -76.7,40.553c-3.245,2.039 -8.631,2.973 -9.455,1.64Zm808.578,-1.918c-0.652,-1.7 0.316,-10.497 1.283,-11.663c1.251,-1.508 3.537,-1.214 4.185,0.537c0.518,1.399 -0.138,9.138 -0.963,11.365c-0.484,1.308 -3.982,1.122 -4.505,-0.239l0,-0Zm-752.968,-73.034c-1.899,-1.899 -1.835,-4.343 0.307,-11.737c2.752,-9.496 6.238,-23.657 6.238,-25.334c0,-1.93 0.011,-1.927 -11.861,-3.932c-10.949,-1.849 -12.533,-2.662 -13.316,-6.836c-0.623,-3.32 0.29,-4.009 12.45,-9.39c18.974,-8.398 18.349,-7.7 19.649,-21.922c1.434,-15.694 2.783,-19.758 6.559,-19.758c2.774,0 5.516,3.827 14.1,19.682l8.308,15.344l6.964,-0.472c3.831,-0.26 9.575,-0.777 12.764,-1.15c12.293,-1.435 15.69,-0.621 15.633,3.744c-0.034,2.704 -1.126,3.679 -10.523,9.402c-11.067,6.741 -14.181,9.173 -14.181,11.075c-0,0.826 1.59,3.99 3.534,7.03c6.535,10.22 6.954,11.976 3.418,14.293c-1.954,1.28 -2.23,1.197 -12.961,-3.93c-9.366,-4.475 -12.353,-5.435 -15.058,-4.842c-2.264,0.498 -5.459,3.855 -14.019,14.728c-7.906,10.042 -13.358,15.46 -15.558,15.46c-0.546,-0 -1.647,-0.655 -2.447,-1.455l-0,0Zm13.701,-20.182c1.983,-2.3 5.357,-6.274 7.497,-8.832c2.141,-2.558 5.038,-5.28 6.438,-6.05c3.514,-1.93 8.637,-1.34 15.993,1.84c3.204,1.385 5.825,2.22 5.825,1.856c0,-0.365 -0.798,-1.883 -1.774,-3.375c-2.121,-3.243 -2.903,-6.091 -2.314,-8.437c0.536,-2.134 5.276,-6.864 10.816,-10.792c2.3,-1.631 4.181,-3.167 4.181,-3.414c0,-0.246 -4.009,-0.199 -8.909,0.105c-6.403,0.398 -9.374,0.312 -10.564,-0.307c-1.921,-0.998 -5.352,-6.297 -11.704,-18.078c-2.489,-4.616 -5.316,-9.361 -6.284,-10.545l-1.759,-2.152l-0.045,2.181c-0.094,4.558 -1.466,16.589 -2.206,19.336c-1.321,4.906 -4.281,7.396 -15.014,12.631c-5.48,2.673 -9.62,5.104 -9.259,5.437c0.359,0.332 3.713,1.107 7.453,1.723c7.775,1.28 9.83,2.641 11.098,7.35c0.847,3.147 -0.023,8.714 -2.933,18.796c-0.78,2.7 -1.131,4.909 -0.779,4.909c0.351,0 2.26,-1.882 4.243,-4.182l0,0Zm880.024,-20.292c-0.709,-0.854 -1.071,-4.115 -1.249,-11.269l-0.252,-10.068l-1.916,0.481c-1.055,0.265 -4.391,0.509 -7.415,0.542c-8.462,0.094 -11.439,-2.71 -8.158,-7.684c0.699,-1.059 4.107,-4.252 7.575,-7.095c7.478,-6.131 8.93,-8.27 10.419,-15.351c0.618,-2.939 1.857,-6.675 2.752,-8.303c1.394,-2.535 2.017,-2.993 4.332,-3.185c2.356,-0.196 3.166,0.208 6.312,3.151c7.708,7.209 11.345,13.691 8.254,14.708c-0.492,0.162 -3.581,-2.348 -6.864,-5.579c-3.283,-3.231 -6.195,-5.874 -6.471,-5.874c-0.276,0 -1.209,2.819 -2.073,6.264c-2.175,8.673 -3.533,10.974 -9.988,16.922l-5.623,5.181l5.874,-0.184c8.588,-0.268 8.702,-0.122 10.083,12.867l0.459,4.322l2.569,-4.866c3.472,-6.577 5.598,-7.838 13.239,-7.855l5.855,-0.013l-1.447,-2.835c-2.374,-4.654 -1.931,-7.06 2.295,-12.453c2.606,-3.325 2.615,-4.259 0.04,-4.259c-2.479,0 -3.782,-1.184 -3.782,-3.436c0,-2.065 1.665,-2.782 8.037,-3.465c4.15,-0.444 4.923,-0.321 6.691,1.07c3.467,2.728 2.652,5.231 -3.968,12.186c-4.665,4.901 -4.753,5.352 -1.944,9.959c2.588,4.244 1.449,7.918 -2.824,9.105c-1.496,0.415 -5.041,0.757 -7.879,0.759c-6.05,0.005 -5.808,-0.196 -10.889,8.981c-3.63,6.557 -5.732,8.477 -9.28,8.477c-0.971,0 -2.215,-0.54 -2.764,-1.201Zm-837.389,-47.611c-0.329,-1.037 -0.047,-1.96 0.86,-2.823c1.514,-1.439 29.274,-12.639 38.804,-15.656c3.4,-1.077 7.982,-2.004 10.182,-2.06c3.791,-0.098 4,-0.01 4,1.685c-0,1.968 0.349,1.802 -12.364,5.882c-7.854,2.521 -16.574,5.891 -28.902,11.168c-8.759,3.749 -11.823,4.189 -12.58,1.804Zm257.645,-164.376c-0.69,-0.386 -1.254,-1.225 -1.254,-1.863c0,-1.945 8.306,-13.685 10.597,-14.979c0.561,-0.317 1.695,-0.215 2.519,0.226c1.933,1.034 1.473,2.639 -2.394,8.35c-5.152,7.608 -7.297,9.481 -9.468,8.266l0,-0Zm92.976,-19.357c-3.252,-2.734 -4.065,-3.834 -3.897,-5.273c0.35,-2.998 3.533,-2.822 7.397,0.408c3.817,3.191 5.261,5.816 4.021,7.31c-1.434,1.728 -3.264,1.133 -7.521,-2.445Zm237.153,-1.993c-1.539,-1.539 -2.429,-4.641 -4.072,-14.189c-0.792,-4.6 -2.025,-10.163 -2.74,-12.364l-1.3,-3.999l-5.454,0.078c-2.999,0.044 -9.754,0.207 -15.01,0.364c-8.611,0.256 -9.708,0.147 -11.091,-1.101c-0.963,-0.87 -1.534,-2.267 -1.534,-3.753c-0,-3.004 2.194,-4.914 11.256,-9.799c3.713,-2.001 8.138,-4.644 9.834,-5.873c3.64,-2.636 3.638,-2.183 0.057,-18.453c-2.633,-11.964 -2.72,-13.709 -0.783,-15.646c2.622,-2.622 5.231,-1.747 16.534,5.545c14.806,9.551 15.866,9.604 27.762,1.378c7.851,-5.428 13.76,-8.377 16.785,-8.377c0.787,-0 1.987,0.849 2.667,1.888c1.613,2.461 1.11,4.711 -4.878,21.833l-4.608,13.176l6.275,9.369c6.656,9.94 7.826,12.255 7.826,15.483c0,1.456 -0.515,2.252 -1.852,2.861c-2.593,1.182 -5.458,1.063 -15.348,-0.636c-4.74,-0.814 -9.373,-1.294 -10.297,-1.066c-1.304,0.321 -2.726,2.587 -6.379,10.167c-2.586,5.365 -5.701,10.754 -6.923,11.976c-2.411,2.411 -5.013,2.851 -6.727,1.137l0,0.001Zm8.951,-19.482c4.815,-9.726 6.402,-11.013 13.401,-10.858c2.446,0.055 7.065,0.571 10.265,1.147c3.2,0.576 5.957,0.913 6.127,0.747c0.17,-0.165 -1.63,-3.092 -4,-6.504c-8.953,-12.89 -8.645,-12.233 -7.38,-15.765c6.286,-17.56 9.1,-26.747 8.192,-26.747c-0.248,0 -4.244,2.485 -8.882,5.521c-8.4,5.501 -12.747,7.57 -15.899,7.57c-1.86,0 -10.92,-4.501 -19.431,-9.653c-6.779,-4.105 -6.642,-4.483 -3.349,9.286c1.594,6.666 2.139,10.353 1.798,12.171c-0.678,3.611 -4.757,7.535 -11.92,11.469c-3.278,1.8 -5.965,3.522 -5.971,3.827c-0.008,0.304 1.215,0.399 2.715,0.211c8.745,-1.101 16.991,-1.124 19.06,-0.054c4.493,2.323 7.213,8.103 8.736,18.561c0.929,6.381 1.439,8.28 2.059,7.661c0.247,-0.248 2.263,-4.113 4.479,-8.59l0,0Zm-318.044,10.503c-1.623,-1.793 -1.746,-5.669 -0.27,-8.56c2.061,-4.036 7.899,-22.11 7.668,-23.737c-0.247,-1.735 -1.276,-2.362 -10.931,-6.659c-4.562,-2.03 -5.7,-2.866 -6.105,-4.477c-1.181,-4.707 2.579,-7.962 11.348,-9.822c5.149,-1.092 7.134,-2.144 11.811,-6.262c4.282,-3.77 5.224,-5.301 8.517,-13.845c2.343,-6.081 5.308,-9.666 7.994,-9.666c2.086,-0 4.951,2.711 5.968,5.648c0.517,1.493 2.44,7.788 4.272,13.988l3.331,11.273l5.781,0.581c22.05,2.218 24.326,2.917 24.326,7.464c0,1.969 -0.639,2.891 -3.818,5.507c-11.887,9.78 -13.636,11.626 -13.636,14.386c-0,1.449 1.017,5.057 2.261,8.017c4.148,9.872 1.243,15.738 -5.951,12.017c-1.19,-0.615 -4.897,-2.9 -8.238,-5.078c-7.807,-5.089 -12.536,-7.126 -15.275,-6.579c-1.306,0.26 -4.5,2.709 -8.37,6.417c-8.245,7.9 -11.608,10.13 -15.896,10.542c-2.806,0.27 -3.691,0.056 -4.787,-1.155l-0,0Zm-164.66,-44.473c-1.284,-2.055 -1.121,-5.433 0.552,-11.47c2.26,-8.155 2.179,-8.444 -2.878,-10.288c-2.383,-0.869 -4.984,-2.408 -5.78,-3.42c-2.442,-3.104 -0.86,-5.107 6.899,-8.733c6.349,-2.967 6.667,-3.229 7.937,-6.553c1.544,-4.042 4.243,-6.818 6.63,-6.818c2.191,-0 5.942,3.334 9.402,8.357l2.759,4.006l8.208,0c4.645,0 9.007,0.364 10.047,0.838c3.98,1.813 2.77,5.58 -3.294,10.253c-4.462,3.439 -5.009,5.402 -2.864,10.279c2.386,5.425 2.569,6.843 1.093,8.474c-1.815,2.006 -4.516,1.785 -10.273,-0.84c-2.762,-1.258 -6.342,-2.31 -8.042,-2.363c-2.762,-0.086 -3.447,0.276 -6.909,3.645c-6.115,5.952 -11.507,7.804 -13.487,4.633Zm11.484,-11.234c4.371,-4.088 6.943,-4.619 13.569,-2.802l5.026,1.378l-0.278,-4.039c-0.254,-3.69 -0.052,-4.355 2.333,-7.676l2.611,-3.637l-4.523,-0.518c-5.387,-0.617 -6.935,-1.653 -12.173,-8.147l-3.957,-4.907l-1.763,3.514c-2.251,4.485 -3.42,5.816 -7.272,8.285l-3.131,2.007l2.124,1.255c4.815,2.844 5.634,7.876 2.747,16.875c-0.825,2.572 0.846,2.006 4.687,-1.588Zm247.166,9.848c-2.121,-1.717 -0.95,-3.87 2.956,-5.433c5.207,-2.083 9.195,1.428 4.853,4.272c-3.259,2.136 -6.086,2.556 -7.809,1.161Zm-132.936,-8.708c-4.441,-1.372 -5.983,-3.017 -4.692,-5.007c1.07,-1.649 5.023,-1.442 9.394,0.491c3.558,1.574 4.601,3.127 3.219,4.791c-1.113,1.342 -2.889,1.28 -7.921,-0.275l0,0Zm224.831,-36.129c-0.881,-0.618 -2.919,-3.378 -4.529,-6.134c-1.61,-2.757 -3.569,-5.215 -4.352,-5.464c-0.784,-0.249 -2.664,-0.109 -4.178,0.312c-4.418,1.227 -9.254,0.973 -10.64,-0.558c-1.896,-2.095 -1.439,-4.068 1.888,-8.155c1.7,-2.089 3.373,-4.177 3.718,-4.64c0.391,-0.525 -0.089,-1.897 -1.273,-3.642c-4.076,-6.006 -1.837,-7.815 9.398,-7.589l7.826,0.158l1.893,-2.202c1.041,-1.211 2.763,-3.232 3.827,-4.492c2.163,-2.56 4.883,-3.005 6.78,-1.108c0.956,0.957 1.157,2.607 1.053,8.656l-0.128,7.474l5.599,5.403c5.099,4.921 5.578,5.625 5.362,7.89c-0.202,2.121 -0.713,2.726 -3.482,4.123c-1.785,0.9 -4.113,1.636 -5.175,1.636c-2.238,0 -5.762,2.512 -5.762,4.109c0,1.362 -3.902,5.346 -5.237,5.346c-0.541,-0 -1.706,-0.506 -2.587,-1.123l-0.001,-0Zm4.446,-10.824c1.834,-1.73 3.867,-2.767 6.647,-3.389c2.203,-0.493 4.005,-1.144 4.005,-1.448c-0,-0.304 -1.064,-1.211 -2.364,-2.015c-1.3,-0.805 -3.334,-2.478 -4.52,-3.717c-1.937,-2.025 -2.196,-2.862 -2.545,-8.233c-0.37,-5.678 -0.447,-5.898 -1.531,-4.367c-1.939,2.736 -4.994,3.833 -10.685,3.838l-5.281,0.004l0.446,2.792c0.33,2.065 0.048,3.575 -1.082,5.79c-0.841,1.648 -1.527,3.091 -1.523,3.207c-0,0.116 1.638,0.27 3.634,0.342c4.4,0.159 7.067,1.882 9.932,6.417c1.135,1.797 2.1,3.268 2.144,3.269c0.045,0.001 1.27,-1.12 2.723,-2.491l0,0.001Zm-169.921,-5.232c-0.285,-0.285 -0.518,-2.912 -0.518,-5.838c-0,-5.108 0.074,-5.338 1.871,-5.789c2.379,-0.597 3.24,0.287 3.711,3.808c0.587,4.402 -0.581,7.864 -2.742,8.122c-0.992,0.118 -2.037,-0.019 -2.322,-0.303l0,-0Z" style="fill-rule:nonzero;"/></svg>