<?xml version="1.0" encoding="UTF-8" standalone="no"?><!DOCTYPE svg PUBLIC "-//W3C//DTD SVG 1.1//EN" "http://www.w3.org/Graphics/SVG/1.1/DTD/svg11.dtd"><svg width="100%" height="100%" viewBox="0 0 298 272" version="1.1" xmlns="http://www.w3.org/2000/svg" xmlns:xlink="http://www.w3.org/1999/xlink" xml:space="preserve" xmlns:serif="http://www.serif.com/" style="fill-rule:evenodd;clip-rule:evenodd;stroke-linejoin:round;stroke-miterlimit:2;"><g id="simulation"><path id="path260" d="M28.62,271.09c-10.867,-4.468 -21.053,-14.172 -26.328,-25.082c-1.817,-3.758 -2.181,-5.315 -1.195,-5.113c0.421,0.087 1.268,1.316 1.933,2.809c5.006,11.229 14.446,20.734 25.214,25.387c2.062,0.891 3.748,1.874 3.748,2.185c0,0.932 -0.752,0.89 -3.372,-0.186Zm142.13,-0.167c0.119,-0.629 0.76,-0.813 3.45,-0.992l3.302,-0.221l-3.086,-1.507c-5.415,-2.643 -10.251,-8.227 -12.416,-14.335c-0.974,-2.749 -1.571,-8.202 -0.977,-8.918c0.387,-0.466 2.668,-0.594 10.606,-0.594l10.112,0l-0.796,-1.418c-1.142,-2.033 -6.434,-7.241 -10.167,-10.005c-1.758,-1.302 -3.197,-2.545 -3.197,-2.761c0,-0.957 1.425,-0.801 2.733,0.3c0.782,0.659 1.491,0.993 1.574,0.743c0.157,-0.471 -2.086,-5.052 -3.091,-6.315c-0.999,-1.254 -3.594,-2.587 -5.04,-2.589c-1.804,-0.002 -3.913,1.757 -4.275,3.566c-0.374,1.87 0.976,4.818 2.868,6.261c1.741,1.327 3.298,1.989 6.329,2.689c1.558,0.36 2.247,0.75 2.36,1.334c0.142,0.739 -0.043,0.796 -1.76,0.536c-6.777,-1.024 -11.393,-4.955 -11.397,-9.706c-0.001,-2.819 1.23,-4.814 3.544,-5.74c2.243,-0.897 2.868,-0.878 5.165,0.165c2.704,1.228 3.916,2.727 6.483,8.017c1.771,3.651 2.987,5.456 5.449,8.092c1.742,1.866 3.168,3.571 3.168,3.789c0,0.218 0.264,0.397 0.585,0.397c0.382,-0 0.807,-1.192 1.222,-3.418l0.636,-3.417l-2.931,-3.407c-5.681,-6.605 -8.771,-14.572 -8.771,-22.611c-0,-3.482 0.143,-4.588 0.618,-4.77c1.015,-0.39 1.143,0.096 1.189,4.515c0.024,2.325 0.193,4.722 0.374,5.328l0.33,1.103l0.494,-1.103c4.526,-10.098 6.491,-16.299 6.062,-19.131c-0.347,-2.289 -1.864,-4.984 -3.479,-6.181c-2.885,-2.139 -7.675,-0.531 -10.454,3.508c-2.352,3.419 -3.192,6.46 -2.975,10.781c0.218,4.364 1.471,7.469 4.319,10.705c1.834,2.084 2.176,2.964 1.153,2.964c-0.995,0 -4.245,-3.86 -5.431,-6.452c-3.79,-8.277 -1.322,-18.358 5.562,-22.724c2.074,-1.315 5.423,-1.693 7.61,-0.86c3.065,1.169 5.346,5.355 5.304,9.734c-0.031,3.195 -0.78,5.772 -3.785,13.027c-1.105,2.667 -2.333,6.123 -2.73,7.679l-0.722,2.828l1.863,3.676c1.058,2.086 2.948,4.854 4.371,6.401l2.507,2.726l2.113,-4.344c1.62,-3.329 2.802,-5.048 5.061,-7.356c2.761,-2.823 4.456,-3.753 4.456,-2.446c0,0.312 -1.108,1.651 -2.463,2.976c-2.233,2.185 -5.033,5.717 -5.033,6.348c0,0.443 2.065,0.271 5.154,-0.428c10.759,-2.435 16.846,-6.113 18.216,-11.006c1.936,-6.914 -6.057,-10.499 -14.33,-6.426c-4.926,2.425 -7.769,5.926 -9.694,11.938c-0.915,2.858 -1.357,3.457 -2.042,2.772c-0.548,-0.549 0.741,-5.094 2.328,-8.205c2.098,-4.113 7.197,-8.109 11.968,-9.379c9.646,-2.569 16.345,3.708 12.402,11.62c-0.623,1.249 -1.853,2.904 -2.733,3.677c-3.154,2.769 -11.555,5.932 -18.814,7.083c-1.714,0.271 -3.28,0.639 -3.48,0.817c-0.2,0.178 -0.626,1.089 -0.948,2.024c-0.573,1.666 -0.552,1.74 1.054,3.693c2.503,3.044 3.543,4.662 4.176,6.493l0.579,1.673l17.109,0.441l0.131,2.501c0.163,3.106 -0.879,7.26 -2.69,10.727c-1.98,3.789 -6.843,8.53 -10.665,10.399l-3.082,1.506l8.594,0.272c4.727,0.15 10.727,0.299 13.334,0.331c3.893,0.048 4.74,0.177 4.74,0.72c0,0.58 -3.041,0.662 -24.725,0.662c-23.309,-0 -24.716,-0.045 -24.578,-0.772l-0,-0Zm17.114,-6.529c0,-0.534 -0.41,-0.657 -1.839,-0.552c-2.631,0.194 -2.784,1.238 -0.181,1.238c1.535,0 2.02,-0.165 2.02,-0.686Zm-7.708,-0.183c-0.146,-0.236 -1.19,-0.838 -2.321,-1.338c-4.24,-1.875 -9.362,-6.839 -11.032,-10.69c-0.517,-1.193 -1.167,-1.548 -1.589,-0.866c-0.413,0.669 2.469,4.975 5.073,7.58c2.81,2.809 7.442,5.724 9.115,5.736c0.56,0.003 0.899,-0.186 0.754,-0.422Zm10.354,-20.538c0,-1.586 -3.531,-6.813 -4.602,-6.813c-0.35,0 -0.749,1.147 -1.065,3.062c-0.778,4.71 -0.939,4.434 2.581,4.434c2.493,0 3.086,-0.131 3.086,-0.683Zm-181.264,24.979c-4.221,-3.04 -8.701,-10.186 -6.387,-10.186c0.347,0 1.091,0.931 1.654,2.069c1.271,2.571 5.063,6.734 7.163,7.865c0.867,0.467 1.576,1.102 1.576,1.411c0,1.037 -1.602,0.573 -4.006,-1.159Zm65.518,-20.135c-11.399,-0.309 -29.343,-0.779 -39.876,-1.046c-10.533,-0.266 -19.227,-0.559 -19.318,-0.651c-0.162,-0.161 -0.756,-6.993 -2.036,-23.408c-0.341,-4.366 -0.531,-8.086 -0.424,-8.268c0.107,-0.182 0.455,-0.331 0.773,-0.331c0.66,0 0.914,1.856 1.573,11.465c0.241,3.516 0.673,9.206 0.959,12.644l0.521,6.25l3.56,0.246c1.958,0.136 12.885,0.449 24.284,0.696c43.463,0.942 60.862,1.45 61.23,1.786c0.209,0.191 0.247,0.564 0.084,0.827c-0.353,0.571 -3.216,0.552 -31.331,-0.21l0.001,0Zm41.928,-3.216c-0.335,-0.541 -0.368,-25.105 -0.035,-25.644c0.879,-1.422 1.098,1.182 1.098,13.04c0,11.82 -0.186,14.024 -1.064,12.604l0.001,-0Zm-79.849,-1.827c-0.545,-0.881 0.321,-1.322 2.598,-1.322c2.525,-0 2.979,0.198 2.615,1.145c-0.279,0.729 -4.778,0.882 -5.213,0.177Zm85.484,-2.417c-0.151,-0.393 1.506,-2.687 4.316,-5.977c2.508,-2.937 4.678,-5.573 4.821,-5.858c0.143,-0.286 0.125,-11.036 -0.041,-23.889c-0.165,-12.853 -0.208,-23.626 -0.095,-23.94c0.113,-0.313 0.428,-0.495 0.702,-0.405c0.648,0.215 1.028,11.514 1.102,32.733l0.056,16.325l-4.74,5.58c-2.607,3.069 -4.996,5.69 -5.308,5.825c-0.312,0.135 -0.678,-0.043 -0.813,-0.394l0,0Zm-97.527,-4.968c0.134,-0.698 0.952,-0.784 8.489,-0.892c6.214,-0.09 8.425,0.017 8.673,0.42c0.184,0.297 0.236,0.698 0.117,0.891c-0.12,0.194 -4.09,0.352 -8.822,0.352c-7.958,0 -8.594,-0.058 -8.456,-0.771l-0.001,-0Zm136.825,-7.326c-0.469,-1.122 -0.533,-1.875 -0.228,-2.676c0.574,-1.509 1.613,-1.029 1.643,0.759c0.013,0.779 0.097,1.791 0.188,2.25c0.301,1.529 -0.932,1.272 -1.603,-0.333Zm39.302,-6.806c-0.362,-0.586 0.295,-1.247 2.205,-2.215c2.623,-1.33 4.134,-3.295 4.134,-5.377c-0,-0.938 -0.199,-1.827 -0.441,-1.977c-0.67,-0.414 -0.527,-1.543 0.195,-1.543c0.972,-0 2.01,1.785 2.01,3.455c-0,2.269 -1.567,4.604 -4.296,6.401c-2.436,1.605 -3.396,1.921 -3.807,1.256Zm-84.682,-7.437c-0.155,-0.403 -0.262,-8.459 -0.238,-17.902c0.024,-9.442 -0.04,-17.251 -0.141,-17.352c-0.102,-0.102 -10.879,-0.378 -23.951,-0.614c-13.071,-0.237 -32.099,-0.626 -42.285,-0.866c-10.186,-0.241 -22.389,-0.472 -27.118,-0.514l-8.598,-0.078l0.123,11.644c0.068,6.405 0.238,13.379 0.378,15.499c0.218,3.322 0.153,3.893 -0.474,4.133c-0.4,0.154 -0.793,0.205 -0.875,0.114c-0.208,-0.231 -1.21,-33.529 -1.015,-33.724c0.088,-0.088 3.906,-1.459 8.486,-3.047c4.579,-1.589 8.42,-2.983 8.535,-3.098c0.205,-0.204 -3.185,-11.907 -7.529,-25.995c-2.157,-6.996 -6.801,-20.835 -8.762,-26.116c-0.561,-1.509 -0.891,-2.874 -0.733,-3.031c0.516,-0.516 28.076,-0.173 39.346,0.49c10.673,0.628 19.721,1.347 24.233,1.926c2.137,0.275 2.2,0.326 2.781,2.262c2.601,8.66 5.343,18.815 7.857,29.098c1.63,6.67 3.182,12.342 3.448,12.606c0.266,0.264 2.368,0.72 4.672,1.013c2.304,0.293 6.273,0.808 8.819,1.144c2.546,0.335 7.11,0.931 10.142,1.324c19.822,2.569 23.371,3.197 23.363,4.136c-0.012,1.194 -0.571,1.682 -2.291,1.998l-1.636,0.301l-0.128,3.621c-0.101,2.868 -0.265,3.621 -0.789,3.621c-0.496,-0 -0.694,-0.635 -0.794,-2.536c-0.072,-1.394 -0.34,-2.535 -0.594,-2.535c-0.254,-0 -2.179,1.062 -4.278,2.36c-2.098,1.298 -4.708,2.813 -5.799,3.367c-1.091,0.553 -2.129,1.227 -2.308,1.497c-0.178,0.271 -0.327,8.479 -0.33,18.24c-0.005,14.873 -0.107,17.748 -0.621,17.748c-0.338,0 -0.741,-0.33 -0.896,-0.734l0,0Zm6.379,-39.907c2.531,-1.497 4.379,-2.795 4.106,-2.886c-0.272,-0.091 -4.019,0.647 -8.325,1.641c-7.53,1.736 -9.689,1.992 -9.689,1.147c-0,-0.612 1.041,-1.002 4.85,-1.814c7.522,-1.605 18.098,-4.269 18.498,-4.659c0.263,-0.258 0.246,-0.409 -0.047,-0.409c-0.256,-0 -3.917,-0.475 -8.135,-1.056c-4.219,-0.581 -10.25,-1.389 -13.402,-1.796c-3.153,-0.407 -7.717,-1.016 -10.142,-1.353c-7.017,-0.976 -10.362,-1.24 -10.358,-0.817c0.001,0.216 0.662,3.368 1.468,7.006c1.259,5.683 1.589,6.632 2.346,6.745c0.485,0.072 2.949,-0.2 5.476,-0.604c7.901,-1.265 7.462,-1.238 7.462,-0.457c-0,0.39 -0.26,0.71 -0.577,0.71c-0.318,-0 -0.963,0.291 -1.434,0.647c-0.764,0.578 -0.097,0.649 6.223,0.661l7.079,0.014l4.601,-2.72Zm-54.475,1.442c-0.485,-0.188 -2.667,-0.583 -4.85,-0.879c-9.395,-1.274 -18.595,-2.827 -26.55,-4.481l-4.944,-1.028l-6.3,2.147c-8.2,2.794 -9.12,3.183 -8.284,3.501c0.364,0.138 11.178,0.419 24.031,0.623c12.853,0.205 24.362,0.391 25.575,0.415c1.468,0.028 1.91,-0.071 1.322,-0.298Zm-32.85,-19.022c0,-0.803 -1.764,-3.951 -2.213,-3.951c-0.634,-0 -0.531,0.819 0.339,2.71c0.712,1.545 1.874,2.315 1.874,1.241Zm19.364,-6.798c3.742,-1.935 3.43,-8.527 -0.57,-12.039c-2.786,-2.446 -5.394,-1.59 -6.511,2.138c-0.989,3.3 1.113,8.324 4.098,9.795c1.798,0.886 1.496,0.875 2.983,0.106l0,0Zm-24.805,-7.309c-1.286,-3.266 -3.013,-7.774 -3.838,-10.017c-0.824,-2.244 -1.753,-4.079 -2.063,-4.079c-0.309,0 -0.563,0.173 -0.563,0.384c0,0.212 1.104,3.238 2.453,6.725c1.349,3.487 2.968,7.729 3.598,9.426c1.285,3.468 1.858,4.394 2.388,3.864c0.2,-0.2 -0.689,-3.036 -1.975,-6.303Zm44.906,-16.742c0.389,-0.629 -1.702,-1.322 -3.986,-1.322c-1.713,-0 -2.026,-0.157 -2.626,-1.319c-1.053,-2.035 -2.552,-2.813 -4.822,-2.502c-1.431,0.196 -2.074,0.092 -2.483,-0.401c-0.369,-0.444 -0.7,-0.519 -0.994,-0.225c-0.946,0.946 0.596,1.801 3.248,1.801c2.767,-0 3.74,0.567 4.214,2.456c0.227,0.907 0.549,1.079 2.095,1.124c1.004,0.028 2.421,0.203 3.149,0.388c1.902,0.484 1.905,0.484 2.205,-0l0,-0Zm29.544,86.428c-0.154,-0.249 0.13,-0.974 0.631,-1.61l0.91,-1.157l-0.913,-1.477c-0.805,-1.303 -0.848,-1.654 -0.366,-2.989c0.465,-1.286 0.429,-1.822 -0.245,-3.587c-0.778,-2.038 -0.771,-4.16 0.029,-8.433c0.215,-1.147 0.023,-1.64 -1.097,-2.812c-1.409,-1.474 -1.443,-2.19 -0.104,-2.19c0.929,-0 2.476,1.589 2.896,2.974c0.165,0.545 0.048,2.488 -0.259,4.319c-0.459,2.727 -0.455,3.584 0.021,4.742c0.926,2.254 1.063,3.754 0.473,5.179c-0.468,1.128 -0.442,1.448 0.169,2.123c0.947,1.046 0.919,3.284 -0.052,4.118c-1.248,1.072 -1.795,1.281 -2.093,0.8l0,-0Zm22.795,-10.674c-0.34,-0.34 -0.529,-2.085 -0.529,-4.883c-0,-3.908 0.079,-4.338 0.772,-4.206c0.662,0.127 0.789,0.766 0.898,4.513c0.128,4.39 -0.162,5.554 -1.141,4.576Zm49.814,-1.966c0.186,-0.965 1.467,-1.102 1.467,-0.157c0,0.361 -0.365,0.726 -0.811,0.812c-0.59,0.113 -0.769,-0.066 -0.656,-0.655l0,-0Zm-0.087,-3.927c-0.236,-0.622 -0.43,-1.327 -0.43,-1.566c0,-0.239 -0.736,-1.109 -1.636,-1.934c-1.385,-1.269 -1.52,-1.543 -0.879,-1.79c1.159,-0.444 2.941,0.983 3.881,3.109c0.806,1.823 0.761,3.312 -0.101,3.312c-0.223,-0 -0.598,-0.509 -0.835,-1.131l0,-0Zm82.467,-0.832c-0,-0.351 0.311,-0.813 0.692,-1.026c1.425,-0.798 8.227,-7.831 10.494,-10.852c2.718,-3.621 5.276,-8.036 7.12,-12.285c0.71,-1.637 1.545,-2.976 1.855,-2.976c0.867,-0 0.681,1.092 -0.764,4.489c-2.996,7.04 -9.063,15.406 -14.804,20.413c-3.253,2.837 -4.593,3.49 -4.593,2.237Zm14.11,-1.613c-0,-0.269 0.942,-1.524 2.094,-2.788c1.152,-1.264 2.555,-3.226 3.118,-4.361c1.024,-2.064 2.284,-2.764 2.284,-1.267c-0,1.112 -2.382,4.798 -4.543,7.031c-1.764,1.822 -2.953,2.38 -2.953,1.385Zm-248.571,-8.226c-1.089,-0.18 -2.891,-2.189 -2.512,-2.801c0.397,-0.642 1.174,-0.445 2.257,0.573c1,0.939 1.039,0.942 1.638,0.122c0.539,-0.737 0.746,-0.769 1.694,-0.262c0.827,0.443 1.482,0.468 2.788,0.107c1.346,-0.371 2.226,-0.321 4.145,0.238c1.341,0.39 2.686,0.777 2.989,0.86c0.303,0.082 0.551,0.361 0.551,0.618c-0,0.889 -1.425,1.011 -3.685,0.316c-2.128,-0.655 -7.055,-0.56 -8.441,0.161c-0.242,0.127 -0.883,0.157 -1.424,0.068Zm169.422,-8.079c-15.521,-0.165 -29.172,-0.448 -30.335,-0.631c-1.615,-0.253 -2.081,-0.5 -1.971,-1.044c0.092,-0.451 0.544,-0.684 1.234,-0.637c6.523,0.447 22.994,0.716 59.292,0.968c23.767,0.166 43.464,0.459 43.771,0.652c0.307,0.193 0.444,0.535 0.304,0.761c-0.275,0.446 -26.012,0.421 -72.295,-0.069l0,-0Zm47.989,-8.56c-0.028,-3.448 0.104,-4.63 0.518,-4.63c0.772,0 1.086,1.462 1.093,5.093c0.005,2.779 -0.432,4.167 -1.313,4.167c-0.143,-0 -0.278,-2.084 -0.298,-4.63Zm-70.206,-5.895c0.072,-5.348 -0,-9.855 -0.161,-10.016c-0.16,-0.16 -1.58,0.057 -3.155,0.483c-4.604,1.247 -10.837,0.34 -21.212,-3.087c-5.147,-1.7 -9.789,-4.471 -12.861,-7.678c-0.684,-0.714 -2.533,-1.829 -4.11,-2.479c-5.253,-2.165 -11.434,-5.558 -12.558,-6.894c-1.122,-1.333 -1.492,-3.611 -0.669,-4.119c0.251,-0.155 0.325,-1.002 0.172,-1.962c-0.149,-0.93 -0.077,-2.035 0.159,-2.457c0.283,-0.505 0.27,-1.189 -0.036,-2.001c-0.584,-1.546 0.141,-3.346 1.572,-3.902c2.312,-0.9 5.011,-1.562 5.841,-1.433c0.489,0.076 2.031,1.016 3.425,2.089c1.395,1.072 2.608,1.95 2.696,1.95c0.088,0 -0.139,-0.907 -0.504,-2.016c-0.624,-1.896 -0.612,-2.085 0.215,-3.196c1.938,-2.606 4.205,-1.417 7.907,4.146c1.358,2.041 2.54,3.712 2.625,3.712c0.086,-0 0.464,-0.596 0.84,-1.323c0.376,-0.728 0.886,-1.323 1.133,-1.323c0.246,0 1.481,0.763 2.744,1.696c1.263,0.933 2.892,2.001 3.619,2.374c1.782,0.914 7.724,2.103 10.51,2.103l2.257,0l4.019,-4.078c4.794,-4.866 7.147,-8.689 10.091,-16.396c1.669,-4.367 2.293,-5.541 2.943,-5.541c0.454,-0 0.826,0.09 0.826,0.201c-0,0.11 -0.87,2.451 -1.934,5.202c-3.559,9.209 -5.557,12.426 -11.385,18.327l-3.622,3.667l-0.018,2.717c-0.015,2.196 -0.161,2.746 -0.766,2.865c-0.624,0.123 -0.771,-0.28 -0.882,-2.416l-0.133,-2.564l-3.78,-0.497c-5.22,-0.686 -8.298,-1.658 -10.99,-3.47c-1.262,-0.849 -2.528,-1.544 -2.812,-1.544c-0.285,-0 -1.088,1.537 -1.785,3.417c-0.698,1.879 -1.831,4.608 -2.519,6.063c-1.342,2.836 -3.027,7.51 -3.027,8.393c-0,0.907 4.615,4.161 7.796,5.496c1.653,0.695 5.933,2.07 9.509,3.057c10.176,2.807 14.064,2.525 19.954,-1.449c1.455,-0.981 3.39,-2.276 4.299,-2.877c1.094,-0.722 1.654,-1.426 1.654,-2.08c-0,-1.455 0.452,-2.383 1.16,-2.383c0.519,0 0.605,1.218 0.504,7.166c-0.102,6.021 -0.227,7.165 -0.782,7.165c-0.53,-0 -0.688,-0.792 -0.791,-3.965c-0.071,-2.181 -0.269,-4.102 -0.441,-4.268c-0.171,-0.167 -1.502,0.534 -2.957,1.558l-2.646,1.861l-0.22,10.559c-0.205,9.807 -0.279,10.569 -1.033,10.714c-0.771,0.148 -0.805,-0.324 -0.681,-9.567l0,-0Zm-35.993,-25.081c0.427,-1.152 1.417,-3.49 2.202,-5.196c2.194,-4.771 2.685,-6.335 2.199,-7.009c-0.235,-0.326 -1.683,-2.392 -3.218,-4.592c-2.644,-3.789 -3.91,-4.885 -4.921,-4.26c-0.776,0.479 -0.486,1.749 0.899,3.932c1.5,2.366 1.973,4.137 1.353,5.072c-0.329,0.496 -1.071,0.058 -3.616,-2.139c-4.772,-4.116 -6.415,-5.121 -7.25,-4.428c-0.603,0.501 -0.566,0.685 0.328,1.648c0.554,0.596 2.544,2.278 4.424,3.737c3.166,2.458 4.208,3.865 2.862,3.865c-0.668,0 -7.914,-5.722 -9.378,-7.406c-0.85,-0.978 -1.181,-1.105 -1.835,-0.706c-0.439,0.267 -0.861,0.9 -0.936,1.407c-0.107,0.718 0.714,1.536 3.72,3.703c2.122,1.53 4.466,3.313 5.208,3.963c1.176,1.028 1.251,1.22 0.583,1.478c-0.533,0.207 -1.931,-0.534 -4.584,-2.432c-4.346,-3.109 -4.804,-3.342 -5.224,-2.663c-0.577,0.933 1.118,2.646 4.405,4.449c3.489,1.915 3.971,2.337 3.514,3.076c-0.176,0.284 -1.54,-0.219 -3.587,-1.323c-3.682,-1.986 -4.559,-2.169 -4.559,-0.953c-0,1.445 3.619,3.578 14.11,8.314c1.99,0.899 2.485,0.669 3.301,-1.537Zm69.731,34.338c-0.907,-0.357 -2.485,-4.045 -2.475,-5.787c0.009,-1.429 0.616,-2.365 1.371,-2.113c0.395,0.132 0.55,0.748 0.458,1.817c-0.105,1.215 0.028,1.619 0.53,1.619c0.95,-0 1.329,0.81 0.721,1.543c-0.653,0.786 -0.208,1.543 0.908,1.543c1.026,0 1.145,1.118 0.158,1.496c-0.383,0.148 -0.731,0.254 -0.771,0.237c-0.041,-0.017 -0.446,-0.177 -0.9,-0.355l0,-0Zm29.707,-10.859c-4.458,-1.004 -8.836,-2.402 -11.17,-3.566c-1.172,-0.585 -2.619,-1.063 -3.215,-1.063c-1.479,0 -7.214,-1.191 -10.969,-2.278c-3.478,-1.007 -5.752,-2.884 -5.283,-4.361c0.148,-0.466 -0.028,-1.27 -0.39,-1.787c-0.477,-0.682 -0.545,-1.237 -0.248,-2.018c0.225,-0.593 0.409,-1.735 0.409,-2.538c0,-0.804 0.298,-1.708 0.662,-2.01c0.363,-0.302 0.661,-0.897 0.661,-1.323c0,-1.724 2.588,-2.229 5.478,-1.069c0.716,0.288 0.791,0.208 0.484,-0.507c-0.748,-1.742 -0.762,-3.531 -0.032,-4.137c0.614,-0.509 1.167,-0.368 3.897,0.997c4.359,2.179 8.237,3.835 8.982,3.835c0.341,-0 0.734,-0.298 0.874,-0.662c0.207,-0.54 1.283,-0.661 5.854,-0.661c7.382,-0 7.228,0.122 7.293,-5.778c0.043,-3.873 0.162,-4.6 0.776,-4.718c0.946,-0.182 1.446,2.92 1.088,6.753l-0.258,2.759l1.339,0.268c1.633,0.327 1.473,1.198 -0.308,1.677c-0.712,0.191 -4.19,0.479 -7.729,0.64l-6.435,0.292l-0.54,4.675c-0.297,2.572 -0.787,6.12 -1.09,7.886c-0.389,2.266 -0.413,3.323 -0.081,3.597c0.714,0.588 7.116,2.567 10.751,3.324c4.74,0.987 11.845,0.883 15.576,-0.228c6.138,-1.828 10.822,-6.302 11.866,-11.334c0.439,-2.114 0.407,-3.028 -0.199,-5.618c-1.001,-4.283 -1.009,-4.416 -0.264,-4.416c0.396,0 0.974,0.885 1.439,2.205c1.103,3.124 0.851,8.989 -0.497,11.595c-2.059,3.978 -6.104,7.235 -11.304,9.101c-3.047,1.094 -13.406,1.372 -17.417,0.468l-0,-0Zm-11.507,-9.148c0.585,-3.235 1.344,-8.626 1.357,-9.635c0.005,-0.458 -1.037,-1.142 -2.968,-1.948c-1.637,-0.683 -4.311,-1.903 -5.942,-2.712c-3.374,-1.672 -3.428,-1.685 -3.428,-0.865c0,0.575 2.023,2.71 4.409,4.654c0.91,0.74 0.992,0.97 0.467,1.315c-0.418,0.275 -1.02,0.221 -1.763,-0.158c-2.481,-1.266 -7.684,-2.902 -8.054,-2.532c-0.635,0.635 0.487,1.226 5.382,2.832c3.163,1.039 4.675,1.752 4.772,2.253c0.202,1.035 -0.508,0.936 -5.783,-0.811c-5.002,-1.656 -6.223,-1.86 -5.935,-0.992c0.238,0.718 5.855,2.871 9.312,3.571c1.822,0.369 2.705,0.757 2.705,1.189c-0,1.014 -3.693,0.572 -8.037,-0.962c-3.327,-1.174 -3.846,-1.254 -4.422,-0.678c-0.575,0.576 -0.539,0.712 0.305,1.165c1.457,0.779 4.955,1.768 6.275,1.773c1.631,0.007 2.572,0.429 2.572,1.155c-0,0.817 -2.195,0.798 -5.441,-0.047c-3.072,-0.801 -2.937,-0.797 -2.937,-0.075c-0,0.323 0.446,0.805 0.992,1.072c2.635,1.287 10.218,3.063 13.399,3.138l2.265,0.053l0.498,-2.755Zm17.239,5.46c0,-0.21 0.943,-1.117 2.095,-2.016c1.62,-1.265 2.392,-1.591 3.408,-1.444c0.866,0.126 1.727,-0.114 2.526,-0.705c1.194,-0.883 1.228,-0.884 2.142,-0.057c0.921,0.834 0.938,0.829 2.147,-0.652c0.711,-0.872 1.429,-1.362 1.726,-1.179c0.808,0.5 0.612,1.026 -1.087,2.906c-1.63,1.804 -2.678,2.167 -3.598,1.247c-0.398,-0.398 -0.728,-0.33 -1.416,0.292c-0.766,0.694 -1.048,0.731 -1.939,0.254c-1.124,-0.602 -2.265,-0.242 -3.338,1.051c-0.599,0.721 -2.666,0.957 -2.666,0.303l0,0Zm-9.696,-1.492c0.003,-0.303 -0.07,-3.482 -0.162,-7.065c-0.153,-5.974 0.079,-7.601 0.959,-6.722c0.473,0.473 0.897,8.072 0.633,11.362c-0.168,2.094 -0.416,2.976 -0.836,2.976c-0.329,0 -0.596,-0.248 -0.594,-0.551l0,0Zm-75.127,-9.018c-0.17,-0.17 -0.963,-0.266 -1.762,-0.212c-0.799,0.054 -2.17,-0.202 -3.047,-0.568c-0.924,-0.386 -2.616,-0.621 -4.027,-0.56c-1.828,0.08 -2.625,-0.085 -3.202,-0.662c-1.055,-1.055 -0.22,-1.964 1.136,-1.238c0.535,0.286 1.59,0.378 2.464,0.214c1.009,-0.189 2.288,-0.013 3.763,0.517c1.681,0.604 2.42,0.684 2.985,0.324c0.579,-0.37 1.123,-0.267 2.376,0.45l1.625,0.929l1.333,-0.985c2.448,-1.81 3.685,-0.983 1.525,1.019c-0.852,0.79 -1.664,1.082 -3.013,1.082c-1.015,-0 -1.986,-0.14 -2.156,-0.31Zm42.968,-11.265c-1.206,-1.516 -2.722,-3.718 -3.37,-4.895l-1.177,-2.138l0.75,-3.773c0.412,-2.074 1.738,-7.362 2.947,-11.75l2.198,-7.979l-0.728,-2.073c-0.826,-2.355 -0.679,-3.167 0.874,-4.842c0.604,-0.65 1.152,-1.372 1.218,-1.603c0.066,-0.231 -0.921,-1.14 -2.192,-2.02l-2.313,-1.599l-3.861,1.802c-2.123,0.991 -5.588,2.606 -7.699,3.588c-2.497,1.162 -4.115,1.675 -4.63,1.469c-0.719,-0.287 -0.694,-0.382 0.275,-1.046c0.586,-0.402 3.661,-1.937 6.834,-3.41c3.173,-1.473 6.493,-3.024 7.379,-3.447c0.885,-0.422 1.958,-0.705 2.384,-0.628c0.881,0.159 1.227,-0.77 1.701,-4.562l0.306,-2.454l-1.406,-0.281c-0.773,-0.155 -2.059,-0.974 -2.858,-1.821c-1.152,-1.221 -1.517,-2.06 -1.766,-4.053c-0.309,-2.471 0.008,-9.776 0.528,-12.154c0.236,-1.076 0.138,-1.212 -0.863,-1.212c-0.644,-0 -1.405,-0.395 -1.771,-0.917c-0.414,-0.59 -1.013,-0.865 -1.679,-0.772c-0.838,0.118 -1.062,-0.078 -1.171,-1.022c-0.132,-1.138 0.677,-3.377 1.757,-4.864c0.447,-0.615 0.365,-0.88 -0.488,-1.57c-0.921,-0.746 -0.964,-0.929 -0.418,-1.808c0.334,-0.537 1.466,-1.394 2.517,-1.904c3.456,-1.676 7.327,-0.612 12.537,3.449c2.07,1.613 3.03,2.05 5.168,2.352c6.509,0.92 9.555,5.247 7.897,11.217c-0.361,1.301 -0.346,2.146 0.061,3.378c0.682,2.068 0.326,3.507 -1.339,5.403l-1.311,1.493l0.458,3.652c0.319,2.544 0.317,3.792 -0.005,4.114c-0.878,0.878 -1.31,-0.357 -1.608,-4.587l-0.295,-4.201l1.381,-1.381c1.643,-1.643 1.832,-3.551 0.474,-4.78c-1.078,-0.975 -2.314,-0.459 -2.54,1.06c-0.086,0.578 -0.46,0.948 -0.958,0.948c-0.919,-0 -3.531,-4.742 -3.531,-6.411c-0,-1.4 -0.684,-1.757 -4.432,-2.315c-1.831,-0.272 -3.909,-0.796 -4.618,-1.164c-2.852,-1.479 -4.065,1.396 -4.136,9.801c-0.049,5.736 0.478,7.294 2.793,8.262c1.601,0.669 3.916,0.271 5.867,-1.007c0.736,-0.482 1.181,-0.546 1.512,-0.215c0.667,0.667 0.135,1.304 -1.977,2.369c-1.014,0.511 -1.905,0.983 -1.98,1.048c-0.144,0.126 -1.403,7.623 -1.405,8.376c-0.005,1.465 5.432,2.63 9.342,2c2.932,-0.472 5.275,-1.912 6.826,-4.195c0.966,-1.422 1.251,-1.578 2.406,-1.325c3.779,0.83 13.747,5.704 19.295,9.435c9.326,6.271 14.75,13.449 20.415,27.018c3.01,7.209 3.436,8.731 2.446,8.731c-0.442,0 -1.302,-1.613 -2.527,-4.74c-4.181,-10.666 -8.843,-18.583 -14.111,-23.963c-4.385,-4.478 -13.063,-9.824 -21.751,-13.397l-3.892,-1.602l-1.84,1.954c-2.121,2.252 -3.864,3.241 -6.433,3.652c-1.001,0.16 -1.914,0.444 -2.029,0.63c-0.115,0.186 0.173,1.191 0.64,2.233l0.848,1.896l-1.291,1.63c-0.917,1.158 -1.291,2.117 -1.291,3.312c-0,2.325 1.196,12.126 2.241,18.371c0.572,3.412 0.729,5.45 0.459,5.953c-0.575,1.073 -7.856,8.04 -8.402,8.04c-0.247,-0 -1.436,-1.24 -2.642,-2.756l-0,-0Zm7.019,-3.597c-0.004,-0.576 -9.052,-5.17 -9.434,-4.789c-0.583,0.583 -0.19,1.787 1.337,4.093c0.882,1.33 2.099,2.954 2.706,3.607l1.103,1.189l2.145,-1.809c1.18,-0.995 2.144,-2.026 2.143,-2.291Zm2.446,-4.202c-0.726,-4.237 -0.438,-3.898 -5.285,-6.23c-2.487,-1.196 -4.644,-2.176 -4.792,-2.176c-0.245,0 -0.641,1.249 -1.415,4.461c-0.265,1.1 -0.032,1.278 5.095,3.871c4.372,2.212 5.494,2.619 6.02,2.182c0.454,-0.377 0.566,-1.002 0.377,-2.108Zm-1.303,-8.406c-0.852,-5.794 -0.546,-5.201 -3.423,-6.653c-1.453,-0.733 -2.855,-1.261 -3.117,-1.174c-0.262,0.087 -0.816,1.4 -1.232,2.917c-0.869,3.175 -1.141,2.792 3.765,5.287c3.735,1.899 4.333,1.842 4.007,-0.377Zm-1.147,-9.37c-0.012,-3.387 -0.303,-3.858 -2.397,-3.858c-1.743,0 -1.888,0.097 -2.336,1.557c-0.52,1.694 -0.464,1.765 2.755,3.448c1.889,0.989 1.985,0.933 1.978,-1.147Zm71.065,23.174l-1.916,-0.677l0.277,-1.852c0.229,-1.527 0.119,-1.996 -0.63,-2.673c-0.886,-0.802 -0.95,-0.799 -2.742,0.111c-1.33,0.675 -2.052,0.815 -2.626,0.508c-0.894,-0.479 -3.013,-3.429 -3.013,-4.195c-0,-0.277 0.693,-0.975 1.54,-1.552c0.847,-0.576 1.542,-1.352 1.543,-1.722c0.005,-1.181 -1.277,-2.554 -2.673,-2.861c-1.775,-0.39 -1.893,-0.851 -0.961,-3.741l0.782,-2.425l2.057,0.143c1.814,0.127 2.147,0.007 2.818,-1.017c0.73,-1.114 0.721,-1.229 -0.216,-2.897c-0.537,-0.956 -0.841,-1.956 -0.676,-2.223c0.413,-0.668 4.213,-3.045 4.868,-3.045c0.292,-0 0.941,0.694 1.442,1.543c1.492,2.528 4.026,1.911 4.697,-1.143l0.301,-1.373l2.491,0.31c1.37,0.17 2.662,0.415 2.871,0.543c0.21,0.129 0.281,0.987 0.157,1.907c-0.179,1.337 -0.028,1.858 0.75,2.589c1.169,1.098 1.649,1.129 3.412,0.217c1.298,-0.671 1.394,-0.655 2.517,0.421c0.643,0.616 1.52,1.715 1.951,2.444l0.783,1.325l-1.594,1.764c-1.9,2.104 -1.838,3.08 0.242,3.793l1.543,0.528l-0.081,2.766c-0.044,1.522 -0.29,2.976 -0.546,3.231c-0.255,0.256 -1.329,0.42 -2.386,0.366c-2.31,-0.12 -3.187,0.668 -2.744,2.467c0.867,3.525 0.914,3.376 -1.463,4.669l-2.223,1.21l-1.212,-1.361c-0.938,-1.052 -1.518,-1.331 -2.555,-1.23c-1.1,0.108 -1.493,0.468 -2.188,2.005c-0.951,2.104 -1.473,2.232 -4.597,1.127l0,0Zm3.438,-2.737c0.802,-1.573 1.072,-1.747 3.15,-2.033c2.137,-0.294 2.331,-0.239 3.266,0.934c0.912,1.143 1.094,1.201 2.198,0.698c1.258,-0.573 1.269,-0.762 0.203,-3.406c-0.505,-1.252 -0.444,-1.433 0.94,-2.817c1.154,-1.154 1.867,-1.49 3.239,-1.528c1.611,-0.044 1.784,-0.168 2.049,-1.458c0.269,-1.314 0.177,-1.454 -1.356,-2.067c-2.611,-1.045 -3,-3.812 -0.792,-5.627c1.299,-1.067 1.374,-1.263 0.89,-2.327c-0.724,-1.589 -1.643,-1.833 -3.381,-0.897l-1.472,0.793l-1.921,-1.596c-1.65,-1.371 -1.92,-1.833 -1.92,-3.272c-0,-1.468 -0.14,-1.692 -1.125,-1.807c-0.905,-0.106 -1.248,0.152 -1.763,1.323c-0.635,1.442 -1.745,2.192 -4.037,2.726c-1.211,0.282 -1.317,0.213 -2.949,-1.923c-0.778,-1.018 -0.915,-1.05 -2.013,-0.462c-1.216,0.651 -1.226,0.825 -0.194,3.391c0.512,1.273 0.457,1.553 -0.614,3.172c-1.066,1.611 -1.371,1.788 -3.28,1.911c-1.908,0.122 -2.117,0.243 -2.239,1.305c-0.115,0.988 0.097,1.247 1.367,1.665c1.194,0.395 1.606,0.844 2.009,2.189c0.748,2.496 0.648,2.959 -0.901,4.171c-1.281,1.002 -1.362,1.205 -0.892,2.237c0.629,1.379 1.499,1.429 3.49,0.198l1.515,-0.936l1.396,1.267c1.995,1.81 2.086,1.991 1.796,3.578c-0.222,1.215 -0.105,1.492 0.779,1.846c1.567,0.628 1.617,0.603 2.562,-1.248Zm-2.218,-6.778c-3.254,-2.193 -4.335,-5.686 -2.777,-8.971c1.428,-3.008 5.499,-4.684 8.418,-3.464c4.615,1.928 6.134,6.183 3.657,10.245c-1.929,3.162 -6.32,4.196 -9.298,2.19Zm-127.591,6.952c-0.471,-0.362 -1.383,-0.658 -2.026,-0.658c-1.18,-0 -2.63,-1.174 -2.63,-2.129c0,-0.63 1.604,-0.691 1.984,-0.076c0.15,0.243 0.578,0.441 0.952,0.441c0.373,0 1.304,0.277 2.068,0.614c0.765,0.338 1.754,0.735 2.198,0.882c0.445,0.148 0.727,0.516 0.628,0.819c-0.265,0.805 -2.183,0.87 -3.174,0.107l-0,0Zm100.833,-3.419c-0.241,-0.3 -0.586,-1.042 -0.769,-1.649c-0.648,-2.154 -2.444,-5.283 -4.436,-7.73c-1.858,-2.28 -2.359,-4.062 -0.979,-3.479c1.718,0.725 7.403,10.099 7.403,12.208c-0,0.961 -0.681,1.324 -1.219,0.65Zm-6.47,-6.446c-0.505,-0.975 -0.551,-1.409 -0.175,-1.641c0.573,-0.355 2.247,1.461 2.008,2.179c-0.326,0.978 -1.179,0.728 -1.833,-0.538Zm-234.987,-15.792c-0.155,-0.155 -0.282,-13.642 -0.282,-29.972l-0,-29.69l13.228,0c11.013,0 13.228,0.103 13.228,0.615c0,0.338 -0.314,0.734 -0.697,0.882c-0.384,0.147 -6.039,0.267 -12.567,0.267l-11.869,0l-0,28.856c-0,15.87 -0.171,28.961 -0.38,29.09c-0.208,0.129 -0.506,0.107 -0.661,-0.048l-0,0Zm30.282,-5.413c-0.53,-0.222 -1.175,-0.799 -1.433,-1.282c-0.317,-0.591 -0.47,-9.015 -0.47,-25.82c-0,-21.877 0.081,-24.942 0.661,-24.942c0.58,0 0.662,3.03 0.662,24.624c-0,23.068 0.049,24.67 0.786,25.336c0.688,0.623 1.474,0.662 6.283,0.311c3.024,-0.221 10.26,-0.715 16.08,-1.097c5.82,-0.383 14.849,-0.981 20.063,-1.331c5.214,-0.349 14.143,-0.938 19.842,-1.309c5.699,-0.371 11.371,-0.756 12.605,-0.856c2.423,-0.197 3.794,0.272 3.029,1.037c-0.437,0.437 -7.002,0.993 -28.862,2.443c-5.699,0.378 -14.827,0.984 -20.283,1.345c-19.416,1.288 -23.179,1.545 -25.575,1.744c-1.334,0.11 -2.858,0.019 -3.388,-0.203Zm82.614,-5.594c-0.569,-0.569 0.716,-1.474 2.093,-1.474c0.771,0 1.64,-0.238 1.931,-0.529c0.399,-0.399 0.529,-6.721 0.529,-25.745l-0,-25.216l-1.874,-0.25c-1.031,-0.138 -4.057,-0.366 -6.725,-0.507c-2.667,-0.141 -9.612,-0.542 -15.432,-0.892c-5.821,-0.35 -15.742,-0.944 -22.047,-1.321c-6.306,-0.376 -16.128,-0.971 -21.827,-1.32c-5.699,-0.35 -12.445,-0.691 -14.992,-0.758l-4.63,-0.123l-0.127,4.079c-0.1,3.227 -0.261,4.079 -0.771,4.079c-0.547,-0 -0.645,-1.535 -0.645,-10.125c-0,-13.274 -0.891,-12.343 10.998,-11.498c3.288,0.234 10.542,0.728 16.12,1.098c14.647,0.971 28.495,1.888 40.346,2.67c22.055,1.455 21.182,1.361 22.209,2.388c0.921,0.92 0.942,1.271 1.066,17.463l0.125,16.523l9.88,0c6.773,0 9.975,0.154 10.183,0.49c0.64,1.036 -1.223,1.261 -10.503,1.267l-9.591,0.007l0,13.199c0,13.351 -0.175,15.047 -1.671,16.183c-0.783,0.595 -4.137,0.82 -4.645,0.311l0,0.001Zm4.458,-59.544c0.11,-3.945 0.029,-4.546 -0.662,-4.904c-0.433,-0.225 -4.358,-0.64 -8.723,-0.922c-4.366,-0.283 -12.104,-0.797 -17.197,-1.143c-5.093,-0.346 -14.022,-0.944 -19.842,-1.329c-5.821,-0.385 -14.651,-0.979 -19.622,-1.32c-4.972,-0.341 -11.647,-0.754 -14.835,-0.919c-5.564,-0.287 -5.814,-0.262 -6.283,0.614c-0.652,1.217 -0.645,8.758 0.008,9.162c0.273,0.168 4.887,0.561 10.252,0.871c20.737,1.2 26.3,1.532 32.905,1.961c3.759,0.245 10.506,0.663 14.992,0.929c4.487,0.267 12.225,0.74 17.197,1.053c4.971,0.312 9.634,0.539 10.362,0.505l1.323,-0.062l0.125,-4.496l-0,-0Zm-20.85,-0.169c-1.94,-0.194 -6.504,-0.581 -10.142,-0.859c-6.311,-0.482 -8.238,-0.965 -7.358,-1.845c0.506,-0.506 26.008,1.477 27.017,2.1c1.7,1.051 -2.43,1.313 -9.517,0.604Zm-44.48,-2.398c-0.821,-0.821 -0.92,-2.094 -0.26,-3.328c0.718,-1.341 3.291,-1.159 4.247,0.3c0.677,1.033 0.688,1.275 0.107,2.315c-0.789,1.413 -3.007,1.8 -4.093,0.713l-0.001,0Zm-8.364,-0.578c-1.497,-1.653 -0.387,-4.485 1.757,-4.485c1.15,0 2.804,1.57 2.804,2.663c0,1.182 -1.54,2.628 -2.798,2.628c-0.568,0 -1.362,-0.363 -1.763,-0.806Zm-8.93,-0.74c-1.421,-2.169 0.666,-4.682 3.116,-3.75c1.689,0.642 2.1,2.904 0.75,4.126c-1.214,1.098 -3.014,0.924 -3.866,-0.376Zm2.526,59.6c-0.748,-0.901 -0.149,-1.173 2.587,-1.173c1.375,0 2.63,0.131 2.789,0.291c0.681,0.681 -0.819,1.473 -2.789,1.473c-1.216,0 -2.303,-0.248 -2.587,-0.591Zm40.177,-3.233c-0.745,-0.294 -0.7,-1.026 0.063,-1.026c0.486,-0 13.026,-14.416 16.73,-19.232c0.445,-0.578 0.97,-1.051 1.167,-1.051c0.197,-0 3.763,3.968 7.924,8.818c4.161,4.851 7.753,8.819 7.983,8.819c1.042,0 -0.009,-1.466 -6.087,-8.497c-3.577,-4.138 -7.058,-8.177 -7.734,-8.976l-1.23,-1.452l6.132,-6.962c3.373,-3.83 6.556,-7.341 7.073,-7.803c0.951,-0.849 1.269,-2.026 0.547,-2.026c-0.375,0 -4.469,4.373 -11.47,12.248l-3.244,3.65l-2.478,-2.764c-5.581,-6.224 -14.289,-15.339 -14.654,-15.339c-1.056,0 0.227,1.6 7.656,9.547c4.426,4.734 8.171,8.839 8.323,9.121c0.264,0.492 -15.821,20.173 -16.737,20.478c-0.242,0.081 -0.507,-0.182 -0.588,-0.583c-0.13,-0.645 -0.948,-0.723 -7.05,-0.667c-7.384,0.068 -9.191,-0.153 -9.191,-1.125c-0,-0.502 1.489,-0.613 8.204,-0.613l8.205,-0l-0.157,-18.704c-0.087,-10.286 -0.034,-18.827 0.117,-18.978c0.151,-0.151 3.128,-0.073 6.614,0.174c3.487,0.247 11.03,0.75 16.764,1.116c5.734,0.367 10.744,0.789 11.134,0.939c0.635,0.243 0.709,2.124 0.709,18.047c-0,9.776 0.097,18.039 0.215,18.362c0.607,1.651 0.332,1.704 -15.428,3.012c-2.91,0.241 -7.375,0.639 -9.921,0.884c-7.462,0.719 -9.007,0.813 -9.59,0.583l-0.001,-0Zm-41.352,-0.609c-0.627,-1.014 0.653,-1.329 4.904,-1.206c3.534,0.103 4.37,0.254 4.37,0.789c0,0.536 -0.848,0.685 -4.484,0.787c-2.964,0.082 -4.588,-0.043 -4.79,-0.37Zm3.097,-3.51c-0.152,-0.247 0.927,-1.702 2.399,-3.235l2.676,-2.786l-0,-5.437l-2.469,-0c-4.718,-0 -7.554,-2.573 -7.116,-6.456c0.242,-2.142 1.948,-4.405 3.643,-4.83c0.528,-0.133 1.281,-1.013 1.776,-2.078c1.174,-2.526 3.25,-3.831 6.105,-3.838c2.062,-0.005 2.329,-0.128 3.2,-1.473c1.108,-1.712 3.407,-2.931 5.527,-2.931c1.209,-0 1.908,-0.422 3.679,-2.22l2.187,-2.22l3.862,0.126c2.124,0.069 3.911,0.323 3.97,0.566c0.062,0.254 -1.445,0.534 -3.565,0.661c-3.591,0.216 -3.708,0.259 -5.233,1.924l-1.56,1.704l1.15,1.066c1.272,1.179 2.205,2.827 2.649,4.678c0.211,0.882 0.836,1.471 2.279,2.149c2.543,1.196 4.416,3.476 5.061,6.164c0.63,2.629 0.273,4.382 -1.171,5.74c-1.071,1.007 -1.409,1.053 -8.796,1.186l-7.682,0.139l-0,4.312c-0,5.277 0.353,5.772 4.113,5.772c1.915,0 2.501,0.153 2.501,0.653c-0,0.873 -1.791,1.276 -4.085,0.919c-3.568,-0.554 -4.293,-1.819 -4.293,-7.495l-0,-4.218l-3.968,-0l-0,6.474l-2.828,2.716c-2.838,2.725 -3.498,3.098 -4.011,2.268l-0,-0Zm28.199,-14.202c2.155,-3.077 -0.701,-8.471 -4.965,-9.375c-1.561,-0.331 -1.625,-0.426 -2.054,-3.003c-0.44,-2.643 -2.265,-4.35 -4.926,-4.606c-2.002,-0.192 -2.369,-0.08 -3.777,1.156c-0.89,0.782 -1.676,1.957 -1.833,2.743c-0.221,1.104 -0.427,1.307 -1.048,1.034c-1.499,-0.659 -4.175,-0.736 -5.265,-0.153c-1.215,0.65 -2.343,2.521 -2.343,3.885c0,0.661 -0.447,1.008 -1.747,1.358c-2.113,0.569 -3.103,1.855 -3.103,4.032c-0,1.274 0.293,1.873 1.356,2.768l1.357,1.141l13.831,0c13.792,0 13.833,-0.003 14.517,-0.98l0,0Zm-27.97,-2.321c-0.547,-0.659 -0.335,-1.99 0.316,-1.99c0.548,-0 1.502,1.752 1.212,2.223c-0.374,0.603 -0.9,0.523 -1.528,-0.233Zm24.124,-1.218c-0.431,-2.764 1.16,-2.752 1.713,0.013c0.245,1.222 0.161,1.419 -0.603,1.419c-0.661,0 -0.944,-0.365 -1.11,-1.433l-0,0.001Zm-8.821,-9.92c-1.86,-0.763 -1.951,-1.584 -0.198,-1.792c1.237,-0.147 3.202,1.387 2.739,2.137c-0.325,0.525 -0.468,0.505 -2.541,-0.345Zm133.289,24.883c0,-0.644 2.843,-2.163 3.262,-1.743c0.431,0.43 0.309,0.893 -0.427,1.63c-0.841,0.84 -2.835,0.92 -2.835,0.113l0,-0Zm8.819,-0.066c-0,-0.955 1.723,-1.778 2.362,-1.129c0.379,0.384 0.292,0.668 -0.352,1.143c-1.103,0.814 -2.01,0.807 -2.01,-0.013l-0,-0.001Zm-9.716,-2.679c-0.792,-0.956 -0.046,-5.715 0.897,-5.715c0.514,0 0.63,0.459 0.519,2.055c-0.122,1.759 -0.012,2.096 0.771,2.344c1.043,0.332 1.143,0.709 0.386,1.466c-0.731,0.73 -1.898,0.662 -2.573,-0.15Zm-44.516,-13.419c-1.453,-0.919 0.504,-1.284 7.588,-1.417c6.369,-0.12 7.478,-0.245 8.157,-0.925c0.701,-0.701 0.81,-2.014 1.007,-12.126c0.188,-9.687 0.317,-11.339 0.882,-11.339c0.567,-0 0.678,1.545 0.775,10.803c0.101,9.572 0.025,10.979 -0.661,12.346c-1.319,2.625 -2.888,3.086 -10.476,3.079c-3.638,-0.003 -6.91,-0.193 -7.272,-0.421Zm92.373,-3.819c-1.94,-0.59 -4.915,-1.45 -6.611,-1.912l-3.083,-0.84l-2.347,1.772c-1.291,0.975 -2.623,1.667 -2.959,1.538c-0.418,-0.16 -0.654,-1.171 -0.743,-3.18l-0.131,-2.945l-3.264,-1.252c-6.514,-2.499 -6.826,-3.668 -3.3,-12.376c2.978,-7.356 4.084,-8.746 6.964,-8.746c1.017,0 2.038,0.179 2.268,0.397c0.443,0.42 14.261,7.384 21.387,10.779c4.498,2.143 5.444,3.139 5.444,5.733c0,1.988 -3.631,10.308 -4.951,11.347c-1.448,1.138 -4.222,1.038 -8.674,-0.315l0,-0Zm3.209,-6.694c0.145,-0.441 -0.185,-0.509 -1.374,-0.286c-1.631,0.306 -1.628,0.307 -4.346,-2.848c-0.584,-0.677 -1.095,-0.812 -2.325,-0.612c-1.102,0.178 -1.808,0.047 -2.341,-0.435c-1.293,-1.17 -5.533,-2.947 -7.043,-2.951c-1.745,-0.005 -1.896,0.761 -0.221,1.12c2.32,0.496 4.82,1.543 6.31,2.643c1.101,0.812 1.964,1.079 3.242,1.004c1.011,-0.06 1.813,0.111 1.912,0.407c0.093,0.28 0.576,1.025 1.072,1.656c0.773,0.983 1.189,1.128 2.912,1.014c1.171,-0.077 2.091,-0.374 2.202,-0.712Zm4.128,-4.012c1.378,-1.117 0.822,-1.578 -1.075,-0.892c-1.726,0.624 -2.847,0.352 -3.252,-0.79c-0.634,-1.783 -1.553,-2.325 -3.951,-2.325c-2.284,0 -2.372,-0.046 -3.223,-1.715c-0.905,-1.774 -2.55,-2.692 -4.831,-2.696c-1.276,-0.001 -4.013,-1.5 -4.013,-2.196c0,-0.246 -0.297,-0.448 -0.661,-0.448c-0.364,0 -0.661,0.267 -0.661,0.594c-0,1.289 3.541,3.375 5.73,3.375c1.378,-0 2.459,0.858 4.101,3.253c0.692,1.011 1.097,1.156 3.208,1.156c2.222,0 2.452,0.096 2.871,1.198c0.25,0.659 0.667,1.453 0.925,1.764c0.713,0.86 3.636,0.691 4.832,-0.278Zm-181.067,-6.211c-0.577,-0.934 0.383,-1.323 3.26,-1.323c3.21,-0 3.847,0.243 3.076,1.172c-0.583,0.702 -5.917,0.829 -6.336,0.151l-0,-0Zm-50.929,-6.625c0,-0.491 0.72,-2.327 1.6,-4.079c6.896,-13.739 18.821,-25.171 32.685,-31.333c2.551,-1.134 3.636,-1.229 3.636,-0.316c0,0.201 -2.034,1.366 -4.519,2.588c-13.445,6.612 -24.335,17.408 -30.438,30.174c-1.761,3.684 -2.964,4.887 -2.964,2.966Zm125.186,-2.338c-4.379,-2.312 -6.132,-7.883 -3.757,-11.936c1.291,-2.202 2.944,-3.544 5.426,-4.403c1.41,-0.489 1.748,-0.865 2.21,-2.46c1.528,-5.277 6.439,-8.032 12.327,-6.915c1.679,0.318 1.861,0.261 2.148,-0.677c0.574,-1.872 3.254,-4.673 5.58,-5.832c2.755,-1.373 5.231,-1.468 8.266,-0.315c4.764,1.811 6.722,4.409 7.712,10.237c0.239,1.407 0.48,1.647 2.136,2.132c6.461,1.893 10.897,8.043 10.372,14.379c-0.227,2.731 -1.965,5.732 -3.702,6.393c-0.659,0.25 -10.429,0.423 -23.943,0.423l-22.831,-0l-1.944,-1.026Zm1.574,-6.592c-0.203,-1.082 -0.042,-1.736 0.641,-2.605c0.502,-0.638 0.913,-1.278 0.913,-1.421c-0,-0.558 -1.22,-0.223 -1.857,0.51c-1.36,1.566 -1.399,4.961 -0.056,4.961c0.473,-0 0.562,-0.36 0.359,-1.445Zm46.53,-0.765c-0,-1.857 -0.767,-3.963 -1.443,-3.963c-0.252,-0 -0.281,0.659 -0.074,1.653c0.19,0.91 0.386,2.199 0.435,2.866c0.125,1.692 0.146,1.739 0.641,1.433c0.242,-0.15 0.441,-1.045 0.441,-1.989l-0,-0Zm-12.347,-16.776c0,-1.582 -6.135,-5.04 -7.147,-4.027c-0.362,0.362 -0.175,0.613 0.711,0.949c0.661,0.252 1.338,0.462 1.504,0.468c0.167,0.007 1.195,0.687 2.287,1.514c2.131,1.615 2.645,1.828 2.645,1.096Zm-163.39,6.603c-0.933,-1.51 10.078,-13.192 12.435,-13.192c1.226,0 0.525,1.299 -1.505,2.79c-2.589,1.9 -6.507,5.99 -8.417,8.785c-1.455,2.129 -1.985,2.471 -2.513,1.617Z" style="fill-rule:nonzero;"/></g></svg>